<?xml version="1.0" encoding="utf-8" ?>
<svg baseProfile="full" height="70mm" version="1.1" viewBox="0,0,200,70" width="200mm" xmlns="http://www.w3.org/2000/svg" xmlns:ev="http://www.w3.org/2001/xml-events" xmlns:xlink="http://www.w3.org/1999/xlink"><defs /><rect fill="#222222" height="70" width="200" x="0" y="0" /><text fill="#FFFFFF" style="font-size:12px; font-family:Arial; font-weight:bold;" x="10" y="20" /><text fill="#FFFFFF" style="font-size:4px; font-family:Arial" x="10" y="50">ATHLETE</text><text fill="#FFFFFF" style="font-size:9px; font-family:Arial" x="10" y="60">Luckey</text><text fill="#FFFFFF" style="font-size:4px; font-family:Arial" x="120" y="50">STATISTICS</text><text fill="#FFFFFF" style="font-size:3px; font-family:Arial" x="120" y="55">Number: 31</text><text fill="#FFFFFF" style="font-size:3px; font-family:Arial" x="120" y="60">Weekly: 1.9</text><text fill="#FFFFFF" style="font-size:3px; font-family:Arial" x="141" y="55">Total: 786.9 km</text><text fill="#FFFFFF" style="font-size:3px; font-family:Arial" x="141" y="60">Avg: 25.4 km</text><text fill="#FFFFFF" style="font-size:3px; font-family:Arial" x="167" y="55">Min: 2.7 km</text><text fill="#FFFFFF" style="font-size:3px; font-family:Arial" x="167" y="60">Max: 108.9 km</text><text dominant-baseline="hanging" fill="#FFFFFF" style="font-size:10.0px; font-family:Arial;" x="10" y="5">2018 Running</text><text dominant-baseline="hanging" fill="#FFFFFF" style="font-size:4.125px; font-family:Arial;" x="175" y="5">786.9 km</text><text fill="#FFFFFF" style="font-size:2.5px; font-family:Arial" x="10.0" y="19">Jan</text><text fill="#FFFFFF" style="font-size:2.5px; font-family:Arial" x="25.5" y="19">Feb</text><text fill="#FFFFFF" style="font-size:2.5px; font-family:Arial" x="41.0" y="19">Mar</text><text fill="#FFFFFF" style="font-size:2.5px; font-family:Arial" x="56.5" y="19">Apr</text><text fill="#FFFFFF" style="font-size:2.5px; font-family:Arial" x="72.0" y="19">May</text><text fill="#FFFFFF" style="font-size:2.5px; font-family:Arial" x="87.5" y="19">Jun</text><text fill="#FFFFFF" style="font-size:2.5px; font-family:Arial" x="103.0" y="19">Jul</text><text fill="#FFFFFF" style="font-size:2.5px; font-family:Arial" x="118.5" y="19">Aug</text><text fill="#FFFFFF" style="font-size:2.5px; font-family:Arial" x="134.0" y="19">Sep</text><text fill="#FFFFFF" style="font-size:2.5px; font-family:Arial" x="149.5" y="19">Oct</text><text fill="#FFFFFF" style="font-size:2.5px; font-family:Arial" x="165.0" y="19">Nov</text><text fill="#FFFFFF" style="font-size:2.5px; font-family:Arial" x="180.5" y="19">Dec</text><rect fill="#444444" height="2.6" width="2.6" x="10.0" y="20.5"><title>2018-01-01</title></rect><rect fill="#444444" height="2.6" width="2.6" x="10.0" y="24.0"><title>2018-01-02</title></rect><rect fill="#444444" height="2.6" width="2.6" x="10.0" y="27.5"><title>2018-01-03</title></rect><rect fill="#444444" height="2.6" width="2.6" x="10.0" y="31.0"><title>2018-01-04</title></rect><rect fill="#444444" height="2.6" width="2.6" x="10.0" y="34.5"><title>2018-01-05</title></rect><rect fill="#444444" height="2.6" width="2.6" x="10.0" y="38.0"><title>2018-01-06</title></rect><rect fill="#444444" height="2.6" width="2.6" x="10.0" y="41.5"><title>2018-01-07</title></rect><rect fill="#444444" height="2.6" width="2.6" x="13.5" y="20.5"><title>2018-01-08</title></rect><rect fill="#444444" height="2.6" width="2.6" x="13.5" y="24.0"><title>2018-01-09</title></rect><rect fill="#444444" height="2.6" width="2.6" x="13.5" y="27.5"><title>2018-01-10</title></rect><rect fill="#444444" height="2.6" width="2.6" x="13.5" y="31.0"><title>2018-01-11</title></rect><rect fill="#444444" height="2.6" width="2.6" x="13.5" y="34.5"><title>2018-01-12</title></rect><rect fill="#444444" height="2.6" width="2.6" x="13.5" y="38.0"><title>2018-01-13</title></rect><rect fill="#444444" height="2.6" width="2.6" x="13.5" y="41.5"><title>2018-01-14</title></rect><rect fill="#444444" height="2.6" width="2.6" x="17.0" y="20.5"><title>2018-01-15</title></rect><rect fill="#444444" height="2.6" width="2.6" x="17.0" y="24.0"><title>2018-01-16</title></rect><rect fill="#444444" height="2.6" width="2.6" x="17.0" y="27.5"><title>2018-01-17</title></rect><rect fill="#444444" height="2.6" width="2.6" x="17.0" y="31.0"><title>2018-01-18</title></rect><rect fill="#444444" height="2.6" width="2.6" x="17.0" y="34.5"><title>2018-01-19</title></rect><rect fill="#444444" height="2.6" width="2.6" x="17.0" y="38.0"><title>2018-01-20</title></rect><rect fill="#444444" height="2.6" width="2.6" x="17.0" y="41.5"><title>2018-01-21</title></rect><rect fill="#444444" height="2.6" width="2.6" x="20.5" y="20.5"><title>2018-01-22</title></rect><rect fill="#444444" height="2.6" width="2.6" x="20.5" y="24.0"><title>2018-01-23</title></rect><rect fill="#444444" height="2.6" width="2.6" x="20.5" y="27.5"><title>2018-01-24</title></rect><rect fill="#444444" height="2.6" width="2.6" x="20.5" y="31.0"><title>2018-01-25</title></rect><rect fill="#444444" height="2.6" width="2.6" x="20.5" y="34.5"><title>2018-01-26</title></rect><rect fill="#444444" height="2.6" width="2.6" x="20.5" y="38.0"><title>2018-01-27</title></rect><rect fill="#444444" height="2.6" width="2.6" x="20.5" y="41.5"><title>2018-01-28</title></rect><rect fill="#444444" height="2.6" width="2.6" x="24.0" y="20.5"><title>2018-01-29</title></rect><rect fill="#444444" height="2.6" width="2.6" x="24.0" y="24.0"><title>2018-01-30</title></rect><rect fill="#444444" height="2.6" width="2.6" x="24.0" y="27.5"><title>2018-01-31</title></rect><rect fill="#444444" height="2.6" width="2.6" x="24.0" y="31.0"><title>2018-02-01</title></rect><rect fill="#444444" height="2.6" width="2.6" x="24.0" y="34.5"><title>2018-02-02</title></rect><rect fill="#444444" height="2.6" width="2.6" x="24.0" y="38.0"><title>2018-02-03</title></rect><rect fill="#444444" height="2.6" width="2.6" x="24.0" y="41.5"><title>2018-02-04</title></rect><rect fill="#444444" height="2.6" width="2.6" x="27.5" y="20.5"><title>2018-02-05</title></rect><rect fill="#444444" height="2.6" width="2.6" x="27.5" y="24.0"><title>2018-02-06</title></rect><rect fill="#444444" height="2.6" width="2.6" x="27.5" y="27.5"><title>2018-02-07</title></rect><rect fill="#444444" height="2.6" width="2.6" x="27.5" y="31.0"><title>2018-02-08</title></rect><rect fill="#444444" height="2.6" width="2.6" x="27.5" y="34.5"><title>2018-02-09</title></rect><rect fill="#444444" height="2.6" width="2.6" x="27.5" y="38.0"><title>2018-02-10</title></rect><rect fill="#444444" height="2.6" width="2.6" x="27.5" y="41.5"><title>2018-02-11</title></rect><rect fill="#444444" height="2.6" width="2.6" x="31.0" y="20.5"><title>2018-02-12</title></rect><rect fill="#444444" height="2.6" width="2.6" x="31.0" y="24.0"><title>2018-02-13</title></rect><rect fill="#444444" height="2.6" width="2.6" x="31.0" y="27.5"><title>2018-02-14</title></rect><rect fill="#444444" height="2.6" width="2.6" x="31.0" y="31.0"><title>2018-02-15</title></rect><rect fill="#444444" height="2.6" width="2.6" x="31.0" y="34.5"><title>2018-02-16</title></rect><rect fill="#444444" height="2.6" width="2.6" x="31.0" y="38.0"><title>2018-02-17</title></rect><rect fill="#444444" height="2.6" width="2.6" x="31.0" y="41.5"><title>2018-02-18</title></rect><rect fill="#444444" height="2.6" width="2.6" x="34.5" y="20.5"><title>2018-02-19</title></rect><rect fill="#444444" height="2.6" width="2.6" x="34.5" y="24.0"><title>2018-02-20</title></rect><rect fill="#444444" height="2.6" width="2.6" x="34.5" y="27.5"><title>2018-02-21</title></rect><rect fill="#444444" height="2.6" width="2.6" x="34.5" y="31.0"><title>2018-02-22</title></rect><rect fill="#444444" height="2.6" width="2.6" x="34.5" y="34.5"><title>2018-02-23</title></rect><rect fill="#444444" height="2.6" width="2.6" x="34.5" y="38.0"><title>2018-02-24</title></rect><rect fill="#444444" height="2.6" width="2.6" x="34.5" y="41.5"><title>2018-02-25</title></rect><rect fill="#444444" height="2.6" width="2.6" x="38.0" y="20.5"><title>2018-02-26</title></rect><rect fill="#444444" height="2.6" width="2.6" x="38.0" y="24.0"><title>2018-02-27</title></rect><rect fill="#444444" height="2.6" width="2.6" x="38.0" y="27.5"><title>2018-02-28</title></rect><rect fill="#444444" height="2.6" width="2.6" x="38.0" y="31.0"><title>2018-03-01</title></rect><rect fill="#444444" height="2.6" width="2.6" x="38.0" y="34.5"><title>2018-03-02</title></rect><rect fill="#444444" height="2.6" width="2.6" x="38.0" y="38.0"><title>2018-03-03</title></rect><rect fill="#444444" height="2.6" width="2.6" x="38.0" y="41.5"><title>2018-03-04</title></rect><rect fill="#444444" height="2.6" width="2.6" x="41.5" y="20.5"><title>2018-03-05</title></rect><rect fill="#444444" height="2.6" width="2.6" x="41.5" y="24.0"><title>2018-03-06</title></rect><rect fill="#444444" height="2.6" width="2.6" x="41.5" y="27.5"><title>2018-03-07</title></rect><rect fill="#444444" height="2.6" width="2.6" x="41.5" y="31.0"><title>2018-03-08</title></rect><rect fill="#444444" height="2.6" width="2.6" x="41.5" y="34.5"><title>2018-03-09</title></rect><rect fill="#444444" height="2.6" width="2.6" x="41.5" y="38.0"><title>2018-03-10</title></rect><rect fill="#444444" height="2.6" width="2.6" x="41.5" y="41.5"><title>2018-03-11</title></rect><rect fill="#444444" height="2.6" width="2.6" x="45.0" y="20.5"><title>2018-03-12</title></rect><rect fill="#444444" height="2.6" width="2.6" x="45.0" y="24.0"><title>2018-03-13</title></rect><rect fill="#444444" height="2.6" width="2.6" x="45.0" y="27.5"><title>2018-03-14</title></rect><rect fill="#444444" height="2.6" width="2.6" x="45.0" y="31.0"><title>2018-03-15</title></rect><rect fill="#444444" height="2.6" width="2.6" x="45.0" y="34.5"><title>2018-03-16</title></rect><rect fill="#444444" height="2.6" width="2.6" x="45.0" y="38.0"><title>2018-03-17</title></rect><rect fill="#444444" height="2.6" width="2.6" x="45.0" y="41.5"><title>2018-03-18</title></rect><rect fill="#444444" height="2.6" width="2.6" x="48.5" y="20.5"><title>2018-03-19</title></rect><rect fill="#444444" height="2.6" width="2.6" x="48.5" y="24.0"><title>2018-03-20</title></rect><rect fill="#444444" height="2.6" width="2.6" x="48.5" y="27.5"><title>2018-03-21</title></rect><rect fill="#444444" height="2.6" width="2.6" x="48.5" y="31.0"><title>2018-03-22</title></rect><rect fill="#444444" height="2.6" width="2.6" x="48.5" y="34.5"><title>2018-03-23</title></rect><rect fill="#444444" height="2.6" width="2.6" x="48.5" y="38.0"><title>2018-03-24</title></rect><rect fill="#444444" height="2.6" width="2.6" x="48.5" y="41.5"><title>2018-03-25</title></rect><rect fill="#444444" height="2.6" width="2.6" x="52.0" y="20.5"><title>2018-03-26</title></rect><rect fill="#444444" height="2.6" width="2.6" x="52.0" y="24.0"><title>2018-03-27</title></rect><rect fill="#444444" height="2.6" width="2.6" x="52.0" y="27.5"><title>2018-03-28</title></rect><rect fill="#444444" height="2.6" width="2.6" x="52.0" y="31.0"><title>2018-03-29</title></rect><rect fill="#444444" height="2.6" width="2.6" x="52.0" y="34.5"><title>2018-03-30</title></rect><rect fill="#444444" height="2.6" width="2.6" x="52.0" y="38.0"><title>2018-03-31</title></rect><rect fill="#444444" height="2.6" width="2.6" x="52.0" y="41.5"><title>2018-04-01</title></rect><rect fill="#444444" height="2.6" width="2.6" x="55.5" y="20.5"><title>2018-04-02</title></rect><rect fill="#444444" height="2.6" width="2.6" x="55.5" y="24.0"><title>2018-04-03</title></rect><rect fill="#444444" height="2.6" width="2.6" x="55.5" y="27.5"><title>2018-04-04</title></rect><rect fill="#444444" height="2.6" width="2.6" x="55.5" y="31.0"><title>2018-04-05</title></rect><rect fill="#444444" height="2.6" width="2.6" x="55.5" y="34.5"><title>2018-04-06</title></rect><rect fill="#444444" height="2.6" width="2.6" x="55.5" y="38.0"><title>2018-04-07</title></rect><rect fill="#444444" height="2.6" width="2.6" x="55.5" y="41.5"><title>2018-04-08</title></rect><rect fill="#444444" height="2.6" width="2.6" x="59.0" y="20.5"><title>2018-04-09</title></rect><rect fill="#444444" height="2.6" width="2.6" x="59.0" y="24.0"><title>2018-04-10</title></rect><rect fill="#444444" height="2.6" width="2.6" x="59.0" y="27.5"><title>2018-04-11</title></rect><rect fill="#444444" height="2.6" width="2.6" x="59.0" y="31.0"><title>2018-04-12</title></rect><rect fill="#444444" height="2.6" width="2.6" x="59.0" y="34.5"><title>2018-04-13</title></rect><rect fill="#444444" height="2.6" width="2.6" x="59.0" y="38.0"><title>2018-04-14</title></rect><rect fill="#ffee00" height="2.6" width="2.6" x="59.0" y="41.5"><title>2018-04-15 15.8 km</title></rect><rect fill="#444444" height="2.6" width="2.6" x="62.5" y="20.5"><title>2018-04-16</title></rect><rect fill="#444444" height="2.6" width="2.6" x="62.5" y="24.0"><title>2018-04-17</title></rect><rect fill="#444444" height="2.6" width="2.6" x="62.5" y="27.5"><title>2018-04-18</title></rect><rect fill="#444444" height="2.6" width="2.6" x="62.5" y="31.0"><title>2018-04-19</title></rect><rect fill="#444444" height="2.6" width="2.6" x="62.5" y="34.5"><title>2018-04-20</title></rect><rect fill="#444444" height="2.6" width="2.6" x="62.5" y="38.0"><title>2018-04-21</title></rect><rect fill="#444444" height="2.6" width="2.6" x="62.5" y="41.5"><title>2018-04-22</title></rect><rect fill="#444444" height="2.6" width="2.6" x="66.0" y="20.5"><title>2018-04-23</title></rect><rect fill="#444444" height="2.6" width="2.6" x="66.0" y="24.0"><title>2018-04-24</title></rect><rect fill="#444444" height="2.6" width="2.6" x="66.0" y="27.5"><title>2018-04-25</title></rect><rect fill="#444444" height="2.6" width="2.6" x="66.0" y="31.0"><title>2018-04-26</title></rect><rect fill="#444444" height="2.6" width="2.6" x="66.0" y="34.5"><title>2018-04-27</title></rect><rect fill="red" height="2.6" width="2.6" x="66.0" y="38.0"><title>2018-04-28 21.4 km</title></rect><rect fill="#444444" height="2.6" width="2.6" x="66.0" y="41.5"><title>2018-04-29</title></rect><rect fill="red" height="2.6" width="2.6" x="69.5" y="20.5"><title>2018-04-30 34.4 km</title></rect><rect fill="#444444" height="2.6" width="2.6" x="69.5" y="24.0"><title>2018-05-01</title></rect><rect fill="#444444" height="2.6" width="2.6" x="69.5" y="27.5"><title>2018-05-02</title></rect><rect fill="#444444" height="2.6" width="2.6" x="69.5" y="31.0"><title>2018-05-03</title></rect><rect fill="red" height="2.6" width="2.6" x="69.5" y="34.5"><title>2018-05-04 46.6 km</title></rect><rect fill="red" height="2.6" width="2.6" x="69.5" y="38.0"><title>2018-05-05 115.8 km</title></rect><rect fill="#444444" height="2.6" width="2.6" x="69.5" y="41.5"><title>2018-05-06</title></rect><rect fill="#444444" height="2.6" width="2.6" x="73.0" y="20.5"><title>2018-05-07</title></rect><rect fill="#444444" height="2.6" width="2.6" x="73.0" y="24.0"><title>2018-05-08</title></rect><rect fill="#444444" height="2.6" width="2.6" x="73.0" y="27.5"><title>2018-05-09</title></rect><rect fill="#444444" height="2.6" width="2.6" x="73.0" y="31.0"><title>2018-05-10</title></rect><rect fill="#444444" height="2.6" width="2.6" x="73.0" y="34.5"><title>2018-05-11</title></rect><rect fill="#444444" height="2.6" width="2.6" x="73.0" y="38.0"><title>2018-05-12</title></rect><rect fill="#fffa00" height="2.6" width="2.6" x="73.0" y="41.5"><title>2018-05-13 10.3 km</title></rect><rect fill="#444444" height="2.6" width="2.6" x="76.5" y="20.5"><title>2018-05-14</title></rect><rect fill="#444444" height="2.6" width="2.6" x="76.5" y="24.0"><title>2018-05-15</title></rect><rect fill="#444444" height="2.6" width="2.6" x="76.5" y="27.5"><title>2018-05-16</title></rect><rect fill="#444444" height="2.6" width="2.6" x="76.5" y="31.0"><title>2018-05-17</title></rect><rect fill="#444444" height="2.6" width="2.6" x="76.5" y="34.5"><title>2018-05-18</title></rect><rect fill="#444444" height="2.6" width="2.6" x="76.5" y="38.0"><title>2018-05-19</title></rect><rect fill="#444444" height="2.6" width="2.6" x="76.5" y="41.5"><title>2018-05-20</title></rect><rect fill="#444444" height="2.6" width="2.6" x="80.0" y="20.5"><title>2018-05-21</title></rect><rect fill="#444444" height="2.6" width="2.6" x="80.0" y="24.0"><title>2018-05-22</title></rect><rect fill="#444444" height="2.6" width="2.6" x="80.0" y="27.5"><title>2018-05-23</title></rect><rect fill="#444444" height="2.6" width="2.6" x="80.0" y="31.0"><title>2018-05-24</title></rect><rect fill="#444444" height="2.6" width="2.6" x="80.0" y="34.5"><title>2018-05-25</title></rect><rect fill="#ffec00" height="2.6" width="2.6" x="80.0" y="38.0"><title>2018-05-26 17.0 km</title></rect><rect fill="#444444" height="2.6" width="2.6" x="80.0" y="41.5"><title>2018-05-27</title></rect><rect fill="#444444" height="2.6" width="2.6" x="83.5" y="20.5"><title>2018-05-28</title></rect><rect fill="#444444" height="2.6" width="2.6" x="83.5" y="24.0"><title>2018-05-29</title></rect><rect fill="#444444" height="2.6" width="2.6" x="83.5" y="27.5"><title>2018-05-30</title></rect><rect fill="red" height="2.6" width="2.6" x="83.5" y="31.0"><title>2018-05-31 22.8 km</title></rect><rect fill="#444444" height="2.6" width="2.6" x="83.5" y="34.5"><title>2018-06-01</title></rect><rect fill="#444444" height="2.6" width="2.6" x="83.5" y="38.0"><title>2018-06-02</title></rect><rect fill="#444444" height="2.6" width="2.6" x="83.5" y="41.5"><title>2018-06-03</title></rect><rect fill="#444444" height="2.6" width="2.6" x="87.0" y="20.5"><title>2018-06-04</title></rect><rect fill="#444444" height="2.6" width="2.6" x="87.0" y="24.0"><title>2018-06-05</title></rect><rect fill="#444444" height="2.6" width="2.6" x="87.0" y="27.5"><title>2018-06-06</title></rect><rect fill="#fff500" height="2.6" width="2.6" x="87.0" y="31.0"><title>2018-06-07 12.3 km</title></rect><rect fill="#444444" height="2.6" width="2.6" x="87.0" y="34.5"><title>2018-06-08</title></rect><rect fill="#444444" height="2.6" width="2.6" x="87.0" y="38.0"><title>2018-06-09</title></rect><rect fill="#444444" height="2.6" width="2.6" x="87.0" y="41.5"><title>2018-06-10</title></rect><rect fill="#444444" height="2.6" width="2.6" x="90.5" y="20.5"><title>2018-06-11</title></rect><rect fill="#444444" height="2.6" width="2.6" x="90.5" y="24.0"><title>2018-06-12</title></rect><rect fill="#444444" height="2.6" width="2.6" x="90.5" y="27.5"><title>2018-06-13</title></rect><rect fill="#444444" height="2.6" width="2.6" x="90.5" y="31.0"><title>2018-06-14</title></rect><rect fill="#444444" height="2.6" width="2.6" x="90.5" y="34.5"><title>2018-06-15</title></rect><rect fill="#444444" height="2.6" width="2.6" x="90.5" y="38.0"><title>2018-06-16</title></rect><rect fill="#444444" height="2.6" width="2.6" x="90.5" y="41.5"><title>2018-06-17</title></rect><rect fill="#444444" height="2.6" width="2.6" x="94.0" y="20.5"><title>2018-06-18</title></rect><rect fill="#444444" height="2.6" width="2.6" x="94.0" y="24.0"><title>2018-06-19</title></rect><rect fill="#444444" height="2.6" width="2.6" x="94.0" y="27.5"><title>2018-06-20</title></rect><rect fill="red" height="2.6" width="2.6" x="94.0" y="31.0"><title>2018-06-21 21.9 km</title></rect><rect fill="#444444" height="2.6" width="2.6" x="94.0" y="34.5"><title>2018-06-22</title></rect><rect fill="#444444" height="2.6" width="2.6" x="94.0" y="38.0"><title>2018-06-23</title></rect><rect fill="#444444" height="2.6" width="2.6" x="94.0" y="41.5"><title>2018-06-24</title></rect><rect fill="#444444" height="2.6" width="2.6" x="97.5" y="20.5"><title>2018-06-25</title></rect><rect fill="red" height="2.6" width="2.6" x="97.5" y="24.0"><title>2018-06-26 28.9 km</title></rect><rect fill="red" height="2.6" width="2.6" x="97.5" y="27.5"><title>2018-06-27 28.2 km</title></rect><rect fill="#444444" height="2.6" width="2.6" x="97.5" y="31.0"><title>2018-06-28</title></rect><rect fill="#444444" height="2.6" width="2.6" x="97.5" y="34.5"><title>2018-06-29</title></rect><rect fill="#444444" height="2.6" width="2.6" x="97.5" y="38.0"><title>2018-06-30</title></rect><rect fill="#444444" height="2.6" width="2.6" x="97.5" y="41.5"><title>2018-07-01</title></rect><rect fill="#444444" height="2.6" width="2.6" x="101.0" y="20.5"><title>2018-07-02</title></rect><rect fill="#444444" height="2.6" width="2.6" x="101.0" y="24.0"><title>2018-07-03</title></rect><rect fill="#444444" height="2.6" width="2.6" x="101.0" y="27.5"><title>2018-07-04</title></rect><rect fill="#444444" height="2.6" width="2.6" x="101.0" y="31.0"><title>2018-07-05</title></rect><rect fill="#444444" height="2.6" width="2.6" x="101.0" y="34.5"><title>2018-07-06</title></rect><rect fill="#444444" height="2.6" width="2.6" x="101.0" y="38.0"><title>2018-07-07</title></rect><rect fill="#444444" height="2.6" width="2.6" x="101.0" y="41.5"><title>2018-07-08</title></rect><rect fill="#444444" height="2.6" width="2.6" x="104.5" y="20.5"><title>2018-07-09</title></rect><rect fill="#444444" height="2.6" width="2.6" x="104.5" y="24.0"><title>2018-07-10</title></rect><rect fill="#444444" height="2.6" width="2.6" x="104.5" y="27.5"><title>2018-07-11</title></rect><rect fill="#444444" height="2.6" width="2.6" x="104.5" y="31.0"><title>2018-07-12</title></rect><rect fill="#444444" height="2.6" width="2.6" x="104.5" y="34.5"><title>2018-07-13</title></rect><rect fill="#4dd2ff" height="2.6" width="2.6" x="104.5" y="38.0"><title>2018-07-14 7.7 km</title></rect><rect fill="#444444" height="2.6" width="2.6" x="104.5" y="41.5"><title>2018-07-15</title></rect><rect fill="#444444" height="2.6" width="2.6" x="108.0" y="20.5"><title>2018-07-16</title></rect><rect fill="#444444" height="2.6" width="2.6" x="108.0" y="24.0"><title>2018-07-17</title></rect><rect fill="#444444" height="2.6" width="2.6" x="108.0" y="27.5"><title>2018-07-18</title></rect><rect fill="#444444" height="2.6" width="2.6" x="108.0" y="31.0"><title>2018-07-19</title></rect><rect fill="#444444" height="2.6" width="2.6" x="108.0" y="34.5"><title>2018-07-20</title></rect><rect fill="#444444" height="2.6" width="2.6" x="108.0" y="38.0"><title>2018-07-21</title></rect><rect fill="#444444" height="2.6" width="2.6" x="108.0" y="41.5"><title>2018-07-22</title></rect><rect fill="#444444" height="2.6" width="2.6" x="111.5" y="20.5"><title>2018-07-23</title></rect><rect fill="#444444" height="2.6" width="2.6" x="111.5" y="24.0"><title>2018-07-24</title></rect><rect fill="#444444" height="2.6" width="2.6" x="111.5" y="27.5"><title>2018-07-25</title></rect><rect fill="#444444" height="2.6" width="2.6" x="111.5" y="31.0"><title>2018-07-26</title></rect><rect fill="#444444" height="2.6" width="2.6" x="111.5" y="34.5"><title>2018-07-27</title></rect><rect fill="#444444" height="2.6" width="2.6" x="111.5" y="38.0"><title>2018-07-28</title></rect><rect fill="#444444" height="2.6" width="2.6" x="111.5" y="41.5"><title>2018-07-29</title></rect><rect fill="#444444" height="2.6" width="2.6" x="115.0" y="20.5"><title>2018-07-30</title></rect><rect fill="#444444" height="2.6" width="2.6" x="115.0" y="24.0"><title>2018-07-31</title></rect><rect fill="#444444" height="2.6" width="2.6" x="115.0" y="27.5"><title>2018-08-01</title></rect><rect fill="#444444" height="2.6" width="2.6" x="115.0" y="31.0"><title>2018-08-02</title></rect><rect fill="#444444" height="2.6" width="2.6" x="115.0" y="34.5"><title>2018-08-03</title></rect><rect fill="#444444" height="2.6" width="2.6" x="115.0" y="38.0"><title>2018-08-04</title></rect><rect fill="#444444" height="2.6" width="2.6" x="115.0" y="41.5"><title>2018-08-05</title></rect><rect fill="#444444" height="2.6" width="2.6" x="118.5" y="20.5"><title>2018-08-06</title></rect><rect fill="#444444" height="2.6" width="2.6" x="118.5" y="24.0"><title>2018-08-07</title></rect><rect fill="#444444" height="2.6" width="2.6" x="118.5" y="27.5"><title>2018-08-08</title></rect><rect fill="#444444" height="2.6" width="2.6" x="118.5" y="31.0"><title>2018-08-09</title></rect><rect fill="#444444" height="2.6" width="2.6" x="118.5" y="34.5"><title>2018-08-10</title></rect><rect fill="#444444" height="2.6" width="2.6" x="118.5" y="38.0"><title>2018-08-11</title></rect><rect fill="red" height="2.6" width="2.6" x="118.5" y="41.5"><title>2018-08-12 80.0 km</title></rect><rect fill="#444444" height="2.6" width="2.6" x="122.0" y="20.5"><title>2018-08-13</title></rect><rect fill="#444444" height="2.6" width="2.6" x="122.0" y="24.0"><title>2018-08-14</title></rect><rect fill="#444444" height="2.6" width="2.6" x="122.0" y="27.5"><title>2018-08-15</title></rect><rect fill="#444444" height="2.6" width="2.6" x="122.0" y="31.0"><title>2018-08-16</title></rect><rect fill="#444444" height="2.6" width="2.6" x="122.0" y="34.5"><title>2018-08-17</title></rect><rect fill="#444444" height="2.6" width="2.6" x="122.0" y="38.0"><title>2018-08-18</title></rect><rect fill="red" height="2.6" width="2.6" x="122.0" y="41.5"><title>2018-08-19 39.3 km</title></rect><rect fill="#444444" height="2.6" width="2.6" x="125.5" y="20.5"><title>2018-08-20</title></rect><rect fill="#444444" height="2.6" width="2.6" x="125.5" y="24.0"><title>2018-08-21</title></rect><rect fill="#444444" height="2.6" width="2.6" x="125.5" y="27.5"><title>2018-08-22</title></rect><rect fill="#444444" height="2.6" width="2.6" x="125.5" y="31.0"><title>2018-08-23</title></rect><rect fill="#444444" height="2.6" width="2.6" x="125.5" y="34.5"><title>2018-08-24</title></rect><rect fill="#444444" height="2.6" width="2.6" x="125.5" y="38.0"><title>2018-08-25</title></rect><rect fill="#444444" height="2.6" width="2.6" x="125.5" y="41.5"><title>2018-08-26</title></rect><rect fill="#444444" height="2.6" width="2.6" x="129.0" y="20.5"><title>2018-08-27</title></rect><rect fill="#444444" height="2.6" width="2.6" x="129.0" y="24.0"><title>2018-08-28</title></rect><rect fill="#444444" height="2.6" width="2.6" x="129.0" y="27.5"><title>2018-08-29</title></rect><rect fill="#444444" height="2.6" width="2.6" x="129.0" y="31.0"><title>2018-08-30</title></rect><rect fill="#444444" height="2.6" width="2.6" x="129.0" y="34.5"><title>2018-08-31</title></rect><rect fill="#444444" height="2.6" width="2.6" x="129.0" y="38.0"><title>2018-09-01</title></rect><rect fill="#444444" height="2.6" width="2.6" x="129.0" y="41.5"><title>2018-09-02</title></rect><rect fill="red" height="2.6" width="2.6" x="132.5" y="20.5"><title>2018-09-03 22.7 km</title></rect><rect fill="#444444" height="2.6" width="2.6" x="132.5" y="24.0"><title>2018-09-04</title></rect><rect fill="#444444" height="2.6" width="2.6" x="132.5" y="27.5"><title>2018-09-05</title></rect><rect fill="#444444" height="2.6" width="2.6" x="132.5" y="31.0"><title>2018-09-06</title></rect><rect fill="#444444" height="2.6" width="2.6" x="132.5" y="34.5"><title>2018-09-07</title></rect><rect fill="#444444" height="2.6" width="2.6" x="132.5" y="38.0"><title>2018-09-08</title></rect><rect fill="red" height="2.6" width="2.6" x="132.5" y="41.5"><title>2018-09-09 29.5 km</title></rect><rect fill="red" height="2.6" width="2.6" x="136.0" y="20.5"><title>2018-09-10 29.9 km</title></rect><rect fill="#444444" height="2.6" width="2.6" x="136.0" y="24.0"><title>2018-09-11</title></rect><rect fill="#444444" height="2.6" width="2.6" x="136.0" y="27.5"><title>2018-09-12</title></rect><rect fill="#444444" height="2.6" width="2.6" x="136.0" y="31.0"><title>2018-09-13</title></rect><rect fill="#444444" height="2.6" width="2.6" x="136.0" y="34.5"><title>2018-09-14</title></rect><rect fill="#444444" height="2.6" width="2.6" x="136.0" y="38.0"><title>2018-09-15</title></rect><rect fill="#444444" height="2.6" width="2.6" x="136.0" y="41.5"><title>2018-09-16</title></rect><rect fill="#444444" height="2.6" width="2.6" x="139.5" y="20.5"><title>2018-09-17</title></rect><rect fill="#444444" height="2.6" width="2.6" x="139.5" y="24.0"><title>2018-09-18</title></rect><rect fill="#444444" height="2.6" width="2.6" x="139.5" y="27.5"><title>2018-09-19</title></rect><rect fill="#444444" height="2.6" width="2.6" x="139.5" y="31.0"><title>2018-09-20</title></rect><rect fill="#444444" height="2.6" width="2.6" x="139.5" y="34.5"><title>2018-09-21</title></rect><rect fill="#444444" height="2.6" width="2.6" x="139.5" y="38.0"><title>2018-09-22</title></rect><rect fill="#444444" height="2.6" width="2.6" x="139.5" y="41.5"><title>2018-09-23</title></rect><rect fill="#444444" height="2.6" width="2.6" x="143.0" y="20.5"><title>2018-09-24</title></rect><rect fill="#444444" height="2.6" width="2.6" x="143.0" y="24.0"><title>2018-09-25</title></rect><rect fill="#444444" height="2.6" width="2.6" x="143.0" y="27.5"><title>2018-09-26</title></rect><rect fill="#444444" height="2.6" width="2.6" x="143.0" y="31.0"><title>2018-09-27</title></rect><rect fill="#444444" height="2.6" width="2.6" x="143.0" y="34.5"><title>2018-09-28</title></rect><rect fill="#444444" height="2.6" width="2.6" x="143.0" y="38.0"><title>2018-09-29</title></rect><rect fill="#444444" height="2.6" width="2.6" x="143.0" y="41.5"><title>2018-09-30</title></rect><rect fill="#444444" height="2.6" width="2.6" x="146.5" y="20.5"><title>2018-10-01</title></rect><rect fill="#444444" height="2.6" width="2.6" x="146.5" y="24.0"><title>2018-10-02</title></rect><rect fill="#444444" height="2.6" width="2.6" x="146.5" y="27.5"><title>2018-10-03</title></rect><rect fill="#444444" height="2.6" width="2.6" x="146.5" y="31.0"><title>2018-10-04</title></rect><rect fill="#444444" height="2.6" width="2.6" x="146.5" y="34.5"><title>2018-10-05</title></rect><rect fill="#444444" height="2.6" width="2.6" x="146.5" y="38.0"><title>2018-10-06</title></rect><rect fill="#444444" height="2.6" width="2.6" x="146.5" y="41.5"><title>2018-10-07</title></rect><rect fill="#444444" height="2.6" width="2.6" x="150.0" y="20.5"><title>2018-10-08</title></rect><rect fill="#444444" height="2.6" width="2.6" x="150.0" y="24.0"><title>2018-10-09</title></rect><rect fill="#444444" height="2.6" width="2.6" x="150.0" y="27.5"><title>2018-10-10</title></rect><rect fill="#444444" height="2.6" width="2.6" x="150.0" y="31.0"><title>2018-10-11</title></rect><rect fill="#444444" height="2.6" width="2.6" x="150.0" y="34.5"><title>2018-10-12</title></rect><rect fill="#444444" height="2.6" width="2.6" x="150.0" y="38.0"><title>2018-10-13</title></rect><rect fill="#444444" height="2.6" width="2.6" x="150.0" y="41.5"><title>2018-10-14</title></rect><rect fill="#444444" height="2.6" width="2.6" x="153.5" y="20.5"><title>2018-10-15</title></rect><rect fill="#444444" height="2.6" width="2.6" x="153.5" y="24.0"><title>2018-10-16</title></rect><rect fill="#444444" height="2.6" width="2.6" x="153.5" y="27.5"><title>2018-10-17</title></rect><rect fill="#444444" height="2.6" width="2.6" x="153.5" y="31.0"><title>2018-10-18</title></rect><rect fill="#444444" height="2.6" width="2.6" x="153.5" y="34.5"><title>2018-10-19</title></rect><rect fill="#444444" height="2.6" width="2.6" x="153.5" y="38.0"><title>2018-10-20</title></rect><rect fill="#444444" height="2.6" width="2.6" x="153.5" y="41.5"><title>2018-10-21</title></rect><rect fill="#444444" height="2.6" width="2.6" x="157.0" y="20.5"><title>2018-10-22</title></rect><rect fill="#444444" height="2.6" width="2.6" x="157.0" y="24.0"><title>2018-10-23</title></rect><rect fill="#444444" height="2.6" width="2.6" x="157.0" y="27.5"><title>2018-10-24</title></rect><rect fill="#444444" height="2.6" width="2.6" x="157.0" y="31.0"><title>2018-10-25</title></rect><rect fill="#444444" height="2.6" width="2.6" x="157.0" y="34.5"><title>2018-10-26</title></rect><rect fill="#444444" height="2.6" width="2.6" x="157.0" y="38.0"><title>2018-10-27</title></rect><rect fill="#444444" height="2.6" width="2.6" x="157.0" y="41.5"><title>2018-10-28</title></rect><rect fill="#444444" height="2.6" width="2.6" x="160.5" y="20.5"><title>2018-10-29</title></rect><rect fill="#444444" height="2.6" width="2.6" x="160.5" y="24.0"><title>2018-10-30</title></rect><rect fill="#444444" height="2.6" width="2.6" x="160.5" y="27.5"><title>2018-10-31</title></rect><rect fill="red" height="2.6" width="2.6" x="160.5" y="31.0"><title>2018-11-01 69.5 km</title></rect><rect fill="#444444" height="2.6" width="2.6" x="160.5" y="34.5"><title>2018-11-02</title></rect><rect fill="#444444" height="2.6" width="2.6" x="160.5" y="38.0"><title>2018-11-03</title></rect><rect fill="#444444" height="2.6" width="2.6" x="160.5" y="41.5"><title>2018-11-04</title></rect><rect fill="#444444" height="2.6" width="2.6" x="164.0" y="20.5"><title>2018-11-05</title></rect><rect fill="#444444" height="2.6" width="2.6" x="164.0" y="24.0"><title>2018-11-06</title></rect><rect fill="#444444" height="2.6" width="2.6" x="164.0" y="27.5"><title>2018-11-07</title></rect><rect fill="#444444" height="2.6" width="2.6" x="164.0" y="31.0"><title>2018-11-08</title></rect><rect fill="#444444" height="2.6" width="2.6" x="164.0" y="34.5"><title>2018-11-09</title></rect><rect fill="#444444" height="2.6" width="2.6" x="164.0" y="38.0"><title>2018-11-10</title></rect><rect fill="#444444" height="2.6" width="2.6" x="164.0" y="41.5"><title>2018-11-11</title></rect><rect fill="#444444" height="2.6" width="2.6" x="167.5" y="20.5"><title>2018-11-12</title></rect><rect fill="#444444" height="2.6" width="2.6" x="167.5" y="24.0"><title>2018-11-13</title></rect><rect fill="#444444" height="2.6" width="2.6" x="167.5" y="27.5"><title>2018-11-14</title></rect><rect fill="#444444" height="2.6" width="2.6" x="167.5" y="31.0"><title>2018-11-15</title></rect><rect fill="#444444" height="2.6" width="2.6" x="167.5" y="34.5"><title>2018-11-16</title></rect><rect fill="#444444" height="2.6" width="2.6" x="167.5" y="38.0"><title>2018-11-17</title></rect><rect fill="#444444" height="2.6" width="2.6" x="167.5" y="41.5"><title>2018-11-18</title></rect><rect fill="#444444" height="2.6" width="2.6" x="171.0" y="20.5"><title>2018-11-19</title></rect><rect fill="#444444" height="2.6" width="2.6" x="171.0" y="24.0"><title>2018-11-20</title></rect><rect fill="#444444" height="2.6" width="2.6" x="171.0" y="27.5"><title>2018-11-21</title></rect><rect fill="#444444" height="2.6" width="2.6" x="171.0" y="31.0"><title>2018-11-22</title></rect><rect fill="red" height="2.6" width="2.6" x="171.0" y="34.5"><title>2018-11-23 132.8 km</title></rect><rect fill="#444444" height="2.6" width="2.6" x="171.0" y="38.0"><title>2018-11-24</title></rect><rect fill="#444444" height="2.6" width="2.6" x="171.0" y="41.5"><title>2018-11-25</title></rect><rect fill="#444444" height="2.6" width="2.6" x="174.5" y="20.5"><title>2018-11-26</title></rect><rect fill="#444444" height="2.6" width="2.6" x="174.5" y="24.0"><title>2018-11-27</title></rect><rect fill="#444444" height="2.6" width="2.6" x="174.5" y="27.5"><title>2018-11-28</title></rect><rect fill="#444444" height="2.6" width="2.6" x="174.5" y="31.0"><title>2018-11-29</title></rect><rect fill="#444444" height="2.6" width="2.6" x="174.5" y="34.5"><title>2018-11-30</title></rect><rect fill="#444444" height="2.6" width="2.6" x="174.5" y="38.0"><title>2018-12-01</title></rect><rect fill="#444444" height="2.6" width="2.6" x="174.5" y="41.5"><title>2018-12-02</title></rect><rect fill="#444444" height="2.6" width="2.6" x="178.0" y="20.5"><title>2018-12-03</title></rect><rect fill="#444444" height="2.6" width="2.6" x="178.0" y="24.0"><title>2018-12-04</title></rect><rect fill="#444444" height="2.6" width="2.6" x="178.0" y="27.5"><title>2018-12-05</title></rect><rect fill="#444444" height="2.6" width="2.6" x="178.0" y="31.0"><title>2018-12-06</title></rect><rect fill="#444444" height="2.6" width="2.6" x="178.0" y="34.5"><title>2018-12-07</title></rect><rect fill="#444444" height="2.6" width="2.6" x="178.0" y="38.0"><title>2018-12-08</title></rect><rect fill="#444444" height="2.6" width="2.6" x="178.0" y="41.5"><title>2018-12-09</title></rect><rect fill="#444444" height="2.6" width="2.6" x="181.5" y="20.5"><title>2018-12-10</title></rect><rect fill="#444444" height="2.6" width="2.6" x="181.5" y="24.0"><title>2018-12-11</title></rect><rect fill="#444444" height="2.6" width="2.6" x="181.5" y="27.5"><title>2018-12-12</title></rect><rect fill="#444444" height="2.6" width="2.6" x="181.5" y="31.0"><title>2018-12-13</title></rect><rect fill="#444444" height="2.6" width="2.6" x="181.5" y="34.5"><title>2018-12-14</title></rect><rect fill="#444444" height="2.6" width="2.6" x="181.5" y="38.0"><title>2018-12-15</title></rect><rect fill="#444444" height="2.6" width="2.6" x="181.5" y="41.5"><title>2018-12-16</title></rect><rect fill="#444444" height="2.6" width="2.6" x="185.0" y="20.5"><title>2018-12-17</title></rect><rect fill="#444444" height="2.6" width="2.6" x="185.0" y="24.0"><title>2018-12-18</title></rect><rect fill="#444444" height="2.6" width="2.6" x="185.0" y="27.5"><title>2018-12-19</title></rect><rect fill="#444444" height="2.6" width="2.6" x="185.0" y="31.0"><title>2018-12-20</title></rect><rect fill="#444444" height="2.6" width="2.6" x="185.0" y="34.5"><title>2018-12-21</title></rect><rect fill="#444444" height="2.6" width="2.6" x="185.0" y="38.0"><title>2018-12-22</title></rect><rect fill="#444444" height="2.6" width="2.6" x="185.0" y="41.5"><title>2018-12-23</title></rect><rect fill="#444444" height="2.6" width="2.6" x="188.5" y="20.5"><title>2018-12-24</title></rect><rect fill="#444444" height="2.6" width="2.6" x="188.5" y="24.0"><title>2018-12-25</title></rect><rect fill="#444444" height="2.6" width="2.6" x="188.5" y="27.5"><title>2018-12-26</title></rect><rect fill="#444444" height="2.6" width="2.6" x="188.5" y="31.0"><title>2018-12-27</title></rect><rect fill="#444444" height="2.6" width="2.6" x="188.5" y="34.5"><title>2018-12-28</title></rect><rect fill="#444444" height="2.6" width="2.6" x="188.5" y="38.0"><title>2018-12-29</title></rect><rect fill="#444444" height="2.6" width="2.6" x="188.5" y="41.5"><title>2018-12-30</title></rect><rect fill="#444444" height="2.6" width="2.6" x="192.0" y="20.5"><title>2018-12-31</title></rect></svg>