<?xml version="1.0" encoding="utf-8" ?>
<svg baseProfile="full" height="200mm" version="1.1" viewBox="0,0,200,200" width="200mm" xmlns="http://www.w3.org/2000/svg" xmlns:ev="http://www.w3.org/2001/xml-events" xmlns:xlink="http://www.w3.org/1999/xlink"><defs /><rect fill="#1a1a1a" height="200" width="200" x="0" y="0" /><text alignment-baseline="middle" fill="#e1ed5e" style="dominant-baseline: central; font-size:9.0px; font-family:Arial;" text-anchor="middle" x="100.0" y="100.0">2026</text><line stroke="#e1ed5e" stroke-width="0.3" x1="100.0" x2="100.0" y1="15.0" y2="10.0" /><path d="M 100.0 14.0 a86.0,86.0 0 0,1 42.46469731375804,11.215312516191453" fill="none" id="id133" stroke="none" /><text fill="#e1ed5e" style="font-size:6.75px; font-family:Arial;" text-anchor="middle"><textPath startOffset="22.20632615414155" xlink:href="#id133">January</textPath></text><line stroke="#e1ed5e" stroke-width="0.3" x1="143.23703022742887" x2="145.7803849466894" y1="26.81831364943548" y2="22.513508569990506" /><path d="M 143.74570117128098 25.957352633546492 a86.0,86.0 0 0,1 28.547481713284135,27.462654790039103" fill="none" id="id134" stroke="none" /><text fill="#e1ed5e" style="font-size:6.75px; font-family:Arial;" text-anchor="middle"><textPath startOffset="19.985693538727396" xlink:href="#id134">February</textPath></text><line stroke="#e1ed5e" stroke-width="0.3" x1="172.23445277983987" x2="176.4835382374775" y1="55.19839476539836" y2="52.563006222186495" /><path d="M 173.08426987136738 54.67131705675599 a86.0,86.0 0 0,1 12.851231095245387,41.99856678651699" fill="none" id="id135" stroke="none" /><text fill="#e1ed5e" style="font-size:6.75px; font-family:Arial;" text-anchor="middle"><textPath startOffset="22.20632615414155" xlink:href="#id135">March</textPath></text><path d="M 119.61058180528143 92.48833698450437 l 28.65398012034116 -10.975658185661105 a51.68412699337193,51.68412699337193 0 0,0 0.31107792853626204,0.8335341902615602 l -28.83866263737905 10.480800858370213" fill="#8eff24" stroke="none" /><path d="M 120.18372546131832 94.20196356495316 l 15.167418304267722 -4.3570372636250045 a36.780822276841356,36.780822276841356 0 0,0 0.1695652469450317,0.6100164119038216 l -15.240170321779116 4.0953095483022315" fill="#ffbc11" stroke="none" /><path d="M 120.28053869075195 94.5502522615342 l 15.039779312839602 -4.041460857967641 a36.57332230596293,36.57332230596293 0 0,0 0.15814246767005305,0.6093874383052567 l -15.10711811237996 3.781976994113533" fill="#ffb911" stroke="none" /><path d="M 120.45610955862082 95.25157060432595 l 30.003084333435716 -6.964546567445112 a51.8008113271285,51.8008113271285 0 0,0 0.19414355282349732,0.8703074795825925 l -30.118522273261252 6.447060918312555" fill="#8cff24" stroke="none" /><path d="M 120.67395015179393 96.31383870115 l 30.667390917912645 -5.4679898475282 a52.151047794331774,52.151047794331774 0 0,0 0.14996689028902738,0.8851130756247534 l -30.756969669721897 4.939290983587608" fill="#88ff25" stroke="none" /><path d="M 120.96714384426684 98.82574320788733 l 15.817680042077361 -0.8858630609315502 a36.842466830524074,36.842466830524074 0 0,0 0.03001150815463601,0.6334955036720369 l -15.830585158465494 0.6134564506365136" fill="#ffbd11" stroke="none" /><line stroke="#e1ed5e" stroke-width="0.3" x1="184.98032266829074" x2="189.97916517819016" y1="98.17113171792111" y2="98.06355123074" /><path d="M 185.9800911702706 98.14961562048488 a86.0,86.0 0 0,1 -9.607161424134198,41.387399972396054" fill="none" id="id136" stroke="none" /><text fill="#e1ed5e" style="font-size:6.75px; font-family:Arial;" text-anchor="middle"><textPath startOffset="21.466115282336823" xlink:href="#id136">April</textPath></text><path d="M 120.99513854157772 99.54816195383933 l 15.691877138094275 -0.33770613576227254 a36.69551061772688,36.69551061772688 0 0,0 0.008155127945939275,0.6316236466793134 l -15.69536527315793 0.06754623102249649" fill="#ffbb11" stroke="none" /><path d="M 120.95626037817324 101.35467743843564 l 19.797950181026778 1.2798006874090806 a40.83927219355365,40.83927219355365 0 0,0 -0.05138638633321478,0.7011264148426934 l -19.772987236029223 -1.6204002387485443" fill="#fff016" stroke="none" /><path d="M 120.5718875245553 104.21870165774334 l 14.63362924177031 3.0009359067012644 a35.93816324391068,35.93816324391068 0 0,0 -0.12949026992039944,0.6049354315375337 l -14.579804933125468 -3.252385157654967" fill="#ffb110" stroke="none" /><line stroke="#e1ed5e" stroke-width="0.3" x1="174.80103733775053" x2="179.2010983576182" y1="140.37084112569926" y2="142.7455964860345" /><path d="M 175.68104954172406 140.8457921977663 a86.0,86.0 0 0,1 -30.038265399797805,32.042727171017184" fill="none" id="id137" stroke="none" /><text fill="#e1ed5e" style="font-size:6.75px; font-family:Arial;" text-anchor="middle"><textPath startOffset="22.206326154141568" xlink:href="#id137">May</textPath></text><path d="M 118.12598468904814 110.60418214915192 l 9.086693135248797 5.315956666224389 a31.527458734725734,31.527458734725734 0 0,0 -0.27807087134791325,0.4660627749857388 l -8.993841388202657 -5.471581535096233" fill="#ff750a" stroke="none" /><path d="M 115.32070863581623 114.36230785411682 l 14.075422549132174 13.194921764573056 a40.29309410928745,40.29309410928745 0 0,0 -0.4787077621399075,0.501923174755281 l -13.846208235613302 -13.435252055910844" fill="#ffe915" stroke="none" /><path d="M 113.48314897796784 116.09983520530334 l 38.99620795402195 46.564235307152906 a81.7365807774296,81.7365807774296 0 0,0 -1.086434346933352,0.8940615034523859 l -38.18890347854391 -47.22859192946247" fill="#4ae7ff" stroke="none" /><path d="M 111.45004920935366 117.60387380957326 l 1.3162348203490697 2.023644724798462 a23.41404475403916,23.41404475403916 0 0,0 -0.33974692972587306,0.21684256512067657 l -1.2812060885762662 -2.046001718742948" fill="#ff0000" stroke="none" /><line stroke="#e1ed5e" stroke-width="0.3" x1="143.8653032363475" x2="146.44561519142675" y1="172.8068346515853" y2="177.08958963109032" /><path d="M 144.38136562736335 173.6633856474863 a86.0,86.0 0 0,1 -40.68145358897372,12.25698825130547" fill="none" id="id138" stroke="none" /><text fill="#e1ed5e" style="font-size:6.75px; font-family:Arial;" text-anchor="middle"><textPath startOffset="21.466115282336833" xlink:href="#id138">June</textPath></text><path d="M 108.92500713936063 119.00905698771935 l 17.786752116452327 37.883374133894705 a62.85114797255583,62.85114797255583 0 0,0 -0.9832673148448694,0.45136979802894034 l -17.13201680584004 -38.18393100225772" fill="#32ff4a" stroke="none" /><path d="M 104.48393922423573 120.51570834832081 l 2.2951937675280263 10.501374702623124 a31.749269048423358,31.749269048423358 0 0,0 -0.5349124991765786,0.11209611505926338 l -2.1140898069220695 -10.53932679840893" fill="#ff780b" stroke="none" /><path d="M 101.98527174616119 120.90594882070398 l 5.955815238483573 62.71784646211194 a84.0,84.0 0 0,0 -1.4406227290338331,0.12430299088534635 l -4.8753481917081976 -62.81107370527595" fill="#4dd2ff" stroke="none" /><line stroke="#e1ed5e" stroke-width="0.3" x1="102.19456741930631" x2="102.32365962044197" y1="184.97166512339345" y2="189.96999836594603" /><path d="M 102.22038585953345 185.97133177190398 a86.0,86.0 0 0,1 -42.740103519485714,-10.115201625700543" fill="none" id="id139" stroke="none" /><text fill="#e1ed5e" style="font-size:6.75px; font-family:Arial;" text-anchor="middle"><textPath startOffset="22.20632615414155" xlink:href="#id139">July</textPath></text><line stroke="#e1ed5e" stroke-width="0.3" x1="58.666819895761336" x2="56.23545636021788" y1="174.27360380694188" y2="178.64263932499728" /><path d="M 58.180547188652646 175.14741091055294 a86.0,86.0 0 0,1 -31.652253787137756,-30.449443065178592" fill="none" id="id140" stroke="none" /><text fill="#e1ed5e" style="font-size:6.75px; font-family:Arial;" text-anchor="middle"><textPath startOffset="22.20632615414155" xlink:href="#id140">August</textPath></text><line stroke="#e1ed5e" stroke-width="0.3" x1="26.63291911575756" x2="22.317208475507996" y1="142.92168965132927" y2="145.44649492493687" /><path d="M 25.769776987707644 143.4266507060508 a86.0,86.0 0 0,1 -11.730757126820373,-40.83630448921669" fill="none" id="id141" stroke="none" /><text fill="#e1ed5e" style="font-size:6.75px; font-family:Arial;" text-anchor="middle"><textPath startOffset="21.46611528233685" xlink:href="#id141">September</textPath></text><line stroke="#e1ed5e" stroke-width="0.3" x1="15.007084014347285" x2="10.007500721073583" y1="101.09737516637583" y2="101.16192664675087" /><path d="M 14.007167355692545 101.11028546245083 a86.0,86.0 0 0,1 10.666146001902534,-42.60595125391555" fill="none" id="id142" stroke="none" /><text fill="#e1ed5e" style="font-size:6.75px; font-family:Arial;" text-anchor="middle"><textPath startOffset="22.20632615414155" xlink:href="#id142">October</textPath></text><line stroke="#e1ed5e" stroke-width="0.3" x1="26.266209847984243" x2="21.928928074336255" y1="57.711370442889674" y2="55.22380399835377" /><path d="M 25.398753493254645 57.213857153982495 a86.0,86.0 0 0,1 29.58750427330803,-30.492523968695096" fill="none" id="id143" stroke="none" /><text fill="#e1ed5e" style="font-size:6.75px; font-family:Arial;" text-anchor="middle"><textPath startOffset="21.46611528233685" xlink:href="#id143">November</textPath></text><line stroke="#e1ed5e" stroke-width="0.3" x1="56.762969772571076" x2="54.21961505331055" y1="26.818313649435495" y2="22.513508569990535" /><path d="M 56.25429882871897 25.957352633546506 a86.0,86.0 0 0,1 42.265352541879196,-11.944610805530505" fill="none" id="id144" stroke="none" /><text fill="#e1ed5e" style="font-size:6.75px; font-family:Arial;" text-anchor="middle"><textPath startOffset="22.20632615414155" xlink:href="#id144">December</textPath></text></svg>