<?xml version="1.0" encoding="utf-8" ?>
<svg baseProfile="full" height="200mm" version="1.1" viewBox="0,0,200,200" width="200mm" xmlns="http://www.w3.org/2000/svg" xmlns:ev="http://www.w3.org/2001/xml-events" xmlns:xlink="http://www.w3.org/1999/xlink"><defs /><rect fill="#1a1a1a" height="200" width="200" x="0" y="0" /><text alignment-baseline="middle" fill="#e1ed5e" style="dominant-baseline: central; font-size:9.0px; font-family:Arial;" text-anchor="middle" x="100.0" y="100.0">2024</text><line stroke="#e1ed5e" stroke-width="0.3" x1="100.0" x2="100.0" y1="15.0" y2="10.0" /><path d="M 100.0 14.0 a86.0,86.0 0 0,1 42.35913384403234,11.155469271406648" fill="none" id="id109" stroke="none" /><text fill="#e1ed5e" style="font-size:6.75px; font-family:Arial;" text-anchor="middle"><textPath startOffset="22.145653131862478" xlink:href="#id109">January</textPath></text><line stroke="#e1ed5e" stroke-width="0.3" x1="143.13028292997686" x2="145.6673583964461" y1="26.7553504044142" y2="22.446841604673864" /><path d="M 143.63769802327073 25.89364864446614 a86.0,86.0 0 0,1 29.32050498858742,28.57503671076993" fill="none" id="id110" stroke="none" /><text fill="#e1ed5e" style="font-size:6.75px; font-family:Arial;" text-anchor="middle"><textPath startOffset="20.669276256404974" xlink:href="#id110">February</textPath></text><line stroke="#e1ed5e" stroke-width="0.3" x1="172.87174338648825" x2="177.1583165268699" y1="56.24261187166439" y2="53.66864786411523" /><path d="M 173.72905801456457 55.72781907015455 a86.0,86.0 0 0,1 12.242430191666344,42.057860355516425" fill="none" id="id111" stroke="none" /><text fill="#e1ed5e" style="font-size:6.75px; font-family:Arial;" text-anchor="middle"><textPath startOffset="22.145653131862474" xlink:href="#id111">March</textPath></text><path d="M 119.58574465831526 92.42381321644754 l 57.08890909759947 -22.083216448399504 a82.21120804771654,82.21120804771654 0 0,0 0.49784491001032705,1.3205927713358152 l -57.45958469142424 21.09995539686953" fill="#4ae8ff" stroke="none" /><path d="M 119.71291397450082 92.76114493625339 l 59.13874192350249 -21.71656519123983 a84.0,84.0 0 0,0 0.48543931982422706,1.3578601744763328 l -59.50282141337066 20.69817006038258" fill="#4dd2ff" stroke="none" /><path d="M 119.83427380445688 93.10060997987247 l 48.364692760427175 -16.82375073812099 a72.20724650583102,72.20724650583102 0 0,0 0.3971899828353044,1.1742216082177495 l -48.64636816483485 15.991027455429077" fill="#3aff91" stroke="none" /><path d="M 119.94978838288452 93.4421083053983 l 46.701650077123766 -15.351759992989047 a70.16015312027062,70.16015312027062 0 0,0 0.3662870632596203,1.1473890086883232 l -46.958301856160645 14.547801950609337" fill="#36ff73" stroke="none" /><path d="M 120.35273937422433 94.82641323984039 l 47.52203689400735 -12.079915944976968 a70.03333926822754,70.03333926822754 0 0,0 0.2861778128062075,1.1677031346673836 l -47.722402233329845 11.262356985701489" fill="#36ff71" stroke="none" /><path d="M 120.43855184770803 95.1765574152323 l 47.5028480694416 -11.210542800838857 a69.80775393928603,69.80775393928603 0 0,0 0.26523335921000246,1.1686671195183647 l -47.68829229020927 10.393441347381465" fill="#36ff6d" stroke="none" /><path d="M 120.82617615685814 97.30363454192243 l 48.03202578970209 -6.218707373134124 a69.4329208581857,69.4329208581857 0 0,0 0.14289266592327,1.1833562573724243 l -48.13170054188502 5.393257438838287" fill="#35ff68" stroke="none" /><path d="M 120.86939407059847 97.66154086499901 l 48.73179083698014 -5.46049880807227 a70.03676666963412,70.03676666963412 0 0,0 0.12362358946491091,1.1959460857931579 l -48.81834681892671 4.623148199996181" fill="#36ff71" stroke="none" /><path d="M 120.9064616781168 98.02013634271609 l 49.5808039067455 -4.695353678936265 a70.80263509302947,70.80263509302947 0 0,0 0.10420252162758795,1.2109912531313105 l -49.65410005107083 3.843541378429293" fill="#37ff7c" stroke="none" /><path d="M 120.93736805541906 98.37931529534042 l 49.33443846275921 -3.8187975498127944 a70.48201727054214,70.48201727054214 0 0,0 0.08302123411279111,1.2071105233437271 l -49.39272365803706 2.9713436023147333" fill="#37ff77" stroke="none" /><path d="M 120.96210409425399 98.7389718711861 l 56.790326641535565 -3.416365027933282 a77.8929938573845,77.8929938573845 0 0,0 0.06883667421247641,1.335413089856737 l -56.840604905204614 2.440980144699814" fill="#43ffdf" stroke="none" /><line stroke="#e1ed5e" stroke-width="0.3" x1="184.99686870605535" x2="189.99668451229388" y1="99.2704041080226" y2="99.22748670261217" /><path d="M 185.99683186730306 99.26182062694052 a86.0,86.0 0 0,1 -10.086455211305974,41.156179273409016" fill="none" id="id112" stroke="none" /><text fill="#e1ed5e" style="font-size:6.75px; font-family:Arial;" text-anchor="middle"><textPath startOffset="21.40746469413373" xlink:href="#id112">April</textPath></text><path d="M 120.99922638620191 99.81974689727618 l 49.58457052146527 -0.42562390248792104 a70.5863972224695,70.5863972224695 0 0,0 0.0,1.2117540104234898 l -49.58457052146527 -0.425623902487915" fill="#37ff79" stroke="none" /><path d="M 120.99922638620191 100.18025310272382 l 55.705372360643544 0.47816362477951957 a76.70742455265736,76.70742455265736 0 0,0 -0.022605197320671722,1.316639416575007 l -55.6889557317242 -1.4343499573235976" fill="#41ffd0" stroke="none" /><path d="M 120.99303781780057 100.54070618675476 l 52.277018637801696 1.3464705607582452 a73.29435591560579,73.29435591560579 0 0,0 -0.043192409324771815,1.2574998704381515 l -52.24620154148008 -2.2436766957605077" fill="#3cffa0" stroke="none" /><path d="M 120.9064616781168 101.97986365728391 l 52.326021655808276 4.955328653964636 a73.56013531558798,73.56013531558798 0 0,0 -0.12984277261303576,1.2561110411631182 l -52.23324649071357 -5.852844217410685" fill="#3cffa4" stroke="none" /><path d="M 120.86939407059847 102.33845913500097 l 49.33095219972988 5.5276360884993805 a70.63967773524436,70.63967773524436 0 0,0 -0.1453761666193785,1.2039232057874605 l -49.228793946850836 -6.37365297121025" fill="#37ff7a" stroke="none" /><path d="M 120.82617615685814 102.69636545807757 l 24.51010850117195 3.1733242549439606 a45.7146799608297,45.7146799608297 0 0,0 -0.10744143476145686,0.7773927000430269 l -24.452022549855283 -3.5936052631870723" fill="#ffa30f" stroke="none" /><path d="M 120.7213421655516 103.40968896794604 l 47.50431794242723 7.816817439913322 a69.14314964835752,69.14314964835752 0 0,0 -0.20277111858361202,1.169529927662428 l -47.363132006351385 -8.631140400496339" fill="#35ff63" stroke="none" /><path d="M 120.65975698304385 103.76489593502545 l 49.161258574833155 8.958818960021237 a70.97088934389744,70.97088934389744 0 0,0 -0.22870777247305404,1.1966957082846932 l -49.00022451007794 -9.801417233339246" fill="#38ff7f" stroke="none" /><path d="M 120.43855184770803 104.8234425847677 l 48.20184302491455 11.375503707065894 a70.52595032493545,70.52595032493545 0 0,0 -0.2881907734367409,1.1759167009645073 l -47.99946472496152 -12.2012762326385" fill="#37ff78" stroke="none" /><path d="M 120.35273937422433 105.17358676015961 l 23.2157964680108 5.901364677502456 a44.95410843051722,44.95410843051722 0 0,0 -0.19653619214124943,0.7462799336865347 l -23.11107079506482 -6.299025115561793" fill="#ff950d" stroke="none" /><path d="M 120.16314734710363 105.8691983318838 l 23.961650000983195 6.9748870944572925 a45.95615596901985,45.95615596901985 0 0,0 -0.22698769598066185,0.755568216172489 l -23.838385984998904 -7.3851929142205055" fill="#ffa70f" stroke="none" /><path d="M 119.71291397450082 107.23885506374661 l 22.574588658119275 8.289701645895882 a45.048517760170924,45.048517760170924 0 0,0 -0.27279948565399825,0.7236330462258302 l -22.42895848865084 -8.676002972315871" fill="#ff970d" stroke="none" /><path d="M 119.58574465831526 107.57618678355244 l 26.028890308989862 10.068533935766535 a48.90839490786077,48.90839490786077 0 0,0 -0.3096165154443363,0.7804358753972115 l -25.8522151185794 -10.51387082837731" fill="#ffd814" stroke="none" /><path d="M 119.4528033332814 107.91128576633889 l 44.85476216532529 18.242041282756063 a69.42232707201993,69.42232707201993 0 0,0 -0.45843250366782096,1.1000711223096626 l -44.53500381712099 -19.009344914507" fill="#35ff67" stroke="none" /><path d="M 119.31412917781788 108.2440532568976 l 45.36461899813204 19.363458303312587 a70.32435680583993,70.32435680583993 0 0,0 -0.48345020912918524,1.10622868912315 l -45.02553490698589 -20.13934906221158" fill="#37ff75" stroke="none" /><path d="M 119.16976305983485 108.57439118712176 l 44.34518722249785 19.835038196613265 a69.57905279088399,69.57905279088399 0 0,0 -0.49704470663346506,1.0861323862817893 l -43.99815805100933 -20.593359565109743" fill="#35ff6a" stroke="none" /><line stroke="#e1ed5e" stroke-width="0.3" x1="174.33088141563837" x2="178.70328620479359" y1="141.23008692659167" y2="143.65538615756765" /><path d="M 175.20536237346943 141.71514677278685 a86.0,86.0 0 0,1 -30.301960400862466,31.631185727798858" fill="none" id="id113" stroke="none" /><text fill="#e1ed5e" style="font-size:6.75px; font-family:Arial;" text-anchor="middle"><textPath startOffset="22.145653131862474" xlink:href="#id113">May</textPath></text><path d="M 118.00360718960297 110.81064883170644 l 13.523941731137715 8.120738435141014 a36.77477076471112,36.77477076471112 0 0,0 -0.3296280932251166,0.5384227177703053 l -13.382545673457194 -8.351698269035875" fill="#ff0000" stroke="none" /><path d="M 117.423217284605 111.72311816256416 l 40.70846126355854 27.390469499025237 a70.06543220867088,70.06543220867088 0 0,0 -0.6800025799332163,0.9921440862458708 l -40.23226894681001 -28.08524832034115" fill="#36ff71" stroke="none" /><path d="M 117.21940702142032 112.02048342749411 l 40.54600869906236 28.30426303367037 a70.44805483842251,70.44805483842251 0 0,0 -0.7007397616038007,0.9856782307402975 l -40.0541538389286 -28.99611849112017" fill="#37ff77" stroke="none" /><path d="M 117.01052211995028 112.31430620078461 l 39.93578334018596 28.910427378503066 a70.30192290572421,70.30192290572421 0 0,0 -0.7160685394718012,0.9714844987384267 l -39.43361278113033 -29.591718186510366" fill="#37ff75" stroke="none" /><path d="M 116.79662413953412 112.60449989151573 l 38.68771088419531 29.031979497301386 a69.36935814119113,69.36935814119113 0 0,0 -0.722921279114322,0.9463271604454737 l -38.18363762772669 -29.691827570987737" fill="#35ff67" stroke="none" /><path d="M 116.57777611688842 112.89097897827486 l 19.164379482644048 14.902337400417027 a45.27659574468085,45.27659574468085 0 0,0 -0.48237592258840606,0.6094662202123148 l -18.90573712941408 -15.229123564544023" fill="#ff9b0e" stroke="none" /><path d="M 116.35404254752997 113.17365903436017 l 19.12072394945491 15.402301728650425 a45.552657348882754,45.552657348882754 0 0,0 -0.4957716537723838,0.6047608062589949 l -18.853505476443896 -15.728264816607913" fill="#ffa00e" stroke="none" /><path d="M 115.89218393027572 113.72728997021213 l 36.28406437886728 31.3413106223667 a68.94591827650672,68.94591827650672 0 0,0 -0.7813507492868641,0.8890337221097137 l -35.74070256562183 -31.959556622287707" fill="#34ff60" stroke="none" /><path d="M 115.6541949942343 113.99807769240083 l 36.7505906904168 32.86260481075857 a70.30067657794001,70.30067657794001 0 0,0 -0.8121478938180787,0.892692802676642 l -36.18104509575684 -33.48863518899289" fill="#37ff75" stroke="none" /><path d="M 115.41159269507618 114.26474011684316 l 35.963584271206884 33.28735669629105 a70.00436214724472,70.00436214724472 0 0,0 -0.8238652246526532,0.874916318413455 l -35.386863212817964 -33.899814474649" fill="#36ff70" stroke="none" /><path d="M 115.16444852881244 114.52719865689866 l 36.11833331826872 34.600546289147616 a71.01731505385916,71.01731505385916 0 0,0 -0.8508997054467831,0.8730980579610815 l -35.519046811671124 -35.21546703917643" fill="#38ff7f" stroke="none" /><path d="M 114.91283532996324 114.78537596483092 l 34.80480258417 34.50732742651027 a70.01152853200392,70.01152853200392 0 0,0 -0.853500808964024,0.8462059740889996 l -34.207309855076005 -35.09971341082793" fill="#36ff70" stroke="none" /><path d="M 114.13192950727249 115.5334660781643 l 16.925270035120267 18.603836639505953 a46.150894685302234,46.150894685302234 0 0,0 -0.5905885450158004,0.5281079187028175 l -16.603416463281086 -18.891640088092156" fill="#ffaa0f" stroke="none" /><path d="M 113.86319453409587 115.77377054828091 l 33.175773512712375 37.74794026472121 a71.25474049675064,71.25474049675064 0 0,0 -0.9257026367469635,0.7995998898934851 l -32.52289139620256 -38.31188428707941" fill="#38ff83" stroke="none" /><path d="M 113.59037401385872 116.0094264158162 l 15.684039306388106 18.475758865969308 a45.23515534585596,45.23515534585596 0 0,0 -0.5962977141860328,0.49745276123710785 l -15.364567258040177 -18.742273811118284" fill="#ff9a0e" stroke="none" /><path d="M 113.31354834802062 116.24036423190432 l 32.50676325259832 39.652965642398996 a72.27423662423217,72.27423662423217 0 0,0 -0.9662350597816846,0.7783305679690183 l -31.82127742246138 -40.20514450416142" fill="#3aff92" stroke="none" /><path d="M 113.03279911837588 116.46651593811092 l 32.586445322271665 41.17190914950853 a73.50716638475919,73.50716638475919 0 0,0 -0.9961623119593299,0.7746218390134567 l -31.8748730656771 -41.725232040142785" fill="#3cffa3" stroke="none" /><line stroke="#e1ed5e" stroke-width="0.3" x1="143.1302829299769" x2="145.66735839644613" y1="173.24464959558577" y2="177.55315839532614" /><path d="M 143.63769802327073 174.10635135553383 a86.0,86.0 0 0,1 -40.68552437913181,11.842963189579606" fill="none" id="id114" stroke="none" /><text fill="#e1ed5e" style="font-size:6.75px; font-family:Arial;" text-anchor="middle"><textPath startOffset="21.407464694133747" xlink:href="#id114">June</textPath></text><line stroke="#e1ed5e" stroke-width="0.3" x1="101.45913802915013" x2="101.54496967792366" y1="184.9874750549273" y2="189.98673829345242" /><path d="M 101.47630435890484 185.9873277026323 a86.0,86.0 0 0,1 -42.54439059252881,-10.42667462771756" fill="none" id="id115" stroke="none" /><text fill="#e1ed5e" style="font-size:6.75px; font-family:Arial;" text-anchor="middle"><textPath startOffset="22.145653131862474" xlink:href="#id115">July</textPath></text><line stroke="#e1ed5e" stroke-width="0.3" x1="58.13341422392154" x2="55.67067388415222" y1="173.97424548756322" y2="178.32567169271397" /><path d="M 57.64086615596768 174.84453072859336 a86.0,86.0 0 0,1 -31.369924170532247,-30.572349798747897" fill="none" id="id116" stroke="none" /><text fill="#e1ed5e" style="font-size:6.75px; font-family:Arial;" text-anchor="middle"><textPath startOffset="22.145653131862474" xlink:href="#id116">August</textPath></text><path d="M 84.83555147118756 114.52719865689866 l -35.57473695568212 34.07979327043687 a70.26453307219799,70.26453307219799 0 0,0 -0.8269271163828501,-0.8781679413243415 l 36.15451990580122 -33.46408386916804" fill="#37ff74" stroke="none" /><line stroke="#e1ed5e" stroke-width="0.3" x1="26.387840678322732" x2="22.057713659400548" y1="142.50000000000003" y2="145.00000000000006" /><path d="M 25.521815274538298 143.00000000000003 a86.0,86.0 0 0,1 -11.493303480769221,-40.785679425670985" fill="none" id="id117" stroke="none" /><text fill="#e1ed5e" style="font-size:6.75px; font-family:Arial;" text-anchor="middle"><textPath startOffset="21.40746469413373" xlink:href="#id117">September</textPath></text><path d="M 80.28708602549918 107.23885506374661 l -45.41153649358991 16.675745215768448 a69.37652452595032,69.37652452595032 0 0,0 -0.40092967711483485,-1.121471663063895 l 45.69110634074869 -15.893738596323631" fill="#35ff67" stroke="none" /><path d="M 79.56144815229197 104.8234425847677 l -26.529057134354048 6.260785248830058 a48.257811804504584,48.257811804504584 0 0,0 -0.18335472509493794,-0.807894749985513 l 26.63262272100665 -5.8044561649055195" fill="#ffce13" stroke="none" /><path d="M 79.48165901384964 104.47187691870673 l -51.20726174715032 11.160384362060404 a73.40932965369893,73.40932965369893 0 0,0 -0.2577796197863072,-1.233568797950311 l 51.39129907776099 -10.279699112824682" fill="#3cffa2" stroke="none" /><path d="M 79.22317932658666 103.0534771498775 l -48.848556394983206 7.179055597637736 a70.37327517137007,70.37327517137007 0 0,0 -0.16539557227028703,-1.1967199692356607 l 48.964596483808705 -6.339447320201989" fill="#37ff76" stroke="none" /><path d="M 79.17382384314188 102.69636545807758 l -24.931279427635598 3.227853263510394 a46.13936615329831,46.13936615329831 0 0,0 -0.09495462602129277,-0.7863605185243792 l 24.98301613991655 -2.7993990680626153" fill="#ffaa0f" stroke="none" /><path d="M 79.13060592940153 102.33845913500099 l -25.22237104090135 2.8262192839645093 a46.38021899759637,46.38021899759637 0 0,0 -0.08186684544844179,-0.7919874660983491 l 25.267170278831458 -2.3928272955832286" fill="#ffae10" stroke="none" /><path d="M 79.0935383218832 101.97986365728391 l -49.10031325213553 4.649850714380445 a70.3199946585952,70.3199946585952 0 0,0 -0.10349220413387597,-1.202736287143965 l 49.17289907896714 -3.8062933798608185" fill="#37ff75" stroke="none" /><path d="M 79.06263194458094 101.62068470465958 l -51.74603507117813 4.00547037930732 a72.90082791774236,72.90082791774236 0 0,0 -0.08587036716533855,-1.2485362926289842 l 51.80716939950853 -3.1165906625239916" fill="#3bff9b" stroke="none" /><path d="M 79.01933749520258 100.90099992219065 l -17.37026273431995 0.7459538214522422 a38.38627258969109,38.38627258969109 0 0,0 -0.02262105420579696,-0.6585873114666542 l 17.380508475522596 -0.44766024542146815" fill="#ff1f03" stroke="none" /><line stroke="#e1ed5e" stroke-width="0.3" x1="15.003131293944662" x2="10.003315487706104" y1="100.72959589197737" y2="100.7725132973878" /><path d="M 14.003168132696942 100.73817937305945 a86.0,86.0 0 0,1 10.791469493833604,-42.45332614584628" fill="none" id="id118" stroke="none" /><text fill="#e1ed5e" style="font-size:6.75px; font-family:Arial;" text-anchor="middle"><textPath startOffset="22.145653131862435" xlink:href="#id118">October</textPath></text><path d="M 79.13060592940154 97.66154086499901 l -51.47492805279413 -5.767873054740942 a72.79707112970712,72.79707112970712 0 0,0 0.14981607336345104,-1.2406920027988833 l 51.36832989317101 6.650658734463262" fill="#3bff99" stroke="none" /><line stroke="#e1ed5e" stroke-width="0.3" x1="26.387840678322718" x2="22.05771365940052" y1="57.49999999999999" y2="54.99999999999999" /><path d="M 25.521815274538284 56.99999999999999 a86.0,86.0 0 0,1 29.574782752854787,-30.34633250058573" fill="none" id="id119" stroke="none" /><text fill="#e1ed5e" style="font-size:6.75px; font-family:Arial;" text-anchor="middle"><textPath startOffset="21.40746469413373" xlink:href="#id119">November</textPath></text><line stroke="#e1ed5e" stroke-width="0.3" x1="56.869717070023135" x2="54.33264160355391" y1="26.7553504044142" y2="22.446841604673864" /><path d="M 56.362301976729285 25.89364864446614 a86.0,86.0 0 0,1 42.16139366436587,-11.88097634709845" fill="none" id="id120" stroke="none" /><text fill="#e1ed5e" style="font-size:6.75px; font-family:Arial;" text-anchor="middle"><textPath startOffset="22.145653131862474" xlink:href="#id120">December</textPath></text></svg>