<?xml version="1.0" encoding="utf-8" ?>
<svg baseProfile="full" height="200mm" version="1.1" viewBox="0,0,200,200" width="200mm" xmlns="http://www.w3.org/2000/svg" xmlns:ev="http://www.w3.org/2001/xml-events" xmlns:xlink="http://www.w3.org/1999/xlink"><defs /><rect fill="#1a1a1a" height="200" width="200" x="0" y="0" /><text alignment-baseline="middle" fill="#e1ed5e" style="dominant-baseline: central; font-size:9.0px; font-family:Arial;" text-anchor="middle" x="100.0" y="100.0">2019</text><line stroke="#e1ed5e" stroke-width="0.3" x1="100.0" x2="100.0" y1="15.0" y2="10.0" /><path d="M 100.0 14.0 a86.0,86.0 0 0,1 42.46469731375804,11.215312516191453" fill="none" id="id49" stroke="none" /><text fill="#e1ed5e" style="font-size:6.75px; font-family:Arial;" text-anchor="middle"><textPath startOffset="22.20632615414155" xlink:href="#id49">January</textPath></text><line stroke="#e1ed5e" stroke-width="0.3" x1="143.23703022742887" x2="145.7803849466894" y1="26.81831364943548" y2="22.513508569990506" /><path d="M 143.74570117128098 25.957352633546492 a86.0,86.0 0 0,1 28.547481713284135,27.462654790039103" fill="none" id="id50" stroke="none" /><text fill="#e1ed5e" style="font-size:6.75px; font-family:Arial;" text-anchor="middle"><textPath startOffset="19.985693538727396" xlink:href="#id50">February</textPath></text><line stroke="#e1ed5e" stroke-width="0.3" x1="172.23445277983987" x2="176.4835382374775" y1="55.19839476539836" y2="52.563006222186495" /><path d="M 173.08426987136738 54.67131705675599 a86.0,86.0 0 0,1 12.851231095245387,41.99856678651699" fill="none" id="id51" stroke="none" /><text fill="#e1ed5e" style="font-size:6.75px; font-family:Arial;" text-anchor="middle"><textPath startOffset="22.20632615414155" xlink:href="#id51">March</textPath></text><path d="M 119.196687751892 91.48605970444005 l 57.59006325567602 -25.541820886679833 a84.0,84.0 0 0,0 0.574837160629277,1.3268034216535889 l -58.02119112614798 24.54671832043964" fill="#4dd2ff" stroke="none" /><path d="M 120.73433829027371 96.67025291283417 l 13.686587843967363 -2.1979421464376996 a34.861949231248914,34.861949231248914 0 0,0 0.09005025185778968,0.5933186475709777 l -13.722393989264454 1.9620243864746398" fill="#ffa80f" stroke="none" /><path d="M 120.96714384426684 98.82574320788733 l 3.3435933826763815 -0.18725665588183027 a24.348832895778667,24.348832895778667 0 0,0 0.019834317836777065,0.41867110120753426 l -3.346321308746655 0.12967444805129627" fill="#ff1602" stroke="none" /><line stroke="#e1ed5e" stroke-width="0.3" x1="184.98032266829074" x2="189.97916517819016" y1="98.17113171792111" y2="98.06355123074" /><path d="M 185.9800911702706 98.14961562048488 a86.0,86.0 0 0,1 -9.607161424134198,41.387399972396054" fill="none" id="id52" stroke="none" /><text fill="#e1ed5e" style="font-size:6.75px; font-family:Arial;" text-anchor="middle"><textPath startOffset="21.466115282336823" xlink:href="#id52">April</textPath></text><path d="M 120.5718875245553 104.21870165774334 l 28.066396968875974 5.755609701742193 a49.650474373966645,49.650474373966645 0 0,0 -0.17889766053779005,0.835750311934707 l -27.963165269613743 -6.23787383309307" fill="#a1ff22" stroke="none" /><path d="M 119.9155931802556 106.66101706037122 l 3.561150242360514 1.1910708510769077 a24.755055368559752,24.755055368559752 0 0,0 -0.13863911865955364,0.40295017435759445 l -3.5401202927577295 -1.2521937285238025" fill="#ff1c02" stroke="none" /><line stroke="#e1ed5e" stroke-width="0.3" x1="174.80103733775053" x2="179.2010983576182" y1="140.37084112569926" y2="142.7455964860345" /><path d="M 175.68104954172406 140.8457921977663 a86.0,86.0 0 0,1 -30.038265399797805,32.042727171017184" fill="none" id="id53" stroke="none" /><text fill="#e1ed5e" style="font-size:6.75px; font-family:Arial;" text-anchor="middle"><textPath startOffset="22.206326154141568" xlink:href="#id53">May</textPath></text><path d="M 114.81725581225074 114.88116024355365 l 3.8376102796227887 3.8541612729773576 a26.43891641564613,26.43891641564613 0 0,0 -0.32526168167212255,0.3183370140254688 l -3.770698645574872 -3.9196483899253987" fill="#ff3405" stroke="none" /><path d="M 114.55890576462653 115.13401014063108 l 1.2872815574793695 1.338131619209632 a22.856795637261975,22.856795637261975 0 0,0 -0.2858886264076783,0.27032554053680036 l -1.2640570966808835 -1.3600917964923538" fill="#ff0000" stroke="none" /><path d="M 112.92097659922987 116.55440617244103 l 2.266773499720035 2.9041991467988333 a24.684105696542932,24.684105696542932 0 0,0 -0.33719813272229837,0.2585491493054435 l -2.2164466385042427 -2.942787637931648" fill="#ff1b02" stroke="none" /><line stroke="#e1ed5e" stroke-width="0.3" x1="143.8653032363475" x2="146.44561519142675" y1="172.8068346515853" y2="177.08958963109032" /><path d="M 144.38136562736335 173.6633856474863 a86.0,86.0 0 0,1 -40.68145358897372,12.25698825130547" fill="none" id="id54" stroke="none" /><text fill="#e1ed5e" style="font-size:6.75px; font-family:Arial;" text-anchor="middle"><textPath startOffset="21.466115282336833" xlink:href="#id54">June</textPath></text><path d="M 106.2309692047433 120.05430185196036 l 1.6357053775066002 5.2644987165754245 a26.51275600936848,26.51275600936848 0 0,0 -0.4369870643524853,0.13166061782985466 l -1.544843338713869 -5.291874703511004" fill="#ff3505" stroke="none" /><line stroke="#e1ed5e" stroke-width="0.3" x1="102.19456741930631" x2="102.32365962044197" y1="184.97166512339345" y2="189.96999836594603" /><path d="M 102.22038585953345 185.97133177190398 a86.0,86.0 0 0,1 -42.740103519485714,-10.115201625700543" fill="none" id="id55" stroke="none" /><text fill="#e1ed5e" style="font-size:6.75px; font-family:Arial;" text-anchor="middle"><textPath startOffset="22.20632615414155" xlink:href="#id55">July</textPath></text><path d="M 95.86986931433489 120.58985236759428 l -2.150017325955152 10.718435492328146 a31.93194556815515,31.93194556815515 0 0,0 -0.5379902378659688,-0.11274108512592064 l 2.3341990252505074 -10.679838426475683" fill="#ff810b" stroke="none" /><line stroke="#e1ed5e" stroke-width="0.3" x1="58.666819895761336" x2="56.23545636021788" y1="174.27360380694188" y2="178.64263932499728" /><path d="M 58.180547188652646 175.14741091055294 a86.0,86.0 0 0,1 -31.652253787137756,-30.449443065178592" fill="none" id="id56" stroke="none" /><text fill="#e1ed5e" style="font-size:6.75px; font-family:Arial;" text-anchor="middle"><textPath startOffset="22.20632615414155" xlink:href="#id56">August</textPath></text><path d="M 82.05923443525364 110.91462005526583 l -11.749753307568088 7.148195133166922 a34.753304928290454,34.753304928290454 0 0,0 -0.3065227002576324,-0.5137496767845706 l 11.871056883523952 -6.94488336249624" fill="#ffa70f" stroke="none" /><line stroke="#e1ed5e" stroke-width="0.3" x1="26.63291911575756" x2="22.317208475507996" y1="142.92168965132927" y2="145.44649492493687" /><path d="M 25.769776987707644 143.4266507060508 a86.0,86.0 0 0,1 -11.730757126820373,-40.83630448921669" fill="none" id="id57" stroke="none" /><text fill="#e1ed5e" style="font-size:6.75px; font-family:Arial;" text-anchor="middle"><textPath startOffset="21.46611528233685" xlink:href="#id57">September</textPath></text><path d="M 79.97269907076064 106.31721596034903 l -7.257593709467858 2.2892643885049155 a28.610085274961392,28.610085274961392 0 0,0 -0.14410385992416672,-0.4709397520257134 l 7.295924341898155 -2.1639976639271543" fill="#ff5307" stroke="none" /><line stroke="#e1ed5e" stroke-width="0.3" x1="15.007084014347285" x2="10.007500721073583" y1="101.09737516637583" y2="101.16192664675087" /><path d="M 14.007167355692545 101.11028546245083 a86.0,86.0 0 0,1 10.666146001902534,-42.60595125391555" fill="none" id="id58" stroke="none" /><text fill="#e1ed5e" style="font-size:6.75px; font-family:Arial;" text-anchor="middle"><textPath startOffset="22.20632615414155" xlink:href="#id58">October</textPath></text><path d="M 80.02781315780177 93.51064311812611 l -28.550322171049025 -9.276562007168854 a51.01958525269032,51.01958525269032 0 0,0 0.27857351027215443,-0.8328993382080893 l 28.3864113670051 9.766634448299264" fill="#92ff23" stroke="none" /><line stroke="#e1ed5e" stroke-width="0.3" x1="26.266209847984243" x2="21.928928074336255" y1="57.711370442889674" y2="55.22380399835377" /><path d="M 25.398753493254645 57.213857153982495 a86.0,86.0 0 0,1 29.58750427330803,-30.492523968695096" fill="none" id="id59" stroke="none" /><text fill="#e1ed5e" style="font-size:6.75px; font-family:Arial;" text-anchor="middle"><textPath startOffset="21.46611528233685" xlink:href="#id59">November</textPath></text><path d="M 86.93701828274178 83.55741782278169 l -11.328789441332859 -14.25972686706137 a39.212119056530646,39.212119056530646 0 0,0 0.5321036844916157,-0.4153153658344928 l 11.081653201681817 14.452620622119086" fill="#ffe115" stroke="none" /><line stroke="#e1ed5e" stroke-width="0.3" x1="56.762969772571076" x2="54.21961505331055" y1="26.818313649435495" y2="22.513508569990535" /><path d="M 56.25429882871897 25.957352633546506 a86.0,86.0 0 0,1 42.265352541879196,-11.944610805530505" fill="none" id="id60" stroke="none" /><text fill="#e1ed5e" style="font-size:6.75px; font-family:Arial;" text-anchor="middle"><textPath startOffset="22.20632615414155" xlink:href="#id60">December</textPath></text></svg>