<?xml version="1.0" encoding="utf-8" ?>
<svg baseProfile="full" height="200mm" version="1.1" viewBox="0,0,200,200" width="200mm" xmlns="http://www.w3.org/2000/svg" xmlns:ev="http://www.w3.org/2001/xml-events" xmlns:xlink="http://www.w3.org/1999/xlink"><defs /><rect fill="#1a1a1a" height="200" width="200" x="0" y="0" /><text alignment-baseline="middle" fill="#e1ed5e" style="dominant-baseline: central; font-size:9.0px; font-family:Arial;" text-anchor="middle" x="100.0" y="100.0">2025</text><line stroke="#e1ed5e" stroke-width="0.3" x1="100.0" x2="100.0" y1="15.0" y2="10.0" /><path d="M 100.0 14.0 a86.0,86.0 0 0,1 42.46469731375804,11.215312516191453" fill="none" id="id121" stroke="none" /><text fill="#e1ed5e" style="font-size:6.75px; font-family:Arial;" text-anchor="middle"><textPath startOffset="22.20632615414155" xlink:href="#id121">January</textPath></text><line stroke="#e1ed5e" stroke-width="0.3" x1="143.23703022742887" x2="145.7803849466894" y1="26.81831364943548" y2="22.513508569990506" /><path d="M 143.74570117128098 25.957352633546492 a86.0,86.0 0 0,1 28.547481713284135,27.462654790039103" fill="none" id="id122" stroke="none" /><text fill="#e1ed5e" style="font-size:6.75px; font-family:Arial;" text-anchor="middle"><textPath startOffset="19.985693538727396" xlink:href="#id122">February</textPath></text><line stroke="#e1ed5e" stroke-width="0.3" x1="172.23445277983987" x2="176.4835382374775" y1="55.19839476539836" y2="52.563006222186495" /><path d="M 173.08426987136738 54.67131705675599 a86.0,86.0 0 0,1 12.851231095245387,41.99856678651699" fill="none" id="id123" stroke="none" /><text fill="#e1ed5e" style="font-size:6.75px; font-family:Arial;" text-anchor="middle"><textPath startOffset="22.20632615414155" xlink:href="#id123">March</textPath></text><path d="M 118.56541770881063 90.18545643968196 l 7.57867463326938 -4.006440010364025 a29.572506678539625,29.572506678539625 0 0,0 0.23403198322774976,0.4520753007118737 l -7.646516049657247 3.8753919873918066" fill="#ff4306" stroke="none" /><path d="M 118.73160827565052 90.50648371742162 l 7.70211595549177 -3.9035710205843817 a29.634839715048976,29.634839715048976 0 0,0 0.22669239371206162,0.45699803276614875 l -7.7681683621572395 3.770413399319283" fill="#ff4406" stroke="none" /><path d="M 120.45610955862082 95.25157060432595 l 8.99916012003906 -2.088954223085034 a30.23843128524785,30.23843128524785 0 0,0 0.11333020335248555,0.5080370798094659 l -9.033784710393583 1.9337389737256043" fill="#ff4d07" stroke="none" /><path d="M 120.94382443527127 98.46500227214037 l 30.778583945057377 -2.2557989143012094 a51.86113831997625,51.86113831997625 0 0,0 0.05758909978381455,0.8908778841167144 l -30.81285363584561 1.7256619659314598" fill="#96ff23" stroke="none" /><line stroke="#e1ed5e" stroke-width="0.3" x1="184.98032266829074" x2="189.97916517819016" y1="98.17113171792111" y2="98.06355123074" /><path d="M 185.9800911702706 98.14961562048488 a86.0,86.0 0 0,1 -9.607161424134198,41.387399972396054" fill="none" id="id124" stroke="none" /><text fill="#e1ed5e" style="font-size:6.75px; font-family:Arial;" text-anchor="middle"><textPath startOffset="21.466115282336823" xlink:href="#id124">April</textPath></text><path d="M 120.89721153311464 102.0752229133903 l 9.107820246725868 0.9044631259579605 a30.15261947165331,30.15261947165331 0 0,0 -0.055735966266864306,0.5160458258533551 l -9.090901978957953 -1.061105273696107" fill="#ff4c07" stroke="none" /><path d="M 120.8583938346157 102.4346265915055 l 9.152143973322476 1.0682535416394066 a30.214277233600477,30.214277233600477 0 0,0 -0.0647427083194923,0.5160630862252884 l -9.132399755756136 -1.2256343821520899" fill="#ff4d07" stroke="none" /><path d="M 120.81339534386255 102.79330883721812 l 8.910046301491413 1.1957929334829867 a29.989930246363908,29.989930246363908 0 0,0 -0.07306967814291143,0.511049158745381 l -8.8881425723319 -1.348987564208777" fill="#ff4a06" stroke="none" /><path d="M 120.76222939487914 103.15116336523771 l 8.416539840232424 1.2774106047178848 a29.512926684476106,29.512926684476106 0 0,0 -0.08055377053419462,0.5016084060110085 l -8.393304315336941 -1.4220982404220983" fill="#ff4306" stroke="none" /><path d="M 119.79798401119884 107.00284435728193 l 8.373791124950394 2.9619357150327064 a29.882197981596914,29.882197981596914 0 0,0 -0.17570126088408577,0.48345440926411876 l -8.321565603061082 -3.1056379213029564" fill="#ff4806" stroke="none" /><path d="M 119.67450827220406 107.3425965602758 l 8.191677251971456 3.0571631260635765 a29.743558919560698,29.743558919560698 0 0,0 -0.18314344350222733,0.4781297395120729 l -8.137839528875721 -3.197716432408793" fill="#ff4606" stroke="none" /><path d="M 119.41010516605496 108.01547362559984 l 8.076165084341554 3.335081787333099 a29.737689225289405,29.737689225289405 0 0,0 -0.19945354042809807,0.4714492519486521 l -8.017560562721147 -3.4736055649479143" fill="#ff4606" stroke="none" /><line stroke="#e1ed5e" stroke-width="0.3" x1="174.80103733775053" x2="179.2010983576182" y1="140.37084112569926" y2="142.7455964860345" /><path d="M 175.68104954172406 140.8457921977663 a86.0,86.0 0 0,1 -30.038265399797805,32.042727171017184" fill="none" id="id125" stroke="none" /><text fill="#e1ed5e" style="font-size:6.75px; font-family:Arial;" text-anchor="middle"><textPath startOffset="22.206326154141568" xlink:href="#id125">May</textPath></text><path d="M 118.12598468904814 110.60418214915192 l 4.366995732408178 2.5548084137467773 a26.059416740872663,26.059416740872663 0 0,0 -0.22984296897901868,0.38523003655171023 l -4.322371887730932 -2.629600544184592" fill="#ff0f01" stroke="none" /><path d="M 117.35343817320211 111.8261652097733 l 7.306489410720577 4.97928710219944 a29.841837340457108,29.841837340457108 0 0,0 -0.29293187037985324,0.42199020717344815 l -7.219696633178588 -5.104318571559908" fill="#ff4706" stroke="none" /><path d="M 117.14729908036423 112.12312394758627 l 7.252440560382607 5.127468496581024 a29.881938260611456,29.881938260611456 0 0,0 -0.3005556763631319,0.4174455471260704 l -7.163105091643873 -5.251547649158225" fill="#ff4806" stroke="none" /><path d="M 112.92097659922987 116.55440617244103 l 3.586219803716202 4.594678954678102 a26.82855446720095,26.82855446720095 0 0,0 -0.36649245393749974,0.2810107856393207 l -3.5065986212852085 -4.655729082144794" fill="#ff1a02" stroke="none" /><line stroke="#e1ed5e" stroke-width="0.3" x1="143.8653032363475" x2="146.44561519142675" y1="172.8068346515853" y2="177.08958963109032" /><path d="M 144.38136562736335 173.6633856474863 a86.0,86.0 0 0,1 -40.68145358897372,12.25698825130547" fill="none" id="id126" stroke="none" /><text fill="#e1ed5e" style="font-size:6.75px; font-family:Arial;" text-anchor="middle"><textPath startOffset="21.466115282336833" xlink:href="#id126">June</textPath></text><line stroke="#e1ed5e" stroke-width="0.3" x1="102.19456741930631" x2="102.32365962044197" y1="184.97166512339345" y2="189.96999836594603" /><path d="M 102.22038585953345 185.97133177190398 a86.0,86.0 0 0,1 -42.740103519485714,-10.115201625700543" fill="none" id="id127" stroke="none" /><text fill="#e1ed5e" style="font-size:6.75px; font-family:Arial;" text-anchor="middle"><textPath startOffset="22.20632615414155" xlink:href="#id127">July</textPath></text><line stroke="#e1ed5e" stroke-width="0.3" x1="58.666819895761336" x2="56.23545636021788" y1="174.27360380694188" y2="178.64263932499728" /><path d="M 58.180547188652646 175.14741091055294 a86.0,86.0 0 0,1 -31.652253787137756,-30.449443065178592" fill="none" id="id128" stroke="none" /><text fill="#e1ed5e" style="font-size:6.75px; font-family:Arial;" text-anchor="middle"><textPath startOffset="22.20632615414155" xlink:href="#id128">August</textPath></text><path d="M 87.07902340077011 116.55440617244103 l -5.967657936598902 7.645786881661696 a30.699020480854855,30.699020480854855 0 0,0 -0.41376798704868256,-0.3287223133050554 l 6.098383416364943 -7.54193065435151" fill="#ff5407" stroke="none" /><line stroke="#e1ed5e" stroke-width="0.3" x1="26.63291911575756" x2="22.317208475507996" y1="142.92168965132927" y2="145.44649492493687" /><path d="M 25.769776987707644 143.4266507060508 a86.0,86.0 0 0,1 -11.730757126820373,-40.83630448921669" fill="none" id="id129" stroke="none" /><text fill="#e1ed5e" style="font-size:6.75px; font-family:Arial;" text-anchor="middle"><textPath startOffset="21.46611528233685" xlink:href="#id129">September</textPath></text><path d="M 80.58989483394504 108.01547362559985 l -12.291338189748187 5.075752874103507 a34.29813000890472,34.29813000890472 0 0,0 -0.22064703333634594,-0.5476278416093048 l 12.376887837341922 -4.863425664651397" fill="#ff880c" stroke="none" /><path d="M 80.45479744820244 107.68017299344265 l -3.8115272187126954 1.497717321237819 a25.0952285544672,25.0952285544672 0 0,0 -0.15452174319052014,-0.40340751166303457 l 3.8367432414967246 -1.4318862427416263" fill="#ff0000" stroke="none" /><path d="M 80.32549172779594 107.34259656027581 l -7.775732802078984 2.9019311759283384 a29.299591867022855,29.299591867022855 0 0,0 -0.17227565514409351,-0.47402861350679376 l 7.824532718228302 -2.7676547654154278" fill="#ff3f05" stroke="none" /><path d="M 79.58551787078972 104.9243191809786 l -8.26663316238965 1.994052064902608 a29.50373256159098,29.50373256159098 0 0,0 -0.1148389715486047,-0.4947232838162676 l 8.29973269986881 -1.8514601237377661" fill="#ff4206" stroke="none" /><path d="M 79.4281124754447 104.21870165774334 l -37.81842417909552 7.755469622666044 a59.60544672009498,59.60544672009498 0 0,0 -0.19746452015868335,-1.0068673340921948 l 37.94631863222987 -7.103338561505894" fill="#41ff2d" stroke="none" /><path d="M 79.29508885075956 103.50808413554451 l -6.786353694159249 1.1498286353934586 a27.88307361234788,27.88307361234788 0 0,0 -0.07610518392736988,-0.473907052963811 l 6.80514063244791 -1.0328423527364339" fill="#ff2a04" stroke="none" /><path d="M 79.23777060512086 103.15116336523772 l -11.234292982136134 1.705071830503234 a32.362948946274855,32.362948946274855 0 0,0 -0.07885147593988143,-0.5514870390710276 l 11.261978509092614 -1.5114393194518057" fill="#ff6c0a" stroke="none" /><line stroke="#e1ed5e" stroke-width="0.3" x1="15.007084014347285" x2="10.007500721073583" y1="101.09737516637583" y2="101.16192664675087" /><path d="M 14.007167355692545 101.11028546245083 a86.0,86.0 0 0,1 10.666146001902534,-42.60595125391555" fill="none" id="id130" stroke="none" /><text fill="#e1ed5e" style="font-size:6.75px; font-family:Arial;" text-anchor="middle"><textPath startOffset="22.20632615414155" xlink:href="#id130">October</textPath></text><path d="M 79.00486145842228 99.54816195383935 l -8.892138102107905 -0.19136841122960113 a29.894197091124962,29.894197091124962 0 0,0 0.015499864377682627,-0.514365039418302 l 8.887526543274578 0.3444035980728976" fill="#ff4806" stroke="none" /><path d="M 79.01574976396665 99.18683210126434 l -12.478123392804221 -0.4835440516272105 a33.48748886910062,33.48748886910062 0 0,0 0.02727857637481825,-0.5758076332246592 l 12.467951208195903 0.6982627914748789" fill="#ff7c0b" stroke="none" /><path d="M 79.08570108090925 98.10471618934814 l -62.742896757272284 -5.685851431955563 a84.0,84.0 0 0,0 0.1428914972710853,-1.4388978771822787 l 62.635728134318974 6.7650248398422725" fill="#4dd2ff" stroke="none" /><line stroke="#e1ed5e" stroke-width="0.3" x1="26.266209847984243" x2="21.928928074336255" y1="57.711370442889674" y2="55.22380399835377" /><path d="M 25.398753493254645 57.213857153982495 a86.0,86.0 0 0,1 29.58750427330803,-30.492523968695096" fill="none" id="id131" stroke="none" /><text fill="#e1ed5e" style="font-size:6.75px; font-family:Arial;" text-anchor="middle"><textPath startOffset="21.46611528233685" xlink:href="#id131">November</textPath></text><line stroke="#e1ed5e" stroke-width="0.3" x1="56.762969772571076" x2="54.21961505331055" y1="26.818313649435495" y2="22.513508569990535" /><path d="M 56.25429882871897 25.957352633546506 a86.0,86.0 0 0,1 42.265352541879196,-11.944610805530505" fill="none" id="id132" stroke="none" /><text fill="#e1ed5e" style="font-size:6.75px; font-family:Arial;" text-anchor="middle"><textPath startOffset="22.20632615414155" xlink:href="#id132">December</textPath></text></svg>