<?xml version="1.0" encoding="utf-8" ?>
<svg baseProfile="full" height="200mm" version="1.1" viewBox="0,0,200,200" width="200mm" xmlns="http://www.w3.org/2000/svg" xmlns:ev="http://www.w3.org/2001/xml-events" xmlns:xlink="http://www.w3.org/1999/xlink"><defs /><rect fill="#1a1a1a" height="200" width="200" x="0" y="0" /><text alignment-baseline="middle" fill="#e1ed5e" style="dominant-baseline: central; font-size:9.0px; font-family:Arial;" text-anchor="middle" x="100.0" y="100.0">2018</text><line stroke="#e1ed5e" stroke-width="0.3" x1="100.0" x2="100.0" y1="15.0" y2="10.0" /><path d="M 100.0 14.0 a86.0,86.0 0 0,1 42.46469731375804,11.215312516191453" fill="none" id="id37" stroke="none" /><text fill="#e1ed5e" style="font-size:6.75px; font-family:Arial;" text-anchor="middle"><textPath startOffset="22.20632615414155" xlink:href="#id37">January</textPath></text><line stroke="#e1ed5e" stroke-width="0.3" x1="143.23703022742887" x2="145.7803849466894" y1="26.81831364943548" y2="22.513508569990506" /><path d="M 143.74570117128098 25.957352633546492 a86.0,86.0 0 0,1 28.547481713284135,27.462654790039103" fill="none" id="id38" stroke="none" /><text fill="#e1ed5e" style="font-size:6.75px; font-family:Arial;" text-anchor="middle"><textPath startOffset="19.985693538727396" xlink:href="#id38">February</textPath></text><line stroke="#e1ed5e" stroke-width="0.3" x1="172.23445277983987" x2="176.4835382374775" y1="55.19839476539836" y2="52.563006222186495" /><path d="M 173.08426987136738 54.67131705675599 a86.0,86.0 0 0,1 12.851231095245387,41.99856678651699" fill="none" id="id39" stroke="none" /><text fill="#e1ed5e" style="font-size:6.75px; font-family:Arial;" text-anchor="middle"><textPath startOffset="22.20632615414155" xlink:href="#id39">March</textPath></text><line stroke="#e1ed5e" stroke-width="0.3" x1="184.98032266829074" x2="189.97916517819016" y1="98.17113171792111" y2="98.06355123074" /><path d="M 185.9800911702706 98.14961562048488 a86.0,86.0 0 0,1 -9.607161424134198,41.387399972396054" fill="none" id="id40" stroke="none" /><text fill="#e1ed5e" style="font-size:6.75px; font-family:Arial;" text-anchor="middle"><textPath startOffset="21.466115282336823" xlink:href="#id40">April</textPath></text><path d="M 120.49622156327973 104.57218783832717 l 7.317470524895337 1.6323423143114346 a28.49732727802406,28.49732727802406 0 0,0 -0.11092168591416696,0.47784771982799895 l -7.288288273050617 -1.7580586914879985" fill="#ff3a05" stroke="none" /><path d="M 118.97047184881838 109.00673069616215 l 9.173500476668012 4.355360741309676 a31.154913991874565,31.154913991874565 0 0,0 -0.23417627209838435,0.4824724812433131 l -9.097170947954913 -4.5126221785182645" fill="#ff6108" stroke="none" /><path d="M 118.64920377521936 109.65438752849418 l 14.492577600395396 7.502570196959828 a37.319416811387356,37.319416811387356 0 0,0 -0.30023913641874533,0.5679392980314997 l -14.361285955751757 -7.750924510077462" fill="#ffb610" stroke="none" /><line stroke="#e1ed5e" stroke-width="0.3" x1="174.80103733775053" x2="179.2010983576182" y1="140.37084112569926" y2="142.7455964860345" /><path d="M 175.68104954172406 140.8457921977663 a86.0,86.0 0 0,1 -30.038265399797805,32.042727171017184" fill="none" id="id41" stroke="none" /><text fill="#e1ed5e" style="font-size:6.75px; font-family:Arial;" text-anchor="middle"><textPath startOffset="22.206326154141568" xlink:href="#id41">May</textPath></text><path d="M 117.94076556474637 110.91462005526583 l 18.86189667856008 11.475008411720147 a43.07820111244854,43.07820111244854 0 0,0 -0.39085336054363545,0.6301800676156546 l -18.661578678348484 -11.797984810701074" fill="#fdff18" stroke="none" /><path d="M 117.75023020441432 111.22182372390056 l 46.438726552631614 29.35889829791909 a75.94087943505863,75.94087943505863 0 0,0 -0.7080407078216312,1.0988949020611167 l -45.92648098143293 -30.15391479990166" fill="#43ffdb" stroke="none" /><path d="M 116.0416608686014 113.55231037782055 l 3.740785171939268 3.16028883306581 a25.897029631419556,25.897029631419556 0 0,0 -0.2906109053576911,0.33804613741259976 l -3.685831757010798 -3.224212069639938" fill="#ff1302" stroke="none" /><path d="M 112.63410532772338 116.77436683061366 l 4.843168339614623 6.430299593342805 a29.050157292003064,29.050157292003064 0 0,0 -0.4020196343219443,0.29740451453931005 l -4.731763734874114 -6.512714056621884" fill="#ff4206" stroke="none" /><path d="M 111.1453310114006 117.79835938074945 l 5.745342413255319 9.174933335939574 a31.825357322716222,31.825357322716222 0 0,0 -0.46680342976110517,0.2867487929888495 l -5.5865597835619045 -9.272470595756802" fill="#ff6a09" stroke="none" /><line stroke="#e1ed5e" stroke-width="0.3" x1="143.8653032363475" x2="146.44561519142675" y1="172.8068346515853" y2="177.08958963109032" /><path d="M 144.38136562736335 173.6633856474863 a86.0,86.0 0 0,1 -40.68145358897372,12.25698825130547" fill="none" id="id42" stroke="none" /><text fill="#e1ed5e" style="font-size:6.75px; font-family:Arial;" text-anchor="middle"><textPath startOffset="21.466115282336833" xlink:href="#id42">June</textPath></text><path d="M 108.92500713936063 119.00905698771935 l 2.485942025655559 5.294719981281527 a26.84927067548616,26.84927067548616 0 0,0 -0.4200402241524057,0.19281986523635686 l -2.394433805735734 -5.3367269168519575" fill="#ff2103" stroke="none" /><path d="M 104.13013068566511 120.58985236759428 l 2.0457534629736767 10.19865108126465 a31.40180710783705,31.40180710783705 0 0,0 -0.5308884992502189,0.10174604440658191 l -1.8698973491517534 -10.232354324019699" fill="#ff6409" stroke="none" /><path d="M 102.34483914955558 120.86867818915974 l 1.5285906687728843 13.604202555053575 a34.689810685016276,34.689810685016276 0 0,0 -0.5939678643930725,0.061567197732416035 l -1.2941902077742091 -13.62849912124175" fill="#ff920d" stroke="none" /><path d="M 101.98527174616119 120.90594882070398 l 1.2656131479941433 13.327567749824478 a34.38752549078944,34.38752549078944 0 0,0 -0.5897553668721618,0.05088657461489542 l -1.0360134633804399 -13.347378576718036" fill="#ff8e0d" stroke="none" /><line stroke="#e1ed5e" stroke-width="0.3" x1="102.19456741930631" x2="102.32365962044197" y1="184.97166512339345" y2="189.96999836594603" /><path d="M 102.22038585953345 185.97133177190398 a86.0,86.0 0 0,1 -42.740103519485714,-10.115201625700543" fill="none" id="id43" stroke="none" /><text fill="#e1ed5e" style="font-size:6.75px; font-family:Arial;" text-anchor="middle"><textPath startOffset="22.20632615414155" xlink:href="#id43">July</textPath></text><path d="M 95.86986931433489 120.58985236759428 l -0.7148426874011906 3.563689994297274 a24.634678313576796,24.634678313576796 0 0,0 -0.41504569201351355,-0.08697686017510933 l 0.776079840844091 -3.5508571533956235" fill="#ff0000" stroke="none" /><line stroke="#e1ed5e" stroke-width="0.3" x1="58.666819895761336" x2="56.23545636021788" y1="174.27360380694188" y2="178.64263932499728" /><path d="M 58.180547188652646 175.14741091055294 a86.0,86.0 0 0,1 -31.652253787137756,-30.449443065178592" fill="none" id="id44" stroke="none" /><text fill="#e1ed5e" style="font-size:6.75px; font-family:Arial;" text-anchor="middle"><textPath startOffset="22.20632615414155" xlink:href="#id44">August</textPath></text><path d="M 86.51685102203217 116.09983520530335 l -24.349975059543095 29.075595497200883 a58.92507796850547,58.92507796850547 0 0,0 -0.7720153925964065,-0.657928266086926 l 24.846855928716558 -28.652142840891006" fill="#46ff2c" stroke="none" /><path d="M 84.67929136418377 114.36230785411682 l -13.606601706080239 12.755428433266083 a39.65048429677038,39.65048429677038 0 0,0 -0.46250135967632605,-0.501953880800734 l 13.824149473752295 -12.519323297664004" fill="#ffd513" stroke="none" /><line stroke="#e1ed5e" stroke-width="0.3" x1="26.63291911575756" x2="22.317208475507996" y1="142.92168965132927" y2="145.44649492493687" /><path d="M 25.769776987707644 143.4266507060508 a86.0,86.0 0 0,1 -11.730757126820373,-40.83630448921669" fill="none" id="id45" stroke="none" /><text fill="#e1ed5e" style="font-size:6.75px; font-family:Arial;" text-anchor="middle"><textPath startOffset="21.46611528233685" xlink:href="#id45">September</textPath></text><path d="M 81.51974371655577 109.97397251340807 l -9.488593513280122 5.1210854135795465 a31.782343097557174,31.782343097557174 0 0,0 -0.255692721384209,-0.48367426854097006 l 9.575338742889219 -4.956996129952451" fill="#ff6a09" stroke="none" /><path d="M 80.58989483394504 108.01547362559985 l -12.915318380527937 5.333427766604277 a34.97322083887563,34.97322083887563 0 0,0 -0.22499003363481643,-0.5584068121832463 l 13.00521102842014 -5.110321586578225" fill="#ff960d" stroke="none" /><path d="M 80.45479744820244 107.68017299344265 l -13.200836521489505 5.187191479572098 a35.18340721804308,35.18340721804308 0 0,0 -0.21663884841352346,-0.5655756721582624 l 13.288169649496538 -4.959192240580677" fill="#ff990e" stroke="none" /><line stroke="#e1ed5e" stroke-width="0.3" x1="15.007084014347285" x2="10.007500721073583" y1="101.09737516637583" y2="101.16192664675087" /><path d="M 14.007167355692545 101.11028546245083 a86.0,86.0 0 0,1 10.666146001902534,-42.60595125391555" fill="none" id="id46" stroke="none" /><text fill="#e1ed5e" style="font-size:6.75px; font-family:Arial;" text-anchor="middle"><textPath startOffset="22.20632615414155" xlink:href="#id46">October</textPath></text><line stroke="#e1ed5e" stroke-width="0.3" x1="26.266209847984243" x2="21.928928074336255" y1="57.711370442889674" y2="55.22380399835377" /><path d="M 25.398753493254645 57.213857153982495 a86.0,86.0 0 0,1 29.58750427330803,-30.492523968695096" fill="none" id="id47" stroke="none" /><text fill="#e1ed5e" style="font-size:6.75px; font-family:Arial;" text-anchor="middle"><textPath startOffset="21.46611528233685" xlink:href="#id47">November</textPath></text><path d="M 81.78341655067845 89.55222093294921 l -28.571815156052747 -16.38682759176612 a53.93746711321186,53.93746711321186 0 0,0 0.4688458478615159,-0.801409532609857 l 28.285509633720906 16.87621653672987" fill="#7cff26" stroke="none" /><path d="M 86.93701828274178 83.55741782278169 l -39.18894515177469 -49.32774653165494 a84.0,84.0 0 0,0 1.1398697793622974,-0.889686443107113 l 38.334042817252964 49.99501136398527" fill="#4dd2ff" stroke="none" /><line stroke="#e1ed5e" stroke-width="0.3" x1="56.762969772571076" x2="54.21961505331055" y1="26.818313649435495" y2="22.513508569990535" /><path d="M 56.25429882871897 25.957352633546506 a86.0,86.0 0 0,1 42.265352541879196,-11.944610805530505" fill="none" id="id48" stroke="none" /><text fill="#e1ed5e" style="font-size:6.75px; font-family:Arial;" text-anchor="middle"><textPath startOffset="22.20632615414155" xlink:href="#id48">December</textPath></text></svg>