<?xml version="1.0" encoding="utf-8" ?>
<svg baseProfile="full" height="200mm" version="1.1" viewBox="0,0,200,200" width="200mm" xmlns="http://www.w3.org/2000/svg" xmlns:ev="http://www.w3.org/2001/xml-events" xmlns:xlink="http://www.w3.org/1999/xlink"><defs /><rect fill="#1a1a1a" height="200" width="200" x="0" y="0" /><text alignment-baseline="middle" fill="#e1ed5e" style="dominant-baseline: central; font-size:9.0px; font-family:Arial;" text-anchor="middle" x="100.0" y="100.0">2023</text><line stroke="#e1ed5e" stroke-width="0.3" x1="100.0" x2="100.0" y1="15.0" y2="10.0" /><path d="M 100.0 14.0 a86.0,86.0 0 0,1 42.46469731375804,11.215312516191453" fill="none" id="id97" stroke="none" /><text fill="#e1ed5e" style="font-size:6.75px; font-family:Arial;" text-anchor="middle"><textPath startOffset="22.20632615414155" xlink:href="#id97">January</textPath></text><line stroke="#e1ed5e" stroke-width="0.3" x1="143.23703022742887" x2="145.7803849466894" y1="26.81831364943548" y2="22.513508569990506" /><path d="M 143.74570117128098 25.957352633546492 a86.0,86.0 0 0,1 28.547481713284135,27.462654790039103" fill="none" id="id98" stroke="none" /><text fill="#e1ed5e" style="font-size:6.75px; font-family:Arial;" text-anchor="middle"><textPath startOffset="19.985693538727396" xlink:href="#id98">February</textPath></text><line stroke="#e1ed5e" stroke-width="0.3" x1="172.23445277983987" x2="176.4835382374775" y1="55.19839476539836" y2="52.563006222186495" /><path d="M 173.08426987136738 54.67131705675599 a86.0,86.0 0 0,1 12.851231095245387,41.99856678651699" fill="none" id="id99" stroke="none" /><text fill="#e1ed5e" style="font-size:6.75px; font-family:Arial;" text-anchor="middle"><textPath startOffset="22.20632615414155" xlink:href="#id99">March</textPath></text><line stroke="#e1ed5e" stroke-width="0.3" x1="184.98032266829074" x2="189.97916517819016" y1="98.17113171792111" y2="98.06355123074" /><path d="M 185.9800911702706 98.14961562048488 a86.0,86.0 0 0,1 -9.607161424134198,41.387399972396054" fill="none" id="id100" stroke="none" /><text fill="#e1ed5e" style="font-size:6.75px; font-family:Arial;" text-anchor="middle"><textPath startOffset="21.466115282336823" xlink:href="#id100">April</textPath></text><path d="M 120.89721153311464 102.0752229133903 l 27.150292591209762 2.6961927050049685 a48.2838384926099,48.2838384926099 0 0,0 -0.08925083261800175,0.8263518641792709 l -27.09985945709071 -3.1631408910690304" fill="#bfff1e" stroke="none" /><path d="M 120.41448212921028 104.9243191809786 l 3.8748708870956436 0.9346845495452587 a24.98600797776673,24.98600797776673 0 0,0 -0.10445184768482216,0.41723320963796956 l -3.858207725115761 -1.0012455985806241" fill="#ff0000" stroke="none" /><path d="M 120.32669344350535 105.2749913415812 l 23.174394907294992 6.013999907172484 a44.942029450377234,44.942029450377234 0 0,0 -0.2007665826592566,0.7471271410770584 l -23.06744024829396 -6.41201798142509" fill="#e8ff1a" stroke="none" /><path d="M 120.23288151984713 105.62410040840565 l 21.823603595609683 6.0662707768319395 a43.65103342093144,43.65103342093144 0 0,0 -0.2074616449019007,0.7222012023143944 l -21.715949313821685 -6.4410294546509155" fill="#f8ff18" stroke="none" /><path d="M 120.13307415673323 105.97154293290107 l 21.279073002797794 6.311450353747733 a43.19534530991172,43.19534530991172 0 0,0 -0.21756719457816412,0.7110221802350707 l -21.1672790357135 -6.676799506534861" fill="#feff18" stroke="none" /><path d="M 120.02730092923936 106.31721596034902 l 10.56374817551427 3.332125422754165 a32.076815216868326,32.076815216868326 0 0,0 -0.1706299439259122,0.5251449693699204 l -10.504825980572111 -3.5134692921018806" fill="#ff6909" stroke="none" /><path d="M 119.9155931802556 106.66101706037122 l 10.828567359827428 3.6217486102647807 a32.41818435926986,32.41818435926986 0 0,0 -0.18155598689632763,0.527686682394378 l -10.76462054198787 -3.807607995748459" fill="#ff6e0a" stroke="none" /><path d="M 119.79798401119884 107.00284435728193 l 10.776051274881201 3.8116512176894597 a32.430309098365726,32.430309098365726 0 0,0 -0.1906836372261727,0.5246794742829459 l -10.708843376649801 -3.9965784889785367" fill="#ff6e0a" stroke="none" /><path d="M 119.67450827220406 107.3425965602758 l 10.628110200377085 3.9664485800527984 a32.3441368455058,32.3441368455058 0 0,0 -0.19915628170163474,0.5199342071507875 l -10.558259639081943 -4.14880635403673" fill="#ff6d0a" stroke="none" /><path d="M 119.54520255179757 107.68017299344265 l 20.992924015694996 8.24904667278089 a43.55547892948543,43.55547892948543 0 0,0 -0.2802014922924147,0.695437124712642 l -20.84781990914519 -8.609183165336347" fill="#faff18" stroke="none" /><path d="M 119.41010516605496 108.01547362559984 l 10.281023460417227 4.245586084472331 a32.123149041270395,32.123149041270395 0 0,0 -0.21545304873695986,0.509267363412451 l -10.206419430487959 -4.421927973550945" fill="#ff6a09" stroke="none" /><path d="M 119.26925614724726 108.34839909993367 l 10.507866474048132 4.552529809340799 a32.45167173391559,32.45167173391559 0 0,0 -0.226480086094261,0.5106528051459825 l -10.427945303222598 -4.732730950979469" fill="#ff6f0a" stroke="none" /><path d="M 119.12269723197855 108.67885076344098 l 10.382336104233248 4.712031181137028 a32.40158501407909,32.40158501407909 0 0,0 -0.23487350922690323,0.5058966435464525 l -10.299687978166514 -4.89004789196231" fill="#ff6e0a" stroke="none" /><path d="M 118.97047184881838 109.00673069616215 l 8.955864908119871 4.252032528314206 a30.91399500072171,30.91399500072171 0 0,0 -0.2323654017091869,0.4787415518794744 l -8.88134624979597 -4.405563036158957" fill="#ff5908" stroke="none" /><line stroke="#e1ed5e" stroke-width="0.3" x1="174.80103733775053" x2="179.2010983576182" y1="140.37084112569926" y2="142.7455964860345" /><path d="M 175.68104954172406 140.8457921977663 a86.0,86.0 0 0,1 -30.038265399797805,32.042727171017184" fill="none" id="id101" stroke="none" /><text fill="#e1ed5e" style="font-size:6.75px; font-family:Arial;" text-anchor="middle"><textPath startOffset="22.206326154141568" xlink:href="#id101">May</textPath></text><path d="M 117.14729908036423 112.12312394758627 l 21.58350264757742 15.259515600288895 a47.43294162391771,47.43294162391771 0 0,0 -0.477085513239991,0.6626300508121765 l -21.317637341961824 -15.628779256552201" fill="#c9ff1d" stroke="none" /><path d="M 116.93607887273984 112.41649034213515 l 18.226395419056978 13.362470994211074 a43.59993630617028,43.59993630617028 0 0,0 -0.44895214281052037,0.601444762005321 l -17.993682009551364 -13.674228635725711" fill="#f9ff18" stroke="none" /><path d="M 116.71984013943494 112.70617746262583 l 17.955067971567505 13.644884047794259 a43.55143734978681,43.55143734978681 0 0,0 -0.45872766867272546,0.5929673488715262 l -17.71753348567671 -13.951929390779037" fill="#faff18" stroke="none" /><path d="M 116.498646956653 112.99209946851258 l 8.71587975013531 6.863446255130027 a32.093847588455375,32.093847588455375 0 0,0 -0.3455163844281563,0.4310848151469074 l -8.596445453652299 -7.012458903855185" fill="#ff6a09" stroke="none" /><path d="M 116.27256486870786 113.27417163493432 l 8.626420828780184 7.0369109971471415 a32.13253127985648,32.13253127985648 0 0,0 -0.35331095266974766,0.42558580266341567 l -8.504013876216892 -7.184358056924328" fill="#ff6a09" stroke="none" /><path d="M 115.80600337817218 113.82643327865902 l 47.41801013451653 41.47929983597707 a84.0,84.0 0 0,0 -0.9613646014066468,1.080103321036534 l -46.696986683461546 -42.289377326754476" fill="#4dd2ff" stroke="none" /><path d="M 115.56566222782051 114.09645910891815 l 16.17500346596565 14.648286183229095 a42.822076556317484,42.822076556317484 0 0,0 -0.49949626045486434,0.5421045390141991 l -15.920460797515062 -14.924541977044628" fill="#fffb17" stroke="none" /><path d="M 115.32070863581623 114.36230785411682 l 23.13707363396961 21.68971307225288 a52.71384286869677,52.71384286869677 0 0,0 -0.6262742117799304,0.6566460072399539 l -22.760292870810716 -22.08476619607534" fill="#8bff24" stroke="none" /><path d="M 115.07121518719521 114.62390073753431 l 15.48706405525364 15.027407189586665 a42.57943743226802,42.57943743226802 0 0,0 -0.5149260626564628,0.5216173828764985 l -15.226097367541643 -15.291765066443828" fill="#fff817" stroke="none" /><path d="M 114.81725581225074 114.88116024355365 l 19.46246040014497 19.54639884862599 a48.58349275883637,48.58349275883637 0 0,0 -0.5976927460950301,0.5849681497016069 l -19.123117701674143 -19.87851710125017" fill="#bcff1f" stroke="none" /><path d="M 114.55890576462653 115.13401014063108 l 7.997469589425823 8.313384798453216 a32.53567885479411,32.53567885479411 0 0,0 -0.4069503304249113,0.3847969379756657 l -7.853183424610105 -8.449816373174803" fill="#ff700a" stroke="none" /><path d="M 114.0293411484842 115.62618273729858 l 2.952679328831445 3.2887579159017997 a25.41975608470821,25.41975608470821 0 0,0 -0.3281056797147361,0.28951511415501213 l -2.895631296210121 -3.339096171829101" fill="#ff0701" stroke="none" /><path d="M 113.75828350139079 115.86535959552629 l 17.134344980330482 19.758463657131646 a47.15306222978809,47.15306222978809 0 0,0 -0.6177826335488371,0.5264877628183284 l -16.7916968702046 -20.050475810172923" fill="#cdff1d" stroke="none" /><path d="M 113.48314897796784 116.09983520530334 l 16.596336818753116 19.817202066835367 a46.84878901533463,46.84878901533463 0 0,0 -0.6227093550327258,0.5124474053548842 l -16.252757335175698 -20.099944591047432" fill="#d1ff1d" stroke="none" /><path d="M 113.20401910651253 116.32954008644616 l 16.130598459962684 19.948869510527274 a46.65450450553655,46.65450450553655 0 0,0 -0.6288194252988907,0.49957218200905806 l -15.784821541946442 -20.22357560654146" fill="#d3ff1c" stroke="none" /><path d="M 112.63410532772338 116.77436683061366 l 8.655573418572743 11.49204948718051 a35.38701333217249,35.38701333217249 0 0,0 -0.4897141869679984,0.36227884810620187 l -8.456474261186182 -11.639338284026481" fill="#ff980e" stroke="none" /><path d="M 112.34349029814194 116.9893568818739 l 6.958840161094294 9.578021785178892 a32.839086016455,32.839086016455 0 0,0 -0.4601735996696448,0.3283216449974279 l -6.792939233575765 -9.696387692020538" fill="#ff740a" stroke="none" /><path d="M 111.7513745106137 117.40417183066458 l 14.412041234971452 21.344706685802592 a46.75467794520955,46.75467794520955 0 0,0 -0.6708746389122011,0.44461912899506845 l -14.042491897319287 -21.58962383588898" fill="#d2ff1c" stroke="none" /><path d="M 111.1453310114006 117.79835938074945 l 21.537209526662043 34.39350476194249 a61.58034701681471,61.58034701681471 0 0,0 -0.9032394169793017,0.5548434224900963 l -20.94199090975043 -34.75913665126096" fill="#30ff33" stroke="none" /><line stroke="#e1ed5e" stroke-width="0.3" x1="143.8653032363475" x2="146.44561519142675" y1="172.8068346515853" y2="177.08958963109032" /><path d="M 144.38136562736335 173.6633856474863 a86.0,86.0 0 0,1 -40.68145358897372,12.25698825130547" fill="none" id="id102" stroke="none" /><text fill="#e1ed5e" style="font-size:6.75px; font-family:Arial;" text-anchor="middle"><textPath startOffset="21.466115282336833" xlink:href="#id102">June</textPath></text><path d="M 110.8373102113329 117.98757091392108 l 5.957077957724128 9.887449940508793 a32.54332898779507,32.54332898779507 0 0,0 -0.48231093165215366,0.2849577998376174 l -5.785999155043593 -9.98852631264016" fill="#ff700a" stroke="none" /><path d="M 110.5260780823613 118.17145234162733 l 14.903368428303338 25.728086663012473 a50.73289144784323,50.73289144784323 0 0,0 -0.7594260468705939,0.4312219292154659 l -14.458293614511545 -25.98081175802257" fill="#a2ff22" stroke="none" /><path d="M 109.57404056367764 118.69057910512821 l 13.449673111940044 26.25664447156561 a50.5009336415687,50.5009336415687 0 0,0 -0.7771037792688165,0.3896559673352113 l -12.995715424988466 -26.484268279810124" fill="#a5ff21" stroke="none" /><path d="M 109.2508944713604 118.85261126421891 l 6.352755782775257 12.946427569783786 a35.42107807534659,35.42107807534659 0 0,0 -0.5496800300252453,0.26387981841253183 l -6.128963084749779 -13.053861664695878" fill="#ff980e" stroke="none" /><path d="M 108.92500713936063 119.00905698771935 l 6.321955886845914 13.464910206840559 a35.87517842291328,35.87517842291328 0 0,0 -0.5612449652133871,0.2576400362022549 l -6.089242925865107 -13.57173731337689" fill="#ff9f0e" stroke="none" /><path d="M 108.59647513512805 119.15986991738527 l 6.138462656661725 13.681438513532559 a35.9954154189473,35.9954154189473 0 0,0 -0.5674922786818553,0.2487719379133617 l -5.902049703322116 -13.785075004740374" fill="#ffa00e" stroke="none" /><path d="M 108.2653958097858 119.30500536409082 l 11.449594650091699 26.742153820993348 a50.09013593363011,50.09013593363011 0 0,0 -0.795547139596068,0.33253876887193984 l -10.98757605099817 -26.935277632885263" fill="#aaff21" stroke="none" /><path d="M 107.2578585660854 119.70592522655815 l 5.0777888379963585 13.786783835301094 a35.692152599418506,35.692152599418506 0 0,0 -0.5783495889809849,0.20737558591581098 l -4.839719688385639 -13.872146962256865" fill="#ff9c0e" stroke="none" /><path d="M 106.91757812671514 119.82793768551818 l 9.949128925264928 28.51730833273797 a51.20301377207231,51.20301377207231 0 0,0 -0.8346829228101124,0.28316976577632136 l -9.456776269517588 -28.684341085412413" fill="#9dff22" stroke="none" /><path d="M 106.2309692047433 120.05430185196036 l 8.955197142724623 28.82219775814331 a51.181362452258256,51.181362452258256 0 0,0 -0.8435785898557586,0.25416330914284896 l -8.45774357842862 -28.972076436391884" fill="#9dff22" stroke="none" /><path d="M 104.83641907484287 120.43548508189849 l 6.736688988088209 28.46475981239059 a50.25107741091455,50.25107741091455 0 0,0 -0.8434520123165182,0.19196693195924772 l -6.245716826378828 -28.57650347792752" fill="#a8ff21" stroke="none" /><path d="M 104.48393922423573 120.51570834832081 l 6.292902344640204 28.792394970319403 a50.47206521514996,50.47206521514996 0 0,0 -0.8503546491625397,0.17820008457539757 l -5.796356234048287 -28.896451035621343" fill="#a5ff21" stroke="none" /><path d="M 102.34483914955558 120.86867818915974 l 3.3171891139677276 29.52243104824335 a50.708208943255215,50.708208943255215 0 0,0 -0.868239000976516,0.08999652246630864 l -2.8085175163856086 -29.57515693916542" fill="#a2ff22" stroke="none" /><line stroke="#e1ed5e" stroke-width="0.3" x1="102.19456741930631" x2="102.32365962044197" y1="184.97166512339345" y2="189.96999836594603" /><path d="M 102.22038585953345 185.97133177190398 a86.0,86.0 0 0,1 -42.740103519485714,-10.115201625700543" fill="none" id="id103" stroke="none" /><text fill="#e1ed5e" style="font-size:6.75px; font-family:Arial;" text-anchor="middle"><textPath startOffset="22.20632615414155" xlink:href="#id103">July</textPath></text><path d="M 92.7421414339146 119.70592522655815 l -3.8970272082544857 10.580879480150227 a32.275718674893405,32.275718674893405 0 0,0 -0.5196848395402343,-0.19650033865005426 l 4.078582268555003 -10.51223089139354" fill="#ff6c0a" stroke="none" /><path d="M 92.40401165467489 119.57807347666478 l -10.535197597171384 27.153658388054772 a50.12578844025725,50.12578844025725 0 0,0 -0.8017236135174797,-0.31902237150829965 l 11.001042286730723 -26.968289172140405" fill="#a9ff21" stroke="none" /><line stroke="#e1ed5e" stroke-width="0.3" x1="58.666819895761336" x2="56.23545636021788" y1="174.27360380694188" y2="178.64263932499728" /><path d="M 58.180547188652646 175.14741091055294 a86.0,86.0 0 0,1 -31.652253787137756,-30.449443065178592" fill="none" id="id104" stroke="none" /><text fill="#e1ed5e" style="font-size:6.75px; font-family:Arial;" text-anchor="middle"><textPath startOffset="22.20632615414155" xlink:href="#id104">August</textPath></text><path d="M 82.85270091963577 112.12312394758628 l -20.666191704318937 14.6109776462076 a46.309526809832676,46.309526809832676 0 0,0 -0.45458113553951185,-0.6548580300078387 l 20.91463374702058 -14.253078354012748" fill="#d7ff1c" stroke="none" /><line stroke="#e1ed5e" stroke-width="0.3" x1="26.63291911575756" x2="22.317208475507996" y1="142.92168965132927" y2="145.44649492493687" /><path d="M 25.769776987707644 143.4266507060508 a86.0,86.0 0 0,1 -11.730757126820373,-40.83630448921669" fill="none" id="id105" stroke="none" /><text fill="#e1ed5e" style="font-size:6.75px; font-family:Arial;" text-anchor="middle"><textPath startOffset="21.46611528233685" xlink:href="#id105">September</textPath></text><path d="M 79.58551787078972 104.9243191809786 l -26.31628771077363 6.347934741919761 a48.07107818990384,48.07107818990384 0 0,0 -0.18710965363575108,-0.8060634907482146 l 26.421657930339936 -5.894002593822972" fill="#c2ff1e" stroke="none" /><path d="M 79.50377843672027 104.57218783832718 l -13.85112603735093 3.089835354267072 a35.191574085317654,35.191574085317654 0 0,0 -0.12680020390312477,-0.592368338673907 l 13.902260279978496 -2.8509531961770014" fill="#ff950d" stroke="none" /><path d="M 79.4281124754447 104.21870165774334 l -14.355021571453099 2.9438014974632107 a35.65375759228159,35.65375759228159 0 0,0 -0.11811591930306531,-0.6022705278242181 l 14.40356742373183 -2.6962672425710377" fill="#ff9c0e" stroke="none" /><path d="M 79.35854240842038 103.8639653848113 l -28.61999814242822 5.357503540874866 a50.117127912331625,50.117127912331625 0 0,0 -0.1514338126561614,-0.8493212424335194 l 28.70797839742357 -4.864063547708133" fill="#a9ff21" stroke="none" /><path d="M 79.29508885075956 103.50808413554451 l -28.586442362606526 4.843471397731469 a49.993859731523635,49.993859731523635 0 0,0 -0.13645525392945934,-0.8497069964754687 l 28.665579370897277 -4.350685171562787" fill="#abff21" stroke="none" /><path d="M 79.1416061653843 102.43462659150553 l -28.08666698554325 3.2783227151595296 a49.27734538781065,49.27734538781065 0 0,0 -0.09108729219488407,-0.843355199053958 l 28.138936579239186 -2.7943711942207896" fill="#b3ff20" stroke="none" /><line stroke="#e1ed5e" stroke-width="0.3" x1="15.007084014347285" x2="10.007500721073583" y1="101.09737516637583" y2="101.16192664675087" /><path d="M 14.007167355692545 101.11028546245083 a86.0,86.0 0 0,1 10.666146001902534,-42.60595125391555" fill="none" id="id106" stroke="none" /><text fill="#e1ed5e" style="font-size:6.75px; font-family:Arial;" text-anchor="middle"><textPath startOffset="22.20632615414155" xlink:href="#id106">October</textPath></text><path d="M 79.00019446554 99.90962569577889 l -16.040015234893232 -0.06902945906669897 a37.04016377104131,37.04016377104131 0 0,0 0.008231722889433336,-0.6375560094635014 l 16.036450504886083 0.34512172659067236" fill="#ffaf10" stroke="none" /><path d="M 79.01574976396665 99.18683210126434 l -45.762091830037974 -1.7733425610451659 a66.79643864428371,66.79643864428371 0 0,0 0.05441171657410367,-1.1485453386470703 l 45.72478650523037 2.560799006315245" fill="#37ff74" stroke="none" /><path d="M 79.08570108090925 98.10471618934814 l -29.06629600386155 -2.634029496511014 a50.185401740811926,50.185401740811926 0 0,0 0.08536984757018508,-0.8596627146475491 l 29.016649030609134 3.1339677418629934" fill="#a9ff21" stroke="none" /><path d="M 79.12142395522702 97.74499172005258 l -27.91408065882053 -3.0148839115165313 a49.07642113993626,49.07642113993626 0 0,0 0.09794168980104453,-0.8391045862333447 l 27.858048616015896 3.494932236074738" fill="#b6ff1f" stroke="none" /><path d="M 79.16333360222342 97.38593545837743 l -29.222930157664177 -3.6661634864785273 a50.452001658788944,50.452001658788944 0 0,0 0.11552067120454168,-0.8607631809746408 l 29.1554934874018 4.168645009517827" fill="#a5ff21" stroke="none" /><path d="M 79.21141760316559 97.0276538004421 l -29.496569451558514 -4.217411963727083 a50.79654632809654,50.79654632809654 0 0,0 0.13121015580650905,-0.8645109878608533 l 29.419603402312703 4.724522063980029" fill="#a1ff22" stroke="none" /><path d="M 79.26566170972629 96.67025291283419 l -29.66373352210227 -4.763727151881969 a51.04380440037299,51.04380440037299 0 0,0 0.1467828727935416,-0.8663208241295244 l 29.577338787788506 5.273633764327321" fill="#9fff22" stroke="none" /><path d="M 79.32604984820605 96.31383870115002 l -14.084487642103968 -2.5112614125147945 a35.30661476459631,35.30661476459631 0 0,0 0.11182828201240548,-0.5973911541164132 l 14.039173636181701 2.7533306440937806" fill="#ff970d" stroke="none" /><path d="M 79.62865764111835 94.90015583598534 l -14.257507951538372 -3.5692821532864945 a35.69749325830597,35.69749325830597 0 0,0 0.15435539670900741,-0.5947943090488854 l 14.193956222959057 3.8141728878842436" fill="#ff9c0e" stroke="none" /><path d="M 79.71946130924805 94.55025226153421 l -28.20098112034666 -7.5781139459184255 a50.20142371747433,50.20142371747433 0 0,0 0.23143628344072287,-0.8325994491939294 l 28.06635806633958 8.062424698531297" fill="#a8ff21" stroke="none" /><path d="M 79.81627453868168 94.20196356495316 l -28.54997615280846 -8.201350254735878 a50.704600389952866,50.704600389952866 0 0,0 0.24819685282831422,-0.8367964024722682 l 28.404573402868436 8.691576043954687" fill="#a3ff22" stroke="none" /><path d="M 79.91906864156998 93.8553929516997 l -24.90011932183153 -7.619240659582967 a47.03975365609456,47.03975365609456 0 0,0 0.2435864407140413,-0.7722355830610029 l 24.765277397349283 8.046726409070384" fill="#ceff1d" stroke="none" /><path d="M 80.02781315780177 93.51064311812611 l -13.707160901566638 -4.453726556352599 a35.41256188955307,35.41256188955307 0 0,0 0.19335715146336915,-0.5781132719127002 l 13.628466456331497 4.689012931187621" fill="#ff980e" stroke="none" /><path d="M 80.38941819471856 92.48833698450439 l -13.59660954500526 -5.208063180861092 a35.559935206420704,35.559935206420704 0 0,0 0.2238691809560931,-0.5697226469544011 l 13.504946814167477 5.441334832711257" fill="#ff9a0e" stroke="none" /><path d="M 80.52162464483688 92.15188598940014 l -27.23856638025174 -10.974805164171125 a50.3664067744574,50.3664067744574 0 0,0 0.33092723068300545,-0.801366538011373 l 27.045617462682536 11.442046272635809" fill="#a6ff21" stroke="none" /><path d="M 80.65960295795068 91.81776055985345 l -24.763788886880388 -10.476685130980393 a47.88877407706953,47.88877407706953 0 0,0 0.3277172251961854,-0.7564165393363358 l 24.57978095184152 10.901400814903328" fill="#c4ff1e" stroke="none" /><path d="M 80.803312248108 91.48605970444005 l -27.07833280574318 -12.009535800710072 a50.622036690395284,50.622036690395284 0 0,0 0.3601340472448218,-0.7935076355270142 l 26.867596441535007 12.473865445079158" fill="#a3ff21" stroke="none" /><path d="M 81.10775173730289 90.83032412892265 l -22.470436092786073 -10.90641054402437 a45.97739556388514,45.97739556388514 0 0,0 0.35170515370563454,-0.7090161285311707 l 22.279370926127026 11.291586261054501" fill="#dbff1b" stroke="none" /><path d="M 81.43458229118936 90.18545643968196 l -25.835554005671508 -13.657875851254223 a50.22350806368466,50.22350806368466 0 0,0 0.41061759825573463,-0.7608120475625234 l 25.596628308197303 14.10056888214922" fill="#a8ff21" stroke="none" /><path d="M 81.6062741919709 89.86733742301443 l -23.830301655555676 -13.127541875073717 a48.20690413620399,48.20690413620399 0 0,0 0.40664212879413597,-0.7233709727767103 l 23.60080188546911 13.535796357785213" fill="#c0ff1e" stroke="none" /><line stroke="#e1ed5e" stroke-width="0.3" x1="26.266209847984243" x2="21.928928074336255" y1="57.711370442889674" y2="55.22380399835377" /><path d="M 25.398753493254645 57.213857153982495 a86.0,86.0 0 0,1 29.58750427330803,-30.492523968695096" fill="none" id="id107" stroke="none" /><text fill="#e1ed5e" style="font-size:6.75px; font-family:Arial;" text-anchor="middle"><textPath startOffset="21.46611528233685" xlink:href="#id107">November</textPath></text><path d="M 81.78341655067845 89.55222093294921 l -25.083043781389733 -14.385908339298513 a49.91562629592886,49.91562629592886 0 0,0 0.433886413003641,-0.7416525261704406 l 24.831697693915768 14.815540277822846" fill="#acff21" stroke="none" /><path d="M 81.96595687620814 89.24020034530311 l -22.1540040550954 -13.217925871968774 a46.79754755844138,46.79754755844138 0 0,0 0.41869142215145505,-0.6882186105200613 l 21.923196834657727 13.59731225569591" fill="#d1ff1c" stroke="none" /><path d="M 82.15384107792192 88.93136811851018 l -22.32774406174236 -13.848222513462227 a47.273587910086306,47.273587910086306 0 0,0 0.4348548862223414,-0.6878359993769377 l 22.086061579274055 14.23050616055338" fill="#cbff1d" stroke="none" /><line stroke="#e1ed5e" stroke-width="0.3" x1="56.762969772571076" x2="54.21961505331055" y1="26.818313649435495" y2="22.513508569990535" /><path d="M 56.25429882871897 25.957352633546506 a86.0,86.0 0 0,1 42.265352541879196,-11.944610805530505" fill="none" id="id108" stroke="none" /><text fill="#e1ed5e" style="font-size:6.75px; font-family:Arial;" text-anchor="middle"><textPath startOffset="22.20632615414155" xlink:href="#id108">December</textPath></text></svg>