<?xml version="1.0" encoding="utf-8" ?>
<svg baseProfile="full" height="200mm" version="1.1" viewBox="0,0,200,200" width="200mm" xmlns="http://www.w3.org/2000/svg" xmlns:ev="http://www.w3.org/2001/xml-events" xmlns:xlink="http://www.w3.org/1999/xlink"><defs /><rect fill="#1a1a1a" height="200" width="200" x="0" y="0" /><text alignment-baseline="middle" fill="#e1ed5e" style="dominant-baseline: central; font-size:9.0px; font-family:Arial;" text-anchor="middle" x="100.0" y="100.0">2025</text><line stroke="#e1ed5e" stroke-width="0.3" x1="100.0" x2="100.0" y1="15.0" y2="10.0" /><path d="M 100.0 14.0 a86.0,86.0 0 0,1 42.46469731375804,11.215312516191453" fill="none" id="id121" stroke="none" /><text fill="#e1ed5e" style="font-size:6.75px; font-family:Arial;" text-anchor="middle"><textPath startOffset="22.20632615414155" xlink:href="#id121">January</textPath></text><line stroke="#e1ed5e" stroke-width="0.3" x1="143.23703022742887" x2="145.7803849466894" y1="26.81831364943548" y2="22.513508569990506" /><path d="M 143.74570117128098 25.957352633546492 a86.0,86.0 0 0,1 28.547481713284135,27.462654790039103" fill="none" id="id122" stroke="none" /><text fill="#e1ed5e" style="font-size:6.75px; font-family:Arial;" text-anchor="middle"><textPath startOffset="19.985693538727396" xlink:href="#id122">February</textPath></text><line stroke="#e1ed5e" stroke-width="0.3" x1="172.23445277983987" x2="176.4835382374775" y1="55.19839476539836" y2="52.563006222186495" /><path d="M 173.08426987136738 54.67131705675599 a86.0,86.0 0 0,1 12.851231095245387,41.99856678651699" fill="none" id="id123" stroke="none" /><text fill="#e1ed5e" style="font-size:6.75px; font-family:Arial;" text-anchor="middle"><textPath startOffset="22.20632615414155" xlink:href="#id123">March</textPath></text><path d="M 118.56541770881063 90.18545643968196 l 12.36759427646888 -6.538085739118022 a34.98942290873374,34.98942290873374 0 0,0 0.27690057269537477,0.5348837707653485 l -12.478304282324371 6.324229246092328" fill="#ff710a" stroke="none" /><path d="M 118.73160827565052 90.50648371742162 l 12.56903743956437 -6.370214443569865 a35.09114382206913,35.09114382206913 0 0,0 0.26843051852510846,0.5411395454943524 l -12.676827971042886 6.152915309576564" fill="#ff730a" stroke="none" /><path d="M 120.45610955862082 95.25157060432595 l 14.685676134589379 -3.408952032301036 a36.07614133286689,36.07614133286689 0 0,0 0.13520927705735322,0.6061166771731572 l -14.74217979864877 3.1556571855779145" fill="#ff820b" stroke="none" /><path d="M 120.94382443527127 98.46500227214037 l 50.22738896398514 -3.681224896356453 a71.36210895978256,71.36210895978256 0 0,0 0.07924391455336352,1.2258682839537534 l -50.28331346954292 2.8160975481496644" fill="#3cffa2" stroke="none" /><line stroke="#e1ed5e" stroke-width="0.3" x1="184.98032266829074" x2="189.97916517819016" y1="98.17113171792111" y2="98.06355123074" /><path d="M 185.9800911702706 98.14961562048488 a86.0,86.0 0 0,1 -9.607161424134198,41.387399972396054" fill="none" id="id124" stroke="none" /><text fill="#e1ed5e" style="font-size:6.75px; font-family:Arial;" text-anchor="middle"><textPath startOffset="21.466115282336823" xlink:href="#id124">April</textPath></text><path d="M 120.89721153311464 102.0752229133903 l 14.862997952179061 1.4759880218065589 a35.936105542175156,35.936105542175156 0 0,0 -0.06642651953154922,0.6150270718568611 l -14.83538913114646 -1.7316114155482112" fill="#ff7f0b" stroke="none" /><path d="M 120.8583938346157 102.4346265915055 l 14.935329579263506 1.743276631694861 a36.036724478949424,36.036724478949424 0 0,0 -0.07721896253523274,0.6155111078207613 l -14.903109107481425 -2.000105493803017" fill="#ff810b" stroke="none" /><path d="M 120.81339534386255 102.79330883721812 l 14.540251821558973 1.951407410349034 a35.67061395836978,35.67061395836978 0 0,0 -0.08691051495240266,0.6078519391543543 l -14.504507255589969 -2.2014048214837976" fill="#ff7c0b" stroke="none" /><path d="M 120.76222939487914 103.15116336523771 l 13.734901548455335 2.0845988049488553 a34.89219466907065,34.89219466907065 0 0,0 -0.09523616118645399,0.593035666618064 l -13.696983632907592 -2.320713701260124" fill="#ff700a" stroke="none" /><path d="M 119.79798401119884 107.00284435728193 l 13.665140173012785 4.833565361903455 a35.494806313155095,35.494806313155095 0 0,0 -0.20870225904729375,0.5742589828445299 l -13.579913652960267 -5.068072141754116" fill="#ff790b" stroke="none" /><path d="M 119.67450827220406 107.3425965602758 l 13.367949621615775 4.988966410321374 a35.26856204841162,35.26856204841162 0 0,0 -0.21716318206528434,0.5669445418679402 l -13.280092159956984 -5.2183345190224575" fill="#ff760a" stroke="none" /><path d="M 119.41010516605496 108.01547362559984 l 13.179445998967733 5.442500228668982 a35.258983329072535,35.258983329072535 0 0,0 -0.23648539076460018,0.5589816071123956 l -13.083809627010824 -5.668556361447542" fill="#ff750a" stroke="none" /><line stroke="#e1ed5e" stroke-width="0.3" x1="174.80103733775053" x2="179.2010983576182" y1="140.37084112569926" y2="142.7455964860345" /><path d="M 175.68104954172406 140.8457921977663 a86.0,86.0 0 0,1 -30.038265399797805,32.042727171017184" fill="none" id="id125" stroke="none" /><text fill="#e1ed5e" style="font-size:6.75px; font-family:Arial;" text-anchor="middle"><textPath startOffset="22.206326154141568" xlink:href="#id125">May</textPath></text><path d="M 118.12598468904814 110.60418214915192 l 7.126474487821658 4.169176728688583 a29.256432233150793,29.256432233150793 0 0,0 -0.2580405123056356,0.43249074108678204 l -7.053653099817795 -4.291229563661469" fill="#ff1902" stroke="none" /><path d="M 117.35343817320211 111.8261652097733 l 11.923416822833847 8.125669150080823 a35.428942021770425,35.428942021770425 0 0,0 -0.3477757127891918,0.5009968526111528 l -11.78178020288252 -8.329707264878996" fill="#ff780b" stroke="none" /><path d="M 117.14729908036423 112.12312394758627 l 11.835214823878099 8.367485490498417 a35.4943824760162,35.4943824760162 0 0,0 -0.35700623028970985,0.4958504292251154 l -11.689428801212786 -8.569969525174665" fill="#ff790b" stroke="none" /><path d="M 112.92097659922987 116.55440617244103 l 5.852330871138923 7.498029390605335 a30.511583536281805,30.511583536281805 0 0,0 -0.4168046078442926,0.31958799983474684 l -5.722397534801137 -7.597656732267453" fill="#ff2d04" stroke="none" /><line stroke="#e1ed5e" stroke-width="0.3" x1="143.8653032363475" x2="146.44561519142675" y1="172.8068346515853" y2="177.08958963109032" /><path d="M 144.38136562736335 173.6633856474863 a86.0,86.0 0 0,1 -40.68145358897372,12.25698825130547" fill="none" id="id126" stroke="none" /><text fill="#e1ed5e" style="font-size:6.75px; font-family:Arial;" text-anchor="middle"><textPath startOffset="21.466115282336833" xlink:href="#id126">June</textPath></text><line stroke="#e1ed5e" stroke-width="0.3" x1="102.19456741930631" x2="102.32365962044197" y1="184.97166512339345" y2="189.96999836594603" /><path d="M 102.22038585953345 185.97133177190398 a86.0,86.0 0 0,1 -42.740103519485714,-10.115201625700543" fill="none" id="id127" stroke="none" /><text fill="#e1ed5e" style="font-size:6.75px; font-family:Arial;" text-anchor="middle"><textPath startOffset="22.20632615414155" xlink:href="#id127">July</textPath></text><line stroke="#e1ed5e" stroke-width="0.3" x1="58.666819895761336" x2="56.23545636021788" y1="174.27360380694188" y2="178.64263932499728" /><path d="M 58.180547188652646 175.14741091055294 a86.0,86.0 0 0,1 -31.652253787137756,-30.449443065178592" fill="none" id="id128" stroke="none" /><text fill="#e1ed5e" style="font-size:6.75px; font-family:Arial;" text-anchor="middle"><textPath startOffset="22.20632615414155" xlink:href="#id128">August</textPath></text><path d="M 87.07902340077011 116.55440617244103 l -9.738585664650115 12.477114357388315 a36.82777411498769,36.82777411498769 0 0,0 -0.4963726439592807,-0.3943484486257355 l 9.951915801326754 -12.307631994757449" fill="#ff8d0d" stroke="none" /><line stroke="#e1ed5e" stroke-width="0.3" x1="26.63291911575756" x2="22.317208475507996" y1="142.92168965132927" y2="145.44649492493687" /><path d="M 25.769776987707644 143.4266507060508 a86.0,86.0 0 0,1 -11.730757126820373,-40.83630448921669" fill="none" id="id129" stroke="none" /><text fill="#e1ed5e" style="font-size:6.75px; font-family:Arial;" text-anchor="middle"><textPath startOffset="21.46611528233685" xlink:href="#id129">September</textPath></text><path d="M 80.58989483394504 108.01547362559985 l -20.058162040411446 8.283091072277953 a42.70113965097348,42.70113965097348 0 0,0 -0.2747053492893675,-0.6817961485144789 l 20.1977700039582 -7.936595555920669" fill="#ffe015" stroke="none" /><path d="M 80.45479744820244 107.68017299344265 l -6.220008708095294 2.444116031660063 a27.682979238707766,27.682979238707766 0 0,0 -0.17045559873614471,-0.44500578051593864 l 6.261158586424949 -2.336686684310967" fill="#ff0000" stroke="none" /><path d="M 80.32549172779594 107.34259656027581 l -12.689172335777874 4.735644309701061 a34.544054843180255,34.544054843180255 0 0,0 -0.20311203331608282,-0.5588770825386667 l 12.768808630099182 -4.516519430156277" fill="#ff6b09" stroke="none" /><path d="M 79.58551787078972 104.9243191809786 l -13.490269728169242 3.254081762081348 a34.877190834353684,34.877190834353684 0 0,0 -0.13575437336819518,-0.5848262874481411 l 13.544284667467991 -3.0213868172846325" fill="#ff700a" stroke="none" /><path d="M 79.4281124754447 104.21870165774334 l -61.715662573665874 12.656104973230022 a84.0,84.0 0 0,0 -0.2782802680973342,-1.4189450917281805 l 61.92437277473888 -11.591896154433886" fill="#4dd2ff" stroke="none" /><path d="M 79.29508885075956 103.50808413554451 l -11.07461042561874 1.8763985443557034 a32.232447087633375,32.232447087633375 0 0,0 -0.08797653903360324,-0.5478299925424207 l 11.105268719013633 -1.6854893221200689" fill="#ff4806" stroke="none" /><path d="M 79.23777060512086 103.15116336523772 l -18.333176222674606 2.7824966280156924 a39.54312912904832,39.54312912904832 0 0,0 -0.09634579655528208,-0.6738422767092218 l 18.378356070246486 -2.4665088793260703" fill="#ffb410" stroke="none" /><line stroke="#e1ed5e" stroke-width="0.3" x1="15.007084014347285" x2="10.007500721073583" y1="101.09737516637583" y2="101.16192664675087" /><path d="M 14.007167355692545 101.11028546245083 a86.0,86.0 0 0,1 10.666146001902534,-42.60595125391555" fill="none" id="id130" stroke="none" /><text fill="#e1ed5e" style="font-size:6.75px; font-family:Arial;" text-anchor="middle"><textPath startOffset="22.20632615414155" xlink:href="#id130">October</textPath></text><path d="M 79.00486145842228 99.54816195383935 l -14.511027536982212 -0.31229297759140673 a35.514387588972156,35.514387588972156 0 0,0 0.01841388110901789,-0.6110670681816627 l 14.503501961417548 0.5620301931980638" fill="#ff790b" stroke="none" /><path d="M 79.01574976396665 99.18683210126434 l -20.36297570771205 -0.7890926757922337 a41.37825917304665,41.37825917304665 0 0,0 0.03370631962047418,-0.7114871340315113 l 20.346375779858075 1.1394909164467542" fill="#ffce13" stroke="none" /><line stroke="#e1ed5e" stroke-width="0.3" x1="26.266209847984243" x2="21.928928074336255" y1="57.711370442889674" y2="55.22380399835377" /><path d="M 25.398753493254645 57.213857153982495 a86.0,86.0 0 0,1 29.58750427330803,-30.492523968695096" fill="none" id="id131" stroke="none" /><text fill="#e1ed5e" style="font-size:6.75px; font-family:Arial;" text-anchor="middle"><textPath startOffset="21.46611528233685" xlink:href="#id131">November</textPath></text><line stroke="#e1ed5e" stroke-width="0.3" x1="56.762969772571076" x2="54.21961505331055" y1="26.818313649435495" y2="22.513508569990535" /><path d="M 56.25429882871897 25.957352633546506 a86.0,86.0 0 0,1 42.265352541879196,-11.944610805530505" fill="none" id="id132" stroke="none" /><text fill="#e1ed5e" style="font-size:6.75px; font-family:Arial;" text-anchor="middle"><textPath startOffset="22.20632615414155" xlink:href="#id132">December</textPath></text></svg>