<?xml version="1.0" encoding="utf-8" ?>
<svg baseProfile="full" height="200mm" version="1.1" viewBox="0,0,200,200" width="200mm" xmlns="http://www.w3.org/2000/svg" xmlns:ev="http://www.w3.org/2001/xml-events" xmlns:xlink="http://www.w3.org/1999/xlink"><defs /><rect fill="#1a1a1a" height="200" width="200" x="0" y="0" /><text alignment-baseline="middle" fill="#e1ed5e" style="dominant-baseline: central; font-size:9.0px; font-family:Arial;" text-anchor="middle" x="100.0" y="100.0">2024</text><line stroke="#e1ed5e" stroke-width="0.3" x1="100.0" x2="100.0" y1="15.0" y2="10.0" /><path d="M 100.0 14.0 a86.0,86.0 0 0,1 42.35913384403234,11.155469271406648" fill="none" id="id109" stroke="none" /><text fill="#e1ed5e" style="font-size:6.75px; font-family:Arial;" text-anchor="middle"><textPath startOffset="22.145653131862478" xlink:href="#id109">January</textPath></text><line stroke="#e1ed5e" stroke-width="0.3" x1="143.13028292997686" x2="145.6673583964461" y1="26.7553504044142" y2="22.446841604673864" /><path d="M 143.63769802327073 25.89364864446614 a86.0,86.0 0 0,1 29.32050498858742,28.57503671076993" fill="none" id="id110" stroke="none" /><text fill="#e1ed5e" style="font-size:6.75px; font-family:Arial;" text-anchor="middle"><textPath startOffset="20.669276256404974" xlink:href="#id110">February</textPath></text><line stroke="#e1ed5e" stroke-width="0.3" x1="172.87174338648825" x2="177.1583165268699" y1="56.24261187166439" y2="53.66864786411523" /><path d="M 173.72905801456457 55.72781907015455 a86.0,86.0 0 0,1 12.242430191666344,42.057860355516425" fill="none" id="id111" stroke="none" /><text fill="#e1ed5e" style="font-size:6.75px; font-family:Arial;" text-anchor="middle"><textPath startOffset="22.145653131862474" xlink:href="#id111">March</textPath></text><path d="M 119.58574465831526 92.42381321644754 l 24.21451458064739 -9.366694426813755 a46.963006005886314,46.963006005886314 0 0,0 0.2843930171327086,0.7543862658675109 l -24.37173828159454 8.949639880752086" fill="#d4ff1c" stroke="none" /><path d="M 119.71291397450082 92.76114493625339 l 25.08396028621974 -9.211177666153164 a47.72173006446416,47.72173006446416 0 0,0 0.2757857640872482,0.7714218656148305 l -25.23838622035093 8.779220844157416" fill="#cbff1d" stroke="none" /><path d="M 119.83427380445688 93.10060997987247 l 20.514099438013954 -7.135868665014265 a42.71978124560781,42.71978124560781 0 0,0 0.23498845338605595,0.6947016077240563 l -20.633573312972374 6.782665382816047" fill="#fff417" stroke="none" /><path d="M 119.94978838288452 93.4421083053983 l 19.808712490888308 -6.511517246779263 a41.85149748583488,41.85149748583488 0 0,0 0.21849527723842443,0.6844333439534647 l -19.91757248390399 6.170514869134411" fill="#ffe915" stroke="none" /><path d="M 120.35273937422433 94.82641323984039 l 20.15668320627256 -5.1237500489379535 a41.79770882674392,41.79770882674392 0 0,0 0.1707983228749878,0.6969154424005334 l -20.24166905566384 4.7769787819293255" fill="#ffe815" stroke="none" /><path d="M 120.43855184770803 95.1765574152323 l 20.148544181029695 -4.755001565081555 a41.70202580664109,41.70202580664109 0 0,0 0.15844612906723116,0.6981428799430328 l -20.227201171654595 4.408424351199495" fill="#ffe715" stroke="none" /><path d="M 120.82617615685814 97.30363454192243 l 20.372997263520638 -2.637692377377509 a41.54303868898403,41.54303868898403 0 0,0 0.0854954029796175,0.708024582219175 l -20.41527475275992 2.287574118234921" fill="#ffe515" stroke="none" /><path d="M 120.86939407059847 97.66154086499901 l 20.66980571910652 -2.3160948439148483 a41.79916257428692,41.79916257428692 0 0,0 0.07378071204279524,0.713761460547611 l -20.706518823630983 1.960928861084306" fill="#ffe815" stroke="none" /><path d="M 120.9064616781168 98.02013634271609 l 21.02991838690767 -1.9915551359638666 a42.124009070713385,42.124009070713385 0 0,0 0.06199526275348843,0.720478926588426 l -21.0610072723589 1.6302551619997785" fill="#ffec16" stroke="none" /><path d="M 120.93736805541906 98.37931529534042 l 20.925421388631268 -1.6197599570942005 a41.98801759600922,41.98801759600922 0 0,0 0.049457963516989174,0.7191079350061068 l -20.950143313313323 1.2603085979337596" fill="#ffeb16" stroke="none" /><path d="M 120.96210409425399 98.7389718711861 l 24.087869504569223 -1.4490664139382337 a45.131416260575335,45.131416260575335 0 0,0 0.0398841595890509,0.7737420408887236 l -24.109195253614846 1.0353525796727794" fill="#ebff1a" stroke="none" /><line stroke="#e1ed5e" stroke-width="0.3" x1="184.99686870605535" x2="189.99668451229388" y1="99.2704041080226" y2="99.22748670261217" /><path d="M 185.99683186730306 99.26182062694052 a86.0,86.0 0 0,1 -10.086455211305974,41.156179273409016" fill="none" id="id112" stroke="none" /><text fill="#e1ed5e" style="font-size:6.75px; font-family:Arial;" text-anchor="middle"><textPath startOffset="21.40746469413373" xlink:href="#id112">April</textPath></text><path d="M 120.99922638620191 99.81974689727618 l 21.03151601328543 -0.18053027033755625 a42.032290816636916,42.032290816636916 0 0,0 0.0,0.7215667461227637 l -21.03151601328543 -0.1805302703375537" fill="#ffeb16" stroke="none" /><path d="M 120.99922638620191 100.18025310272382 l 23.62768132319967 0.20281522711117533 a44.628551769565284,44.628551769565284 0 0,0 -0.013151754537063094,0.7660237676749418 l -23.62071813706394 -0.6083859107551883" fill="#f1ff19" stroke="none" /><path d="M 120.99303781780057 100.54070618675476 l 22.17352985102062 0.5711114740369766 a43.18088353447354,43.18088353447354 0 0,0 -0.02544652140437416,0.7408477060979789 l -22.160458642619403 -0.9516654446990662" fill="#fffa17" stroke="none" /><path d="M 120.9064616781168 101.97986365728391 l 22.194314698949437 2.1018246773325004 a43.29361504848971,43.29361504848971 0 0,0 -0.07641860622225012,0.7392806938291446 l -22.154963700245524 -2.4825098934445764" fill="#fffc17" stroke="none" /><path d="M 120.86939407059847 102.33845913500097 l 20.923942674669302 2.3445714198646184 a42.05488998298716,42.05488998298716 0 0,0 -0.08654879084019401,0.7167481448191196 l -20.880611797569447 -2.703413241607146" fill="#ffec16" stroke="none" /><path d="M 120.82617615685814 102.69636545807757 l 10.39607147966738 1.3459795896449103 a31.482841373697028,31.482841373697028 0 0,0 -0.07399289791497365,0.5353757497918716 l -10.371434065197196 -1.5242436476368668" fill="#ff5908" stroke="none" /><path d="M 120.7213421655516 103.40968896794604 l 20.149167634190825 3.3155378665485653 a41.420130942166864,41.420130942166864 0 0,0 -0.12146982493185232,0.7006056708571047 l -20.08928299176674 -3.6609365703262577" fill="#ffe315" stroke="none" /><path d="M 120.65975698304385 103.76489593502545 l 20.851966369301834 3.799922888033191 a42.19537485918787,42.19537485918787 0 0,0 -0.13597702215549554,0.7114892383379139 l -20.78366305486418 -4.1573146914044194" fill="#ffed16" stroke="none" /><path d="M 120.43855184770803 104.8234425847677 l 20.445025998753042 4.824970466786131 a42.00665199633312,42.00665199633312 0 0,0 -0.1716521290749773,0.7003992630585993 l -20.359186343161767 -5.1752255544528305" fill="#ffeb16" stroke="none" /><path d="M 120.35273937422433 105.17358676015961 l 9.847083276979763 2.5030900622886385 a31.160241578018834,31.160241578018834 0 0,0 -0.1362303789299019,0.517288938216692 l -9.802663417245132 -2.6717595048781337" fill="#ff5407" stroke="none" /><path d="M 120.16314734710363 105.8691983318838 l 10.163440368657783 2.9584293677492464 a31.585264496044672,31.585264496044672 0 0,0 -0.15600666034230737,0.5192954338631058 l -10.111157388311847 -3.132462405203076" fill="#ff5a08" stroke="none" /><path d="M 119.71291397450082 107.23885506374661 l 9.575112133945673 3.516113804707524 a31.200285714885073,31.200285714885073 0 0,0 -0.18893899995981006,0.5011831446969428 l -9.513342450171423 -3.6799652295986256" fill="#ff5507" stroke="none" /><path d="M 119.58574465831526 107.57618678355244 l 11.040269535148795 4.270613428197622 a32.83746976603685,32.83746976603685 0 0,0 -0.2078788924503222,0.5239906055180614 l -10.965331967732348 -4.4595050509292475" fill="#ff6d0a" stroke="none" /><path d="M 119.4528033332814 107.91128576633889 l 19.02534677281846 7.737442904486019 a41.538545287487494,41.538545287487494 0 0,0 -0.2743010803297751,0.6582227369893833 l -18.889719847952197 -8.06289815091668" fill="#ffe515" stroke="none" /><path d="M 119.31412917781788 108.2440532568976 l 19.24160481500551 8.213096918978191 a41.92114520903127,41.92114520903127 0 0,0 -0.288190142630044,0.6594354448084597 l -19.0977807903585 -8.542194433562496" fill="#ffea16" stroke="none" /><path d="M 119.16976305983485 108.57439118712176 l 18.809208295519255 8.413119627114854 a41.605021197862804,41.605021197862804 0 0,0 -0.29720950093876786,0.649456397326231 l -18.66201432972543 -8.734765006655774" fill="#ffe615" stroke="none" /><line stroke="#e1ed5e" stroke-width="0.3" x1="174.33088141563837" x2="178.70328620479359" y1="141.23008692659167" y2="143.65538615756765" /><path d="M 175.20536237346943 141.71514677278685 a86.0,86.0 0 0,1 -30.301960400862466,31.631185727798858" fill="none" id="id113" stroke="none" /><text fill="#e1ed5e" style="font-size:6.75px; font-family:Arial;" text-anchor="middle"><textPath startOffset="22.145653131862474" xlink:href="#id113">May</textPath></text><path d="M 118.00360718960297 110.81064883170644 l 5.736240005508002 3.444447307745353 a27.690939146085896,27.690939146085896 0 0,0 -0.24820580198139364,0.4054255241464269 l -5.676266239071204 -3.5424099480163367" fill="#ff2003" stroke="none" /><path d="M 117.423217284605 111.72311816256416 l 17.266674813087416 11.617789401458593 a41.8113211901011,41.8113211901011 0 0,0 -0.4057893512311275,0.5920587906078998 l -17.064695725040966 -11.912482927136537" fill="#ffe815" stroke="none" /><path d="M 117.21940702142032 112.02048342749411 l 17.19776983567873 12.005378991417956 a41.97361227944678,41.97361227944678 0 0,0 -0.4175073269206607,0.5872763411889081 l -16.98914741022811 -12.298832559316367" fill="#ffeb16" stroke="none" /><path d="M 117.01052211995028 112.31430620078461 l 16.93894003697419 12.262486292962747 a41.91162977056801,41.91162977056801 0 0,0 -0.42689585542260977,0.5791662156036917 l -16.72594216196775 -12.551458817835316" fill="#ffea16" stroke="none" /><path d="M 116.79662413953412 112.60449989151573 l 16.409564556499983 12.31404316450707 a41.51607828000478,41.51607828000478 0 0,0 -0.432652935218236,0.5663565805464771 l -16.195759643927442 -12.593920658294422" fill="#ffe415" stroke="none" /><path d="M 116.57777611688842 112.89097897827486 l 8.128656752193168 6.320892656246227 a31.297026005928267,31.297026005928267 0 0,0 -0.3334378732671524,0.42128786031711574 l -8.018952448284454 -6.459500460478025" fill="#ff5608" stroke="none" /><path d="M 116.35404254752997 113.17365903436017 l 8.110140063721733 6.532954748641688 a31.414118762573448,31.414118762573448 0 0,0 -0.34189508400007956,0.4170564111170496 l -7.996798160483025 -6.6712134414572315" fill="#ff5808" stroke="none" /><path d="M 115.89218393027572 113.72728997021213 l 15.390047205932236 13.293556227260414 a41.33647437901065,41.33647437901065 0 0,0 -0.468458264626854,0.5330195114478159 l -15.159577877346795 -13.555788016519523" fill="#ffe215" stroke="none" /><path d="M 115.6541949942343 113.99807769240083 l 15.587926414903604 13.93881992013098 a41.91110113509783,41.91110113509783 0 0,0 -0.4841775950296778,0.5321959923682287 l -15.346351119032047 -14.20435348805688" fill="#ffea16" stroke="none" /><path d="M 115.41159269507618 114.26474011684316 l 15.254114143584113 14.11898032060036 a41.7854180520622,41.7854180520622 0 0,0 -0.4917629669742259,0.5222352294072904 l -15.009495342873628 -14.378757009952148" fill="#ffe815" stroke="none" /><path d="M 115.16444852881244 114.52719865689866 l 15.319751639827283 14.675975524152378 a42.215066530452134,42.215066530452134 0 0,0 -0.5058032347313599,0.5189986776673093 l -15.065561603945117 -14.936796893887424" fill="#ffee16" stroke="none" /><path d="M 114.91283532996324 114.78537596483092 l 14.762611739700876 14.636436329163304 a41.78845770601575,41.78845770601575 0 0,0 -0.5094372770498697,0.5050831384524247 l -14.509182542521042 -14.887699477844391" fill="#ffe815" stroke="none" /><path d="M 114.13192950727249 115.5334660781643 l 7.178928526137264 7.890900013401051 a31.66786378826052,31.66786378826052 0 0,0 -0.4052505964618625,0.362377582255382 l -7.042412902852024 -8.012973125539819" fill="#ff5c08" stroke="none" /><path d="M 113.86319453409587 115.77377054828091 l 14.07165181724603 16.010956670530124 a42.31577158752168,42.31577158752168 0 0,0 -0.5497433723211352,0.47485523161344156 l -13.79472896516204 -16.25015603460828" fill="#ffef16" stroke="none" /><path d="M 113.59037401385872 116.0094264158162 l 6.652454994694425 7.836575256389881 a31.27944887654474,31.27944887654474 0 0,0 -0.41233115534754583,0.3439813148566451 l -6.516949505184985 -7.9496187551583954" fill="#ff5607" stroke="none" /><path d="M 113.31354834802062 116.24036423190432 l 13.787888141355163 16.818981653200915 a42.748195402130065,42.748195402130065 0 0,0 -0.5715010918024358,0.460360825116414 l -13.497136279197475 -17.05319077211073" fill="#fff517" stroke="none" /><path d="M 113.03279911837588 116.46651593811092 l 13.821685645431177 17.4632482941557 a43.27114804100701,43.27114804100701 0 0,0 -0.5864065912708245,0.4559933122207537 l -13.519869109525123 -17.69794265799725" fill="#fffb17" stroke="none" /><line stroke="#e1ed5e" stroke-width="0.3" x1="143.1302829299769" x2="145.66735839644613" y1="173.24464959558577" y2="177.55315839532614" /><path d="M 143.63769802327073 174.10635135553383 a86.0,86.0 0 0,1 -40.68552437913181,11.842963189579606" fill="none" id="id114" stroke="none" /><text fill="#e1ed5e" style="font-size:6.75px; font-family:Arial;" text-anchor="middle"><textPath startOffset="21.407464694133747" xlink:href="#id114">June</textPath></text><line stroke="#e1ed5e" stroke-width="0.3" x1="101.45913802915013" x2="101.54496967792366" y1="184.9874750549273" y2="189.98673829345242" /><path d="M 101.47630435890484 185.9873277026323 a86.0,86.0 0 0,1 -42.54439059252881,-10.42667462771756" fill="none" id="id115" stroke="none" /><text fill="#e1ed5e" style="font-size:6.75px; font-family:Arial;" text-anchor="middle"><textPath startOffset="22.145653131862474" xlink:href="#id115">July</textPath></text><line stroke="#e1ed5e" stroke-width="0.3" x1="58.13341422392154" x2="55.67067388415222" y1="173.97424548756322" y2="178.32567169271397" /><path d="M 57.64086615596768 174.84453072859336 a86.0,86.0 0 0,1 -31.369924170532247,-30.572349798747897" fill="none" id="id116" stroke="none" /><text fill="#e1ed5e" style="font-size:6.75px; font-family:Arial;" text-anchor="middle"><textPath startOffset="22.145653131862474" xlink:href="#id116">August</textPath></text><path d="M 84.83555147118756 114.52719865689866 l -15.089182826096112 14.455095816275497 a41.89577070646257,41.89577070646257 0 0,0 -0.4930616819631337,-0.5236144197199315 l 15.3351003417955 -14.193939936611075" fill="#ffe915" stroke="none" /><line stroke="#e1ed5e" stroke-width="0.3" x1="26.387840678322732" x2="22.057713659400548" y1="142.50000000000003" y2="145.00000000000006" /><path d="M 25.521815274538298 143.00000000000003 a86.0,86.0 0 0,1 -11.493303480769221,-40.785679425670985" fill="none" id="id117" stroke="none" /><text fill="#e1ed5e" style="font-size:6.75px; font-family:Arial;" text-anchor="middle"><textPath startOffset="21.40746469413373" xlink:href="#id117">September</textPath></text><path d="M 80.28708602549918 107.23885506374661 l -19.261505079274176 7.07309146475467 a41.51911793395833,41.51911793395833 0 0,0 -0.2399406234471738,-0.6711566276417538 l 19.380085872765292 -6.741399880731995" fill="#ffe515" stroke="none" /><path d="M 79.56144815229197 104.8234425847677 l -11.252417517602478 2.6555398954097766 a32.561522050602164,32.561522050602164 0 0,0 -0.12371694241850449,-0.5451196756037635 l 11.296345321578649 -2.4619858858669867" fill="#ff6909" stroke="none" /><path d="M 79.48165901384964 104.47187691870673 l -21.719787710281143 4.733726640295954 a43.22965015659777,43.22965015659777 0 0,0 -0.15180254108615665,-0.7264301122357377 l 21.797847962191664 -4.360180076774807" fill="#fffb17" stroke="none" /><path d="M 79.22317932658666 103.0534771498775 l -20.719332349611047 3.0450283459977148 a41.9418941512359,41.9418941512359 0 0,0 -0.09857440297258817,-0.7132352751257517 l 20.768551269138847 -2.6889047626718776" fill="#ffea16" stroke="none" /><path d="M 79.17382384314188 102.69636545807758 l -10.574713000428686 1.3691083110353093 a31.66297391016134,31.66297391016134 0 0,0 -0.06516227024818795,-0.5396370747550564 l 10.596657356936536 -1.1873775593568536" fill="#ff5b08" stroke="none" /><path d="M 79.13060592940153 102.33845913500099 l -10.698180802233706 1.198753473160044 a31.76513271477389,31.76513271477389 0 0,0 -0.05606940343995371,-0.542420616219068 l 10.717182598155325 -1.0149283346580444" fill="#ff5d08" stroke="none" /><path d="M 79.0935383218832 101.97986365728391 l -20.82611613974917 1.972254851265557 a41.91929498488564,41.91929498488564 0 0,0 -0.06169397843083702,-0.7169775460677089 l 20.856903740877748 -1.6144562578221862" fill="#ffea16" stroke="none" /><path d="M 79.06263194458094 101.62068470465958 l -21.948310810766944 1.6989380675723342 a43.01396688476376,43.01396688476376 0 0,0 -0.05066643596695609,-0.736678859205362 l 21.974241207898967 -1.321915784212629" fill="#fff817" stroke="none" /><path d="M 79.01933749520258 100.90099992219065 l -7.3676741577034734 0.31639962948257633 a28.374464809030435,28.374464809030435 0 0,0 -0.01672108968136521,-0.48681628176378583 l 7.372019934381687 -0.1898770831546706" fill="#ff2b04" stroke="none" /><line stroke="#e1ed5e" stroke-width="0.3" x1="15.003131293944662" x2="10.003315487706104" y1="100.72959589197737" y2="100.7725132973878" /><path d="M 14.003168132696942 100.73817937305945 a86.0,86.0 0 0,1 10.791469493833604,-42.45332614584628" fill="none" id="id118" stroke="none" /><text fill="#e1ed5e" style="font-size:6.75px; font-family:Arial;" text-anchor="middle"><textPath startOffset="22.145653131862435" xlink:href="#id118">October</textPath></text><path d="M 79.13060592940154 97.66154086499901 l -21.83331956372188 -2.446468997061647 a42.96995798187116,42.96995798187116 0 0,0 0.08843199702315165,-0.7323437935259975 l 21.788105480439057 2.820906467511081" fill="#fff817" stroke="none" /><path d="M 79.17382384314186 97.30363454192245 l -21.97657687211533 -2.8453078624922883 a43.160002433401374,43.160002433401374 0 0,0 0.10143727550375854,-0.7339495946229139 l 21.924495080056364 3.222145765315269" fill="#fffa17" stroke="none" /><path d="M 79.22317932658666 96.9465228501225 l -22.0876764934876 -3.2461278136290708 a43.324936700097965,43.324936700097965 0 0,0 0.1144572781583546,-0.7348978318879401 l 22.02869772319098 3.624813827448461" fill="#fffc17" stroke="none" /><path d="M 79.2786578344484 96.59031103205396 l -20.59737029261679 -3.389289443431445 a41.87436096992022,41.87436096992022 0 0,0 0.12280191251088554,-0.7082887980244604 l 20.53615356261367 3.7423712743764983" fill="#ffe915" stroke="none" /><path d="M 79.34024301695615 96.23510406497455 l -19.312687728552078 -3.5194150436192104 a40.63074602631849,40.63074602631849 0 0,0 0.1309349157591856,-0.6851068070810584 l 19.24942652051073 3.8504244157335834" fill="#ffd914" stroke="none" /><path d="M 79.48165901384962 95.52812308129327 l -20.457823159541697 -4.458687340067578 a41.93806154407708,41.93806154407708 0 0,0 0.15934294278779373,-0.7020944066690631 l 20.37826935519624 4.809216080675649" fill="#ffea16" stroke="none" /><path d="M 79.56144815229197 95.17655741523228 l -22.157674763606114 -5.22915091199065 a43.76634731769943,43.76634731769943 0 0,0 0.17884278660374123,-0.7297395995938375 l 22.064644450486075 5.608746336192605" fill="#fcff18" stroke="none" /><path d="M 79.64726062577567 94.8264132398404 l -19.672135852160064 -5.000580006330232 a41.29775183081986,41.29775183081986 0 0,0 0.18055085891357928,-0.6855810197046825 l 19.58339551244176 5.337541530407699" fill="#ffe215" stroke="none" /><path d="M 79.73907114497095 94.47779374421319 l -22.745331118014743 -6.199341140209701 a44.57502742820942,44.57502742820942 0 0,0 0.20755301894034198,-0.7365324433045009 l 22.635559606999816 6.588881507417216" fill="#f2ff19" stroke="none" /><line stroke="#e1ed5e" stroke-width="0.3" x1="26.387840678322718" x2="22.05771365940052" y1="57.49999999999999" y2="54.99999999999999" /><path d="M 25.521815274538284 56.99999999999999 a86.0,86.0 0 0,1 29.574782752854787,-30.34633250058573" fill="none" id="id119" stroke="none" /><text fill="#e1ed5e" style="font-size:6.75px; font-family:Arial;" text-anchor="middle"><textPath startOffset="21.40746469413373" xlink:href="#id119">November</textPath></text><path d="M 81.99639281039701 89.18935116829357 l -46.43637428967051 -27.883708535543708 a75.16491538685835,75.16491538685835 0 0,0 0.673735477371738,-1.1004962690999132 l 45.950870847843376 28.676741920768166" fill="#41ffd2" stroke="none" /><path d="M 89.03521579738668 82.08984904055464 l -4.485220286086165 -7.3262702599312455 a29.590194231580092,29.590194231580092 0 0,0 0.4354933220992652,-0.26150122718114027 l 4.358794207429466 7.402185487648309" fill="#ff3d05" stroke="none" /><line stroke="#e1ed5e" stroke-width="0.3" x1="56.869717070023135" x2="54.33264160355391" y1="26.7553504044142" y2="22.446841604673864" /><path d="M 56.362301976729285 25.89364864446614 a86.0,86.0 0 0,1 42.16139366436587,-11.88097634709845" fill="none" id="id120" stroke="none" /><text fill="#e1ed5e" style="font-size:6.75px; font-family:Arial;" text-anchor="middle"><textPath startOffset="22.145653131862474" xlink:href="#id120">December</textPath></text><path d="M 98.9189461498227 79.02784411241856 l -0.23648527791434046 -4.587751213988268 a25.59384223587631,25.59384223587631 0 0,0 0.43896393621949314,-0.01885100016683595 l 0.15769558109402723 4.591134782580932" fill="#ff0000" stroke="none" /><path d="M 99.27912038922189 79.0123766808444 l -2.1626388323343404 -62.96286995746683 a84.0,84.0 0 0,0 1.4415467437170244,-0.03712913059981959 l 1.081478774546572 62.990716805416696" fill="#4dd2ff" stroke="none" /></svg>