<?xml version="1.0" encoding="utf-8" ?>
<svg baseProfile="full" height="200mm" version="1.1" viewBox="0,0,200,200" width="200mm" xmlns="http://www.w3.org/2000/svg" xmlns:ev="http://www.w3.org/2001/xml-events" xmlns:xlink="http://www.w3.org/1999/xlink"><defs /><rect fill="#1a1a1a" height="200" width="200" x="0" y="0" /><text alignment-baseline="middle" fill="#e1ed5e" style="dominant-baseline: central; font-size:9.0px; font-family:Arial;" text-anchor="middle" x="100.0" y="100.0">2015</text><line stroke="#e1ed5e" stroke-width="0.3" x1="100.0" x2="100.0" y1="15.0" y2="10.0" /><path d="M 100.0 14.0 a86.0,86.0 0 0,1 42.46469731375804,11.215312516191453" fill="none" id="id1" stroke="none" /><text fill="#e1ed5e" style="font-size:6.75px; font-family:Arial;" text-anchor="middle"><textPath startOffset="22.20632615414155" xlink:href="#id1">January</textPath></text><line stroke="#e1ed5e" stroke-width="0.3" x1="143.23703022742887" x2="145.7803849466894" y1="26.81831364943548" y2="22.513508569990506" /><path d="M 143.74570117128098 25.957352633546492 a86.0,86.0 0 0,1 28.547481713284135,27.462654790039103" fill="none" id="id2" stroke="none" /><text fill="#e1ed5e" style="font-size:6.75px; font-family:Arial;" text-anchor="middle"><textPath startOffset="19.985693538727396" xlink:href="#id2">February</textPath></text><line stroke="#e1ed5e" stroke-width="0.3" x1="172.23445277983987" x2="176.4835382374775" y1="55.19839476539836" y2="52.563006222186495" /><path d="M 173.08426987136738 54.67131705675599 a86.0,86.0 0 0,1 12.851231095245387,41.99856678651699" fill="none" id="id3" stroke="none" /><text fill="#e1ed5e" style="font-size:6.75px; font-family:Arial;" text-anchor="middle"><textPath startOffset="22.20632615414155" xlink:href="#id3">March</textPath></text><line stroke="#e1ed5e" stroke-width="0.3" x1="184.98032266829074" x2="189.97916517819016" y1="98.17113171792111" y2="98.06355123074" /><path d="M 185.9800911702706 98.14961562048488 a86.0,86.0 0 0,1 -9.607161424134198,41.387399972396054" fill="none" id="id4" stroke="none" /><text fill="#e1ed5e" style="font-size:6.75px; font-family:Arial;" text-anchor="middle"><textPath startOffset="21.466115282336823" xlink:href="#id4">April</textPath></text><line stroke="#e1ed5e" stroke-width="0.3" x1="174.80103733775053" x2="179.2010983576182" y1="140.37084112569926" y2="142.7455964860345" /><path d="M 175.68104954172406 140.8457921977663 a86.0,86.0 0 0,1 -30.038265399797805,32.042727171017184" fill="none" id="id5" stroke="none" /><text fill="#e1ed5e" style="font-size:6.75px; font-family:Arial;" text-anchor="middle"><textPath startOffset="22.206326154141568" xlink:href="#id5">May</textPath></text><line stroke="#e1ed5e" stroke-width="0.3" x1="143.8653032363475" x2="146.44561519142675" y1="172.8068346515853" y2="177.08958963109032" /><path d="M 144.38136562736335 173.6633856474863 a86.0,86.0 0 0,1 -40.68145358897372,12.25698825130547" fill="none" id="id6" stroke="none" /><text fill="#e1ed5e" style="font-size:6.75px; font-family:Arial;" text-anchor="middle"><textPath startOffset="21.466115282336833" xlink:href="#id6">June</textPath></text><line stroke="#e1ed5e" stroke-width="0.3" x1="102.19456741930631" x2="102.32365962044197" y1="184.97166512339345" y2="189.96999836594603" /><path d="M 102.22038585953345 185.97133177190398 a86.0,86.0 0 0,1 -42.740103519485714,-10.115201625700543" fill="none" id="id7" stroke="none" /><text fill="#e1ed5e" style="font-size:6.75px; font-family:Arial;" text-anchor="middle"><textPath startOffset="22.20632615414155" xlink:href="#id7">July</textPath></text><line stroke="#e1ed5e" stroke-width="0.3" x1="58.666819895761336" x2="56.23545636021788" y1="174.27360380694188" y2="178.64263932499728" /><path d="M 58.180547188652646 175.14741091055294 a86.0,86.0 0 0,1 -31.652253787137756,-30.449443065178592" fill="none" id="id8" stroke="none" /><text fill="#e1ed5e" style="font-size:6.75px; font-family:Arial;" text-anchor="middle"><textPath startOffset="22.20632615414155" xlink:href="#id8">August</textPath></text><line stroke="#e1ed5e" stroke-width="0.3" x1="26.63291911575756" x2="22.317208475507996" y1="142.92168965132927" y2="145.44649492493687" /><path d="M 25.769776987707644 143.4266507060508 a86.0,86.0 0 0,1 -11.730757126820373,-40.83630448921669" fill="none" id="id9" stroke="none" /><text fill="#e1ed5e" style="font-size:6.75px; font-family:Arial;" text-anchor="middle"><textPath startOffset="21.46611528233685" xlink:href="#id9">September</textPath></text><line stroke="#e1ed5e" stroke-width="0.3" x1="15.007084014347285" x2="10.007500721073583" y1="101.09737516637583" y2="101.16192664675087" /><path d="M 14.007167355692545 101.11028546245083 a86.0,86.0 0 0,1 10.666146001902534,-42.60595125391555" fill="none" id="id10" stroke="none" /><text fill="#e1ed5e" style="font-size:6.75px; font-family:Arial;" text-anchor="middle"><textPath startOffset="22.20632615414155" xlink:href="#id10">October</textPath></text><path d="M 79.3925641242962 95.95851677861259 l -19.150930674478758 -3.7558367504669485 a40.515748906840585,40.515748906840585 0 0,0 0.14010867676885963,-0.6832196665087269 l 19.083442701794905 4.084932073139078" fill="#ffa30f" stroke="none" /><path d="M 79.46518482838121 95.60439243477599 l -17.887578073274042 -3.828949656731689 a39.292793794313106,39.292793794313106 0 0,0 0.1472649248563784,-0.6601597823812169 l 17.819018761415627 4.136287608662865" fill="#ff910d" stroke="none" /><path d="M 79.54389044137918 95.25157060432595 l -19.46444213459355 -4.5182359303189 a40.98196595765705,40.98196595765705 0 0,0 0.16542507114462882,-0.6857937177691685 l 19.383784263188105 4.852614879747465" fill="#ffaa0f" stroke="none" /><path d="M 79.62865764111835 94.90015583598534 l -10.448119734003852 -2.6156245136764293 a31.77054769139554,31.77054769139554 0 0,0 0.13737534613657398,-0.5293632475947424 l 10.40154805599697 2.795084186820036" fill="#ff1802" stroke="none" /><path d="M 79.71946130924805 94.55025226153421 l -60.84161607225587 -16.349243215397365 a84.0,84.0 0 0,0 0.38725291773455695,-1.3931547863242297 l 60.551176383954946 17.394109305140535" fill="#4dd2ff" stroke="none" /><path d="M 79.81627453868168 94.20196356495316 l -21.320583932421997 -6.124613748515727 a43.18283554435634,43.18283554435634 0 0,0 0.211378135235943,-0.712661990315758 l 21.211999900074346 6.490705125578025" fill="#ffcb12" stroke="none" /><path d="M 79.91906864156998 93.8553929516997 l -22.085766884584373 -6.758070950188471 a44.09659329528892,44.09659329528892 0 0,0 0.22834584311268855,-0.7239187237958544 l 21.966165557703484 7.13723984041074" fill="#ffd814" stroke="none" /><path d="M 80.02781315780177 93.51064311812611 l -9.164506430559152 -2.977728645541794 a30.63613231552163,30.63613231552163 0 0,0 0.16727723046017937,-0.5001376276281644 l 9.1118919063272 3.135039376092281" fill="#ff0500" stroke="none" /><path d="M 80.14247586403 93.16781622104843 l -9.034709899260346 -3.1084841190975836 a30.554509745794117,30.554509745794117 0 0,0 0.1753929532010538,-0.49585949736847046 l 8.979863865249483 3.263541242892665" fill="#ff0400" stroke="none" /><path d="M 80.2630227832202 92.82701384747504 l -17.875700479981614 -6.496544562081224 a40.0196151090689,40.0196151090689 0 0,0 0.24087122474844028,-0.6454151286872679 l 17.761224666731547 6.803282827797833" fill="#ff9c0e" stroke="none" /><path d="M 80.38941819471856 92.48833698450439 l -31.47540608781179 -12.056380894515145 a54.7054522097878,54.7054522097878 0 0,0 0.3444006494653734,-0.8764620873147793 l 31.263211888464728 12.596391986725688" fill="#96ff23" stroke="none" /><path d="M 80.52162464483688 92.15188598940014 l -15.355799835524117 -6.187069795900566 a37.555374391659875,37.555374391659875 0 0,0 0.24675367651992583,-0.5975336000190509 l 15.24702447211799 6.450477966372929" fill="#ff760a" stroke="none" /><path d="M 80.803312248108 91.48605970444005 l -9.913317074770458 -4.396664195219412 a31.844561377504387,31.844561377504387 0 0,0 0.2265477946246426,-0.4991680354072509 l 9.836166963182462 4.5666542394687335" fill="#ff1a02" stroke="none" /><path d="M 80.95270993114464 91.15688171328213 l -20.662052054567017 -9.592806625212408 a43.78030583759481,43.78030583759481 0 0,0 0.32322750910577186,-0.680799567468746 l 20.493866351619495 9.947048608321685" fill="#ffd413" stroke="none" /><path d="M 81.10775173730289 90.83032412892265 l -23.505437305029826 -11.40876608744514 a47.12786877146175,47.12786877146175 0 0,0 0.3605057251895656,-0.7267575436246244 l 23.305571566886847 11.811683219568726" fill="#fbff18" stroke="none" /><path d="M 81.26839172434947 90.50648371742162 l -8.311122520321863 -4.212226511043633 a30.317596778576547,30.317596778576547 0 0,0 0.23992850446927322,-0.46346550292548816 l 8.237384582692474 4.354664736229457" fill="#ff0000" stroke="none" /><path d="M 81.43458229118936 90.18545643968196 l -32.76134174159571 -17.319169471999757 a58.057511302156676,58.057511302156676 0 0,0 0.4746668795291588,-0.8794856383621873 l 32.45836676284808 17.880536093694417" fill="#6cff28" stroke="none" /><path d="M 81.6062741919709 89.86733742301443 l -26.40482751497724 -14.545786449419566 a51.1462239679834,51.1462239679834 0 0,0 0.4314363215559141,-0.7674770750895392 l 26.150533552128895 14.998147034443889" fill="#c4ff1e" stroke="none" /><line stroke="#e1ed5e" stroke-width="0.3" x1="26.266209847984243" x2="21.928928074336255" y1="57.711370442889674" y2="55.22380399835377" /><path d="M 25.398753493254645 57.213857153982495 a86.0,86.0 0 0,1 29.58750427330803,-30.492523968695096" fill="none" id="id11" stroke="none" /><text fill="#e1ed5e" style="font-size:6.75px; font-family:Arial;" text-anchor="middle"><textPath startOffset="21.46611528233685" xlink:href="#id11">November</textPath></text><line stroke="#e1ed5e" stroke-width="0.3" x1="56.762969772571076" x2="54.21961505331055" y1="26.818313649435495" y2="22.513508569990535" /><path d="M 56.25429882871897 25.957352633546506 a86.0,86.0 0 0,1 42.265352541879196,-11.944610805530505" fill="none" id="id12" stroke="none" /><text fill="#e1ed5e" style="font-size:6.75px; font-family:Arial;" text-anchor="middle"><textPath startOffset="22.20632615414155" xlink:href="#id12">December</textPath></text></svg>