<?xml version="1.0" encoding="utf-8" ?>
<svg baseProfile="full" height="200mm" version="1.1" viewBox="0,0,200,200" width="200mm" xmlns="http://www.w3.org/2000/svg" xmlns:ev="http://www.w3.org/2001/xml-events" xmlns:xlink="http://www.w3.org/1999/xlink"><defs /><rect fill="#1a1a1a" height="200" width="200" x="0" y="0" /><text alignment-baseline="middle" fill="#e1ed5e" style="dominant-baseline: central; font-size:9.0px; font-family:Arial;" text-anchor="middle" x="100.0" y="100.0">2025</text><line stroke="#e1ed5e" stroke-width="0.3" x1="100.0" x2="100.0" y1="15.0" y2="10.0" /><path d="M 100.0 14.0 a86.0,86.0 0 0,1 42.46469731375804,11.215312516191453" fill="none" id="id121" stroke="none" /><text fill="#e1ed5e" style="font-size:6.75px; font-family:Arial;" text-anchor="middle"><textPath startOffset="22.20632615414155" xlink:href="#id121">January</textPath></text><line stroke="#e1ed5e" stroke-width="0.3" x1="143.23703022742887" x2="145.7803849466894" y1="26.81831364943548" y2="22.513508569990506" /><path d="M 143.74570117128098 25.957352633546492 a86.0,86.0 0 0,1 28.547481713284135,27.462654790039103" fill="none" id="id122" stroke="none" /><text fill="#e1ed5e" style="font-size:6.75px; font-family:Arial;" text-anchor="middle"><textPath startOffset="19.985693538727396" xlink:href="#id122">February</textPath></text><line stroke="#e1ed5e" stroke-width="0.3" x1="172.23445277983987" x2="176.4835382374775" y1="55.19839476539836" y2="52.563006222186495" /><path d="M 173.08426987136738 54.67131705675599 a86.0,86.0 0 0,1 12.851231095245387,41.99856678651699" fill="none" id="id123" stroke="none" /><text fill="#e1ed5e" style="font-size:6.75px; font-family:Arial;" text-anchor="middle"><textPath startOffset="22.20632615414155" xlink:href="#id123">March</textPath></text><path d="M 118.56541770881063 90.18545643968196 l 14.420442356813972 -7.623316743519317 a37.31147191206902,37.31147191206902 0 0,0 0.2952768888903403,0.5703809645900535 l -14.549528678864428 7.373963056668919" fill="#ff860c" stroke="none" /><path d="M 118.73160827565052 90.50648371742162 l 14.65532227417347 -7.4275811552795155 a37.430077077669125,37.430077077669125 0 0,0 0.2863222427099859,0.5772081696832568 l -14.781004529836865 7.174213397097309" fill="#ff880c" stroke="none" /><path d="M 120.45610955862082 95.25157060432595 l 17.12329345834178 -3.9747905033133413 a38.57857043123019,38.57857043123019 0 0,0 0.14458809687500188,0.6481600874139178 l -17.18917594221882 3.6794522463494594" fill="#ff990e" stroke="none" /><path d="M 120.94382443527127 98.46500227214037 l 58.56443469094945 -4.292256863679489 a79.72151632625206,79.72151632625206 0 0,0 0.08852660214095419,1.3694673523190046 l -58.629641884094816 3.283530447107449" fill="#47ffff" stroke="none" /><line stroke="#e1ed5e" stroke-width="0.3" x1="184.98032266829074" x2="189.97916517819016" y1="98.17113171792111" y2="98.06355123074" /><path d="M 185.9800911702706 98.14961562048488 a86.0,86.0 0 0,1 -9.607161424134198,41.387399972396054" fill="none" id="id124" stroke="none" /><text fill="#e1ed5e" style="font-size:6.75px; font-family:Arial;" text-anchor="middle"><textPath startOffset="21.466115282336823" xlink:href="#id124">April</textPath></text><path d="M 120.89721153311464 102.0752229133903 l 17.330048223415425 1.7209814384278426 a38.41529065325403,38.41529065325403 0 0,0 -0.0710091985870226,0.657456988411633 l -17.29785672332735 -2.019034748724267" fill="#ff960d" stroke="none" /><path d="M 120.8583938346157 102.4346265915055 l 17.414385891326333 2.0326362279822487 a38.532610929560136,38.532610929560136 0 0,0 -0.08256711126707669,0.6581411153040334 l -17.376817270812406 -2.332095097573677" fill="#ff980e" stroke="none" /><path d="M 120.81339534386255 102.79330883721812 l 16.95373073850674 2.275313811768433 a38.105731171037746,38.105731171037746 0 0,0 -0.09284361414630578,0.6493480210977675 l -16.91205307334383 -2.5668073048466096" fill="#ff920d" stroke="none" /><path d="M 120.76222939487914 103.15116336523771 l 16.01470355741367 2.430613119403772 a37.19810514128291,37.19810514128291 0 0,0 -0.10153000608488923,0.6322274448085643 l -15.970491796967494 -2.705919793905541" fill="#ff840c" stroke="none" /><path d="M 119.79798401119884 107.00284435728193 l 15.933362767053543 5.635869767480953 a37.900741909825555,37.900741909825555 0 0,0 -0.22284867217932786,0.6131838361412041 l -15.833989833868989 -5.909301400628288" fill="#ff8f0d" stroke="none" /><path d="M 119.67450827220406 107.3425965602758 l 15.586842730932664 5.817065221568801 a37.63694425400331,37.63694425400331 0 0,0 -0.23174629479347258,0.6050164474555352 l -15.484402156545686 -6.084505235857479" fill="#ff8b0c" stroke="none" /><path d="M 119.41010516605496 108.01547362559984 l 15.367050137184775 6.3458793254395145 a37.62577560090931,37.62577560090931 0 0,0 -0.2523596940603066,0.5965037709100582 l -15.255539461932159 -6.609457622015736" fill="#ff8b0c" stroke="none" /><line stroke="#e1ed5e" stroke-width="0.3" x1="174.80103733775053" x2="179.2010983576182" y1="140.37084112569926" y2="142.7455964860345" /><path d="M 175.68104954172406 140.8457921977663 a86.0,86.0 0 0,1 -30.038265399797805,32.042727171017184" fill="none" id="id125" stroke="none" /><text fill="#e1ed5e" style="font-size:6.75px; font-family:Arial;" text-anchor="middle"><textPath startOffset="22.206326154141568" xlink:href="#id125">May</textPath></text><path d="M 118.12598468904814 110.60418214915192 l 8.309369814505184 4.861201891609063 a30.626884778846865,30.626884778846865 0 0,0 -0.27012784661091954,0.45274980864460806 l -8.224461092196037 -5.003513794139776" fill="#ff1e03" stroke="none" /><path d="M 117.35343817320211 111.8261652097733 l 13.90253764364536 9.474416848572218 a37.82394506509949,37.82394506509949 0 0,0 -0.37128541539375254,0.5348643326494978 l -13.73739132108947 -9.712322443408736" fill="#ff8e0d" stroke="none" /><path d="M 117.14729908036423 112.12312394758627 l 13.799695343577582 9.756371327347637 a37.90024772163556,37.90024772163556 0 0,0 -0.38120467584666423,0.5294599536478668 l -13.629710875355315 -9.992464886446635" fill="#ff8f0d" stroke="none" /><path d="M 112.92097659922987 116.55440617244103 l 6.823736136043197 8.742597646710024 a32.09037368471421,32.09037368471421 0 0,0 -0.4383717286691854,0.33612474841406365 l -6.672235678880519 -8.85876173695146" fill="#ff3505" stroke="none" /><line stroke="#e1ed5e" stroke-width="0.3" x1="143.8653032363475" x2="146.44561519142675" y1="172.8068346515853" y2="177.08958963109032" /><path d="M 144.38136562736335 173.6633856474863 a86.0,86.0 0 0,1 -40.68145358897372,12.25698825130547" fill="none" id="id126" stroke="none" /><text fill="#e1ed5e" style="font-size:6.75px; font-family:Arial;" text-anchor="middle"><textPath startOffset="21.466115282336833" xlink:href="#id126">June</textPath></text><line stroke="#e1ed5e" stroke-width="0.3" x1="102.19456741930631" x2="102.32365962044197" y1="184.97166512339345" y2="189.96999836594603" /><path d="M 102.22038585953345 185.97133177190398 a86.0,86.0 0 0,1 -42.740103519485714,-10.115201625700543" fill="none" id="id127" stroke="none" /><text fill="#e1ed5e" style="font-size:6.75px; font-family:Arial;" text-anchor="middle"><textPath startOffset="22.20632615414155" xlink:href="#id127">July</textPath></text><line stroke="#e1ed5e" stroke-width="0.3" x1="58.666819895761336" x2="56.23545636021788" y1="174.27360380694188" y2="178.64263932499728" /><path d="M 58.180547188652646 175.14741091055294 a86.0,86.0 0 0,1 -31.652253787137756,-30.449443065178592" fill="none" id="id128" stroke="none" /><text fill="#e1ed5e" style="font-size:6.75px; font-family:Arial;" text-anchor="middle"><textPath startOffset="22.20632615414155" xlink:href="#id128">August</textPath></text><path d="M 87.07902340077011 116.55440617244103 l -11.355054998948262 14.548141242992445 a39.454963767376995,39.454963767376995 0 0,0 -0.5317824699744845,-0.4224801559733071 l 11.603794961640105 -14.350527173014006" fill="#ffa60f" stroke="none" /><line stroke="#e1ed5e" stroke-width="0.3" x1="26.63291911575756" x2="22.317208475507996" y1="142.92168965132927" y2="145.44649492493687" /><path d="M 25.769776987707644 143.4266507060508 a86.0,86.0 0 0,1 -11.730757126820373,-40.83630448921669" fill="none" id="id129" stroke="none" /><text fill="#e1ed5e" style="font-size:6.75px; font-family:Arial;" text-anchor="middle"><textPath startOffset="21.46611528233685" xlink:href="#id129">September</textPath></text><path d="M 80.58989483394504 108.01547362559985 l -23.387537060277143 9.65796861328864 a46.3032260291273,46.3032260291273 0 0,0 -0.2978783232373511,-0.7393095694516121 l 23.550317997771884 -9.253959675994222" fill="#f8ff18" stroke="none" /><path d="M 80.45479744820244 107.68017299344265 l -7.252443363591517 2.8498051892741962 a28.792260542289174,28.792260542289174 0 0,0 -0.17728590435962305,-0.4628375531750661 l 7.300423547544649 -2.7245440692659724" fill="#ff0000" stroke="none" /><path d="M 80.32549172779594 107.34259656027581 l -14.795397886872438 5.521695186941078 a36.792178962016536,36.792178962016536 0 0,0 -0.2163305469791918,-0.5952487550138242 l 14.888252694856854 -5.266198634921137" fill="#ff7e0b" stroke="none" /><path d="M 79.58551787078972 104.9243191809786 l -15.729466268396997 3.794213929198487 a37.1806108793569,37.1806108793569 0 0,0 -0.1447200996016608,-0.6234504014070549 l 15.792446933929213 -3.522894870442858" fill="#ff840c" stroke="none" /><path d="M 79.4281124754447 104.21870165774334 l -61.715662573665874 12.656104973230022 a84.0,84.0 0 0,0 -0.2782802680973342,-1.4189450917281805 l 61.92437277473888 -11.591896154433886" fill="#4dd2ff" stroke="none" /><line stroke="#e1ed5e" stroke-width="0.3" x1="15.007084014347285" x2="10.007500721073583" y1="101.09737516637583" y2="101.16192664675087" /><path d="M 14.007167355692545 101.11028546245083 a86.0,86.0 0 0,1 10.666146001902534,-42.60595125391555" fill="none" id="id130" stroke="none" /><text fill="#e1ed5e" style="font-size:6.75px; font-family:Arial;" text-anchor="middle"><textPath startOffset="22.20632615414155" xlink:href="#id130">October</textPath></text><line stroke="#e1ed5e" stroke-width="0.3" x1="26.266209847984243" x2="21.928928074336255" y1="57.711370442889674" y2="55.22380399835377" /><path d="M 25.398753493254645 57.213857153982495 a86.0,86.0 0 0,1 29.58750427330803,-30.492523968695096" fill="none" id="id131" stroke="none" /><text fill="#e1ed5e" style="font-size:6.75px; font-family:Arial;" text-anchor="middle"><textPath startOffset="21.46611528233685" xlink:href="#id131">November</textPath></text><line stroke="#e1ed5e" stroke-width="0.3" x1="56.762969772571076" x2="54.21961505331055" y1="26.818313649435495" y2="22.513508569990535" /><path d="M 56.25429882871897 25.957352633546506 a86.0,86.0 0 0,1 42.265352541879196,-11.944610805530505" fill="none" id="id132" stroke="none" /><text fill="#e1ed5e" style="font-size:6.75px; font-family:Arial;" text-anchor="middle"><textPath startOffset="22.20632615414155" xlink:href="#id132">December</textPath></text></svg>