<?xml version="1.0" encoding="utf-8" ?>
<svg baseProfile="full" height="200mm" version="1.1" viewBox="0,0,200,200" width="200mm" xmlns="http://www.w3.org/2000/svg" xmlns:ev="http://www.w3.org/2001/xml-events" xmlns:xlink="http://www.w3.org/1999/xlink"><defs /><rect fill="#1a1a1a" height="200" width="200" x="0" y="0" /><text alignment-baseline="middle" fill="#e1ed5e" style="dominant-baseline: central; font-size:9.0px; font-family:Arial;" text-anchor="middle" x="100.0" y="100.0">2024</text><line stroke="#e1ed5e" stroke-width="0.3" x1="100.0" x2="100.0" y1="15.0" y2="10.0" /><path d="M 100.0 14.0 a86.0,86.0 0 0,1 42.35913384403234,11.155469271406648" fill="none" id="id109" stroke="none" /><text fill="#e1ed5e" style="font-size:6.75px; font-family:Arial;" text-anchor="middle"><textPath startOffset="22.145653131862478" xlink:href="#id109">January</textPath></text><line stroke="#e1ed5e" stroke-width="0.3" x1="143.13028292997686" x2="145.6673583964461" y1="26.7553504044142" y2="22.446841604673864" /><path d="M 143.63769802327073 25.89364864446614 a86.0,86.0 0 0,1 29.32050498858742,28.57503671076993" fill="none" id="id110" stroke="none" /><text fill="#e1ed5e" style="font-size:6.75px; font-family:Arial;" text-anchor="middle"><textPath startOffset="20.669276256404974" xlink:href="#id110">February</textPath></text><line stroke="#e1ed5e" stroke-width="0.3" x1="172.87174338648825" x2="177.1583165268699" y1="56.24261187166439" y2="53.66864786411523" /><path d="M 173.72905801456457 55.72781907015455 a86.0,86.0 0 0,1 12.242430191666344,42.057860355516425" fill="none" id="id111" stroke="none" /><text fill="#e1ed5e" style="font-size:6.75px; font-family:Arial;" text-anchor="middle"><textPath startOffset="22.145653131862474" xlink:href="#id111">March</textPath></text><path d="M 119.58574465831526 92.42381321644754 l 28.164253699746567 -10.894538368141502 a51.19794947870791,51.19794947870791 0 0,0 0.3100384869195286,0.8224139213421507 l -28.347122870480536 10.409456166605194" fill="#b7ff1f" stroke="none" /><path d="M 119.71291397450082 92.76114493625339 l 29.17551863129574 -10.713654564453437 a52.080432454062134,52.080432454062134 0 0,0 0.3009748774601372,0.841880298796139 l -29.35513367879982 10.211239309276381" fill="#acff20" stroke="none" /><path d="M 119.83427380445688 93.10060997987247 l 23.860247087332134 -8.299832514922972 a46.262593114015715,46.262593114015715 0 0,0 0.25447637812070173,0.7523141944247403 l -23.9992088870252 7.88901664602407" fill="#f8ff18" stroke="none" /><path d="M 119.94978838288452 93.4421083053983 l 23.039801281195096 -7.573640309731262 a45.252679658506715,45.252679658506715 0 0,0 0.2362519236286246,0.7400557858654798 l -23.166417920600978 7.177015490174395" fill="#fff817" stroke="none" /><path d="M 120.35273937422433 94.82641323984039 l 23.444531075613405 -5.9595081202953155 a45.19011728767077,45.19011728767077 0 0,0 0.1846607495939971,0.7534788739788074 l -23.54337935172369 5.556173421708413" fill="#fff717" stroke="none" /><path d="M 120.43855184770803 95.1765574152323 l 23.435064457108812 -5.530611401505469 a45.07882697689626,45.07882697689626 0 0,0 0.17127622697512276,0.7546746586371392 l -23.526551545641603 5.1275024089293035" fill="#fff617" stroke="none" /><path d="M 120.82617615685814 97.30363454192243 l 23.696129098231847 -3.0679383247979892 a44.8939067505679,44.8939067505679 0 0,0 0.09239147568632129,0.7651339568399489 l -23.74530266017783 2.6607106910346277" fill="#fff316" stroke="none" /><path d="M 120.86939407059847 97.66154086499901 l 24.04135132498801 -2.6938835614250305 a45.191808162558225,45.191808162558225 0 0,0 0.07976915276254991,0.771694192235747 l -24.084052870232227 2.2807848469063523" fill="#fff717" stroke="none" /><path d="M 120.9064616781168 98.02013634271609 l 24.460203600661956 -2.3164067121604877 a45.56964184195566,45.56964184195566 0 0,0 0.06706631163315713,0.7794122013457068 l -24.496363534992852 1.8961734634391187" fill="#fffc17" stroke="none" /><path d="M 120.93736805541906 98.37931529534042 l 24.338661623823374 -1.8839663381380085 a45.411468182028905,45.411468182028905 0 0,0 0.0534904685953349,0.7777396738320438 l -24.367416053583774 1.4658832401516306" fill="#fffa17" stroke="none" /><path d="M 120.96210409425399 98.7389718711861 l 28.01695097184717 -1.68543019823969 a49.067600836409696,49.067600836409696 0 0,0 0.04336269908110044,0.8412247777351911 l -28.041755260384843 1.204233627127768" fill="#d3ff1c" stroke="none" /><line stroke="#e1ed5e" stroke-width="0.3" x1="184.99686870605535" x2="189.99668451229388" y1="99.2704041080226" y2="99.22748670261217" /><path d="M 185.99683186730306 99.26182062694052 a86.0,86.0 0 0,1 -10.086455211305974,41.156179273409016" fill="none" id="id112" stroke="none" /><text fill="#e1ed5e" style="font-size:6.75px; font-family:Arial;" text-anchor="middle"><textPath startOffset="21.40746469413373" xlink:href="#id112">April</textPath></text><path d="M 120.99922638620191 99.81974689727618 l 24.462061823112403 -0.2099773801922247 a45.46296300814694,45.46296300814694 0 0,0 0.0,0.7804609658321002 l -24.462061823112403 -0.20997738019222173" fill="#fffb17" stroke="none" /><path d="M 120.99922638620191 100.18025310272382 l 27.481699412434303 0.23589733717379946 a48.48271184124808,48.48271184124808 0 0,0 -0.014287551357695962,0.83217823835051 l -27.473600429477937 -0.7076224914933805" fill="#daff1b" stroke="none" /><path d="M 120.99303781780057 100.54070618675476 l 25.790354709078457 0.6642680526195207 a46.79890788513762,46.79890788513762 0 0,0 -0.027578625394493295,0.8029215874407776 l -25.775151396687118 -1.106895904624409" fill="#f1ff19" stroke="none" /><path d="M 120.9064616781168 101.97986365728391 l 25.814529867668913 2.4446628177337537 a46.93002754686505,46.93002754686505 0 0,0 -0.08283732580627588,0.8013759832115839 l -25.76876014938097 -2.8874433232282692" fill="#efff19" stroke="none" /><path d="M 120.86939407059847 102.33845913500097 l 24.336941710131306 2.727005080622876 a45.48924842685197,45.48924842685197 0 0,0 -0.09361668641068663,0.7752804592367719 l -24.286542937460954 -3.1443792167830567" fill="#fffb17" stroke="none" /><path d="M 120.82617615685814 102.69636545807757 l 12.091821773212834 1.5655284152479805 a33.192745097560795,33.192745097560795 0 0,0 -0.07801161814998997,0.5644532074892032 l -12.063165638507634 -1.7728699309372689" fill="#ff4706" stroke="none" /><path d="M 120.7213421655516 103.40968896794604 l 23.43578960453811 3.8563502610628704 a44.75095096462827,44.75095096462827 0 0,0 -0.13123788012155735,0.7569452174316711 l -23.36613690692432 -4.25808851141513" fill="#fff116" stroke="none" /><path d="M 120.65975698304385 103.76489593502545 l 24.253225023679118 4.419745516747796 a45.652648427339955,45.652648427339955 0 0,0 -0.14711828505795937,0.7697850336931888 l -24.173780446339 -4.8354331154742995" fill="#fffe18" stroke="none" /><path d="M 120.43855184770803 104.8234425847677 l 23.779906766621625 5.611993247593569 a45.433142123768135,45.433142123768135 0 0,0 -0.18565382398939115,0.7575309563995147 l -23.68006541611594 -6.019380028601184" fill="#fffb17" stroke="none" /><path d="M 120.35273937422433 105.17358676015961 l 11.45328561890895 2.9113804166016384 a32.81752458844398,32.81752458844398 0 0,0 -0.14347590338897964,0.544801374750308 l -11.401620234715239 -3.1075622957247497" fill="#ff4106" stroke="none" /><path d="M 120.16314734710363 105.8691983318838 l 11.82124514830851 3.4409921779998345 a33.31187491917716,33.31187491917716 0 0,0 -0.164534774009326,0.5476827506419609 l -11.760434054295553 -3.643412532232519" fill="#ff4906" stroke="none" /><path d="M 119.71291397450082 107.23885506374661 l 11.136952031220842 4.089643048723723 a32.864100505798504,32.864100505798504 0 0,0 -0.19901453277980438,0.5279096925472867 l -11.065106814626597 -4.280221021465169" fill="#ff4206" stroke="none" /><path d="M 119.58574465831526 107.57618678355244 l 12.841097890519867 4.96721252225435 a34.768333060873935,34.768333060873935 0 0,0 -0.22010229839674683,0.554801573422803 l -12.753936917156997 -5.186915112890717" fill="#ff5f08" stroke="none" /><path d="M 119.4528033332814 107.91128576633889 l 22.12865723368912 8.999532252585915 a44.88868041000666,44.88868041000666 0 0,0 -0.29642380217758474,0.7113092159300185 l -21.970907586975045 -9.37807397795721" fill="#fff316" stroke="none" /><path d="M 119.31412917781788 108.2440532568976 l 22.380190104376297 9.552772347192944 a45.33368793720584,45.33368793720584 0 0,0 -0.3116499305404152,0.7131160306002063 l -22.212906291818918 -9.935550447568994" fill="#fff917" stroke="none" /><path d="M 119.16976305983485 108.57439118712176 l 21.877263430660054 9.785421664977475 a44.96599950713315,44.96599950713315 0 0,0 -0.32121897520904114,0.7019214316270055 l -21.706059990595957 -10.159532078819169" fill="#fff417" stroke="none" /><line stroke="#e1ed5e" stroke-width="0.3" x1="174.33088141563837" x2="178.70328620479359" y1="141.23008692659167" y2="143.65538615756765" /><path d="M 175.20536237346943 141.71514677278685 a86.0,86.0 0 0,1 -30.301960400862466,31.631185727798858" fill="none" id="id113" stroke="none" /><text fill="#e1ed5e" style="font-size:6.75px; font-family:Arial;" text-anchor="middle"><textPath startOffset="22.145653131862474" xlink:href="#id113">May</textPath></text><path d="M 118.00360718960297 110.81064883170644 l 6.671904087099965 4.006286704928674 a28.78232852747489,28.78232852747489 0 0,0 -0.25798839459237494,0.4214046539860886 l -6.602147728052185 -4.120228475039319" fill="#ff0000" stroke="none" /><path d="M 117.423217284605 111.72311816256416 l 20.083120327156127 13.512819637293696 a45.20595002525333,45.20595002525333 0 0,0 -0.4387350748647789,0.6401275859842764 l -19.848195515476025 -13.855581958348015" fill="#fff717" stroke="none" /><path d="M 117.21940702142032 112.02048342749411 l 20.002975946873384 13.963630720317456 a45.39471314905319,45.39471314905319 0 0,0 -0.4515366754000322,0.6351428814372073 l -19.760324172943392 -14.304950828464166" fill="#fffa17" stroke="none" /><path d="M 117.01052211995028 112.31430620078461 l 19.7019272476938 14.26267595802592 a45.322620392487934,45.322620392487934 0 0,0 -0.4616389032915228,0.6263018326334151 l -19.454186324818448 -14.598784099928212" fill="#fff917" stroke="none" /><path d="M 116.79662413953412 112.60449989151573 l 19.086202935532008 14.322642504342733 a44.86254870720049,44.86254870720049 0 0,0 -0.46752762263890635,0.6120086658726408 l -18.837523335538798 -14.64817208345625" fill="#fff316" stroke="none" /><path d="M 116.57777611688842 112.89097897827486 l 9.454558762449723 7.351922079068338 a32.97662054376389,32.97662054376389 0 0,0 -0.35133223903024297,0.44389680689597133 l -9.326960092777918 -7.513138829878992" fill="#ff4306" stroke="none" /><path d="M 116.35404254752997 113.17365903436017 l 9.433021733076213 7.598574579593714 a33.11281283015369,33.11281283015369 0 0,0 -0.3603827950613147,0.4396084125519867 l -9.301192118776271 -7.759385273844193" fill="#ff4606" stroke="none" /><path d="M 115.89218393027572 113.72728997021213 l 17.900387493432167 15.461928378099179 a44.653648800650004,44.653648800650004 0 0,0 -0.5060511604016037,0.5757933260067855 l -17.632325269071977 -15.766933981917257" fill="#fff016" stroke="none" /><path d="M 115.6541949942343 113.99807769240083 l 18.130543676196563 16.212443953735217 a45.32200552889249,45.32200552889249 0 0,0 -0.5235820354174453,0.575508374996337 l -17.849563939937237 -16.521289904289226" fill="#fff917" stroke="none" /><path d="M 115.41159269507618 114.26474011684316 l 17.74228177376534 16.42199113291026 a45.1758217090768,45.1758217090768 0 0,0 -0.5316638472175788,0.564608581503428 l -17.457762092811503 -16.724141174358188" fill="#fff717" stroke="none" /><path d="M 115.16444852881244 114.52719865689866 l 17.81862569923417 17.06984034624607 a45.675552096270074,45.675552096270074 0 0,0 -0.5472653224831177,0.5615424323111822 l -17.522973575600243 -17.373205470624992" fill="#fffe18" stroke="none" /><path d="M 114.91283532996324 114.78537596483092 l 17.170608187210515 17.02385173412473 a45.17935717475058,45.17935717475058 0 0,0 -0.5507752609557329,0.5460678083795633 l -16.875841006124816 -17.316099552732954" fill="#fff717" stroke="none" /><path d="M 114.13192950727249 115.5334660781643 l 8.34991606497329 9.17802044540589 a33.407947355964545,33.407947355964545 0 0,0 -0.4275182779329112,0.3822894803361316 l -8.191132760217 -9.320005455625408" fill="#ff4a06" stroke="none" /><path d="M 113.86319453409587 115.77377054828091 l 16.366942663065405 18.622576312343487 a45.792683611201255,45.792683611201255 0 0,0 -0.5949135126601374,0.5138721230079208 l -16.044849670642414 -18.900792567816126" fill="#ffff18" stroke="none" /><path d="M 113.59037401385872 116.0094264158162 l 7.737567051889698 9.114834531290454 a32.95617632921554,32.95617632921554 0 0,0 -0.4344340693244326,0.3624203518135407 l -7.5799586484033705 -9.246317067015864" fill="#ff4306" stroke="none" /><path d="M 113.31354834802062 116.24036423190432 l 16.036893009088427 19.562401908759178 a46.29564203227058,46.29564203227058 0 0,0 -0.6189269445937599,0.4985637350251339 l -15.698715294139415 -19.834813937577714" fill="#f8ff18" stroke="none" /><path d="M 113.03279911837588 116.46651593811092 l 16.076203377092913 20.31175779882671 a46.90389584405889,46.90389584405889 0 0,0 -0.6356372530992426,0.4942753726275277 l -15.725156179358438 -20.58473422307503" fill="#efff19" stroke="none" /><line stroke="#e1ed5e" stroke-width="0.3" x1="143.1302829299769" x2="145.66735839644613" y1="173.24464959558577" y2="177.55315839532614" /><path d="M 143.63769802327073 174.10635135553383 a86.0,86.0 0 0,1 -40.68552437913181,11.842963189579606" fill="none" id="id114" stroke="none" /><text fill="#e1ed5e" style="font-size:6.75px; font-family:Arial;" text-anchor="middle"><textPath startOffset="21.407464694133747" xlink:href="#id114">June</textPath></text><line stroke="#e1ed5e" stroke-width="0.3" x1="101.45913802915013" x2="101.54496967792366" y1="184.9874750549273" y2="189.98673829345242" /><path d="M 101.47630435890484 185.9873277026323 a86.0,86.0 0 0,1 -42.54439059252881,-10.42667462771756" fill="none" id="id115" stroke="none" /><text fill="#e1ed5e" style="font-size:6.75px; font-family:Arial;" text-anchor="middle"><textPath startOffset="22.145653131862474" xlink:href="#id115">July</textPath></text><line stroke="#e1ed5e" stroke-width="0.3" x1="58.13341422392154" x2="55.67067388415222" y1="173.97424548756322" y2="178.32567169271397" /><path d="M 57.64086615596768 174.84453072859336 a86.0,86.0 0 0,1 -31.369924170532247,-30.572349798747897" fill="none" id="id116" stroke="none" /><text fill="#e1ed5e" style="font-size:6.75px; font-family:Arial;" text-anchor="middle"><textPath startOffset="22.145653131862474" xlink:href="#id116">August</textPath></text><path d="M 84.83555147118756 114.52719865689866 l -17.550447762255647 16.81293194905102 a45.30417448462475,45.30417448462475 0 0,0 -0.5331744014890432,-0.5662127377930806 l 17.836477997480944 -16.509177751313448" fill="#fff917" stroke="none" /><line stroke="#e1ed5e" stroke-width="0.3" x1="26.387840678322732" x2="22.057713659400548" y1="142.50000000000003" y2="145.00000000000006" /><path d="M 25.521815274538298 143.00000000000003 a86.0,86.0 0 0,1 -11.493303480769221,-40.785679425670985" fill="none" id="id117" stroke="none" /><text fill="#e1ed5e" style="font-size:6.75px; font-family:Arial;" text-anchor="middle"><textPath startOffset="21.40746469413373" xlink:href="#id117">September</textPath></text><path d="M 80.28708602549918 107.23885506374661 l -22.403336390860296 8.226815441267318 a44.86608417287427,44.86608417287427 0 0,0 -0.25928287361972147,-0.7252603438458101 l 22.541259434523962 -7.841020141040586" fill="#fff316" stroke="none" /><path d="M 79.56144815229197 104.8234425847677 l -13.08785029101978 3.088697032311924 a34.44737426405464,34.44737426405464 0 0,0 -0.13088220543473975,-0.5766911465330482 l 13.138943358012186 -2.8635715518398497" fill="#ff5a08" stroke="none" /><path d="M 79.48165901384964 104.47187691870673 l -25.26260063317119 5.5058662274030095 a46.855629051816905,46.855629051816905 0 0,0 -0.1645353022402515,-0.7873609836695062 l 25.353393646235805 -5.0713887924480945" fill="#f0ff19" stroke="none" /><path d="M 79.22317932658666 103.0534771498775 l -24.09895646845587 3.541716707719623 a45.357821333326825,45.357821333326825 0 0,0 -0.10660272380517331,-0.77132420536679 l 24.156203708816257 -3.1275041941527473" fill="#fffa17" stroke="none" /><path d="M 79.17382384314188 102.69636545807758 l -12.299602321332971 1.5924297671136323 a33.40225986770673,33.40225986770673 0 0,0 -0.06874171360452028,-0.5692800005571439 l 12.325126121197153 -1.3810560896330892" fill="#ff4a06" stroke="none" /><path d="M 79.13060592940153 102.33845913500099 l -12.443209515365508 1.3942875802480437 a33.52108225752537,33.52108225752537 0 0,0 -0.05916887241484465,-0.5724051669395458 l 12.465310780262019 -1.1804778910255664" fill="#ff4c07" stroke="none" /><path d="M 79.0935383218832 101.97986365728391 l -24.223158246131582 2.293958270631333 a45.331535914621796,45.331535914621796 0 0,0 -0.06671588346039119,-0.775339694793639 l 24.258967752289713 -1.8777975284620319" fill="#fff917" stroke="none" /><path d="M 79.06263194458094 101.62068470465958 l -25.528399171353687 1.9760595487429806 a46.60476470487768,46.60476470487768 0 0,0 -0.05489606045870532,-0.7981766710404201 l 25.55855919297746 -1.5375394535482172" fill="#f4ff19" stroke="none" /><path d="M 79.01933749520258 100.90099992219065 l -8.569448851164188 0.36800900573803075 a29.57734715637787,29.57734715637787 0 0,0 -0.017429948993479043,-0.507453947202628 l 8.574503487154514 -0.2208487939712828" fill="#ff0d01" stroke="none" /><line stroke="#e1ed5e" stroke-width="0.3" x1="15.003131293944662" x2="10.003315487706104" y1="100.72959589197737" y2="100.7725132973878" /><path d="M 14.003168132696942 100.73817937305945 a86.0,86.0 0 0,1 10.791469493833604,-42.45332614584628" fill="none" id="id118" stroke="none" /><text fill="#e1ed5e" style="font-size:6.75px; font-family:Arial;" text-anchor="middle"><textPath startOffset="22.145653131862435" xlink:href="#id118">October</textPath></text><path d="M 79.13060592940154 97.66154086499901 l -25.394651181310724 -2.8455236330393783 a46.55357731055736,46.55357731055736 0 0,0 0.09580707088150144,-0.7934199848229585 l 25.342062024169554 3.281037294785773" fill="#f4ff19" stroke="none" /><path d="M 79.17382384314186 97.30363454192245 l -25.561275837960274 -3.309418911794429 a46.774620773117775,46.774620773117775 0 0,0 0.10993257243828781,-0.7954173313137324 l 25.50069874896678 3.7477245513082282" fill="#f1ff19" stroke="none" /><path d="M 79.22317932658666 96.9465228501225 l -25.690497421645265 -3.775618420115713 a46.96645821489483,46.96645821489483 0 0,0 0.12407757244346536,-0.7966670223318225 l 25.621898357063532 4.216073624378986" fill="#efff19" stroke="none" /><path d="M 79.2786578344484 96.59031103205396 l -23.957100628088366 -3.9421317916059575 a45.27927250900946,45.27927250900946 0 0,0 0.1327872505374383,-0.765881574261297 l 23.885898560058695 4.352806398787847" fill="#fff817" stroke="none" /><path d="M 79.34024301695615 96.23510406497455 l -22.462867673822302 -4.093482767662651 a43.83280590073857,43.83280590073857 0 0,0 0.14125373785616321,-0.7390992446116249 l 22.38928764368398 4.47848457730759" fill="#ffe415" stroke="none" /><path d="M 79.48165901384962 95.52812308129327 l -23.794791330253407 -5.18596402150772 a45.353363572259894,45.353363572259894 0 0,0 0.17231932404251168,-0.7592707367803748 l 23.702261144653235 5.5936690922271035" fill="#fff917" stroke="none" /><path d="M 79.56144815229197 95.17655741523228 l -25.771913426562286 -6.082101395386648 a47.479869317086624,47.479869317086624 0 0,0 0.19401738222772014,-0.7916571280831253 l 25.663708517818268 6.523614348077891" fill="#e8ff1a" stroke="none" /><path d="M 79.64726062577567 94.8264132398404 l -22.880947008490615 -5.816247254311037 a44.60861004228407,44.60861004228407 0 0,0 0.19502569755055388,-0.7405443396939148 l 22.777731830135334 6.2081720983777355" fill="#ffef16" stroke="none" /><path d="M 79.73907114497095 94.47779374421319 l -26.455425069907825 -7.21054374485314 a48.42045690220986,48.42045690220986 0 0,0 0.22545834715884722,-0.8000721364791654 l 26.327748230674395 7.663623805235319" fill="#dbff1b" stroke="none" /><line stroke="#e1ed5e" stroke-width="0.3" x1="26.387840678322718" x2="22.05771365940052" y1="57.49999999999999" y2="54.99999999999999" /><path d="M 25.521815274538284 56.99999999999999 a86.0,86.0 0 0,1 29.574782752854787,-30.34633250058573" fill="none" id="id119" stroke="none" /><text fill="#e1ed5e" style="font-size:6.75px; font-family:Arial;" text-anchor="middle"><textPath startOffset="21.40746469413373" xlink:href="#id119">November</textPath></text><path d="M 81.99639281039701 89.18935116829357 l -54.01082156880897 -32.43194649511929 a84.0,84.0 0 0,0 0.752928142178428,-1.2298515355018278 l 53.44612546217515 33.35433514674566" fill="#4dd2ff" stroke="none" /><path d="M 89.03521579738668 82.08984904055464 l -5.216824876495351 -8.521291376145163 a30.99137970998934,30.99137970998934 0 0,0 0.45611525225944133,-0.27388410372614647 l 5.069776867678475 8.609589480407232" fill="#ff2403" stroke="none" /><line stroke="#e1ed5e" stroke-width="0.3" x1="56.869717070023135" x2="54.33264160355391" y1="26.7553504044142" y2="22.446841604673864" /><path d="M 56.362301976729285 25.89364864446614 a86.0,86.0 0 0,1 42.16139366436587,-11.88097634709845" fill="none" id="id120" stroke="none" /><text fill="#e1ed5e" style="font-size:6.75px; font-family:Arial;" text-anchor="middle"><textPath startOffset="22.145653131862474" xlink:href="#id120">December</textPath></text></svg>